<mxfile host="65bd71144e">
    <diagram id="gxqwkqCMilSk9HNDRF06" name="ページ1">
        <mxGraphModel dx="1644" dy="408" grid="1" gridSize="10" guides="1" tooltips="1" connect="1" arrows="1" fold="1" page="1" pageScale="1" pageWidth="1200" pageHeight="1600" math="0" shadow="0">
            <root>
                <mxCell id="0"/>
                <mxCell id="1" parent="0"/>
                <mxCell id="17" value="&lt;span style=&quot;color: rgba(0 , 0 , 0 , 0) ; font-family: monospace ; font-size: 0px&quot;&gt;%3CmxGraphModel%3E%3Croot%3E%3CmxCell%20id%3D%220%22%2F%3E%3CmxCell%20id%3D%221%22%20parent%3D%220%22%2F%3E%3CmxCell%20id%3D%222%22%20value%3D%22%22%20style%3D%22shape%3DflexArrow%3BendArrow%3Dclassic%3Bhtml%3D1%3BfontSize%3D14%3BfillColor%3D%230DF7FF%3B%22%20edge%3D%221%22%20parent%3D%221%22%3E%3CmxGeometry%20width%3D%2250%22%20height%3D%2250%22%20relative%3D%221%22%20as%3D%22geometry%22%3E%3CmxPoint%20x%3D%22281.26%22%20y%3D%22260%22%20as%3D%22sourcePoint%22%2F%3E%3CmxPoint%20x%3D%22281.52%22%20y%3D%22310%22%20as%3D%22targetPoint%22%2F%3E%3C%2FmxGeometry%3E%3C%2FmxCell%3E%3C%2Froot%3E%3C%2FmxGraphModel%3E&lt;/span&gt;" style="rounded=0;whiteSpace=wrap;html=1;" parent="1" vertex="1">
                    <mxGeometry x="540" y="100" width="320" height="310" as="geometry"/>
                </mxCell>
                <mxCell id="23" value="" style="rounded=0;whiteSpace=wrap;html=1;" parent="1" vertex="1">
                    <mxGeometry x="580" y="150" width="240" height="150" as="geometry"/>
                </mxCell>
                <mxCell id="2" value="AWS Cloud" style="points=[[0,0],[0.25,0],[0.5,0],[0.75,0],[1,0],[1,0.25],[1,0.5],[1,0.75],[1,1],[0.75,1],[0.5,1],[0.25,1],[0,1],[0,0.75],[0,0.5],[0,0.25]];outlineConnect=0;gradientColor=none;html=1;whiteSpace=wrap;fontSize=12;fontStyle=0;container=1;pointerEvents=0;collapsible=0;recursiveResize=0;shape=mxgraph.aws4.group;grIcon=mxgraph.aws4.group_aws_cloud_alt;strokeColor=#232F3E;fillColor=none;verticalAlign=top;align=left;spacingLeft=30;fontColor=#232F3E;dashed=0;" parent="1" vertex="1">
                    <mxGeometry x="20" y="100" width="470" height="410" as="geometry"/>
                </mxCell>
                <mxCell id="4" value="" style="rounded=0;whiteSpace=wrap;html=1;" parent="2" vertex="1">
                    <mxGeometry x="40" y="40" width="390" height="330" as="geometry"/>
                </mxCell>
                <mxCell id="3" value="" style="sketch=0;points=[[0,0,0],[0.25,0,0],[0.5,0,0],[0.75,0,0],[1,0,0],[0,1,0],[0.25,1,0],[0.5,1,0],[0.75,1,0],[1,1,0],[0,0.25,0],[0,0.5,0],[0,0.75,0],[1,0.25,0],[1,0.5,0],[1,0.75,0]];outlineConnect=0;fontColor=#232F3E;gradientColor=#F78E04;gradientDirection=north;fillColor=#D05C17;strokeColor=#ffffff;dashed=0;verticalLabelPosition=bottom;verticalAlign=top;align=center;html=1;fontSize=12;fontStyle=0;aspect=fixed;shape=mxgraph.aws4.resourceIcon;resIcon=mxgraph.aws4.eks;" parent="2" vertex="1">
                    <mxGeometry x="40" y="40" width="40" height="40" as="geometry"/>
                </mxCell>
                <mxCell id="6" value="" style="rounded=0;whiteSpace=wrap;html=1;" parent="2" vertex="1">
                    <mxGeometry x="120" y="70" width="270" height="140" as="geometry"/>
                </mxCell>
                <mxCell id="5" value="" style="shape=image;verticalLabelPosition=bottom;labelBackgroundColor=#ffffff;verticalAlign=top;aspect=fixed;imageAspect=0;image=data:image/png,iVBORw0KGgoAAAANSUhEUgAABdwAAAK4CAYAAABu9z+mAAAACXBIWXMAAC4jAAAuIwF4pT92AAAgAElEQVR4nOzdfYwcd37n99+vqvppumd6nsgZkqKGknattb1jcnG4Q2zAEI0g/mMuONEHnHNBkhMPQf7wJTjpECNIYgcrJwbsIGeIdoI4B/u8VC7nxIvzLuWz+xzHsSjHXjl2bkVu7+2KWlGcIUWKTQ5npjk1/VgPwW9Us2pR89APVd2/qn6/gIFW2n74VXVXT8+nvvX9St/3BQAAAAAAAAAAGIzB/gMAAAAAAAAAYHAE7gAAAAAAAAAAhIDAHQAAAAAAAACAEBC4AwAAAAAAAAAQAgJ3AAAAAAAAAABCQOAOAAAAAAAAAEAILHYigMOUyvY5IcT0ATc57P/rdE0IsbXf/7GyXLjKCwAAAAAAAIAkkL7v80ICY6JUtqeDkFw8EZaf79gD6r8XR7hHrneE851B/V4wv7qyXFgd0doAAAAAAACAAxG4AwnSEaif2ednKWGvdbUjkFf/XA1+rq0sF/atpgcAAAAAAACiROAOxFDQ5uVMEK7vVaq/wGv5KW91hPHXgsr4axqtDwAAAAAAAAlD4A5orKNi/XxH5fpZXrOBvLVXCR9Uw9NDHgAAAAAAAKEgcAc0sU+4fi6BbWB0dT0I4K8GITyV8AAAAAAAAOgZgTswIkFbmPMdITvhuj6qHQH8VargAQAAAAAA0A0Cd2BISmX7/BMBe5F9HytvEcADAAAAAADgMATuQEQ6KtgvMNA0kd7oCOBpQQMAAAAAAAACdyAspbJ9piNgp4J9vKwF4fuVIIDfGvcdAgAAAAAAMI4I3IEBBG1i9gL2s+xLBPaq36+sLBdW2SkAAAAAAADjgcAd6EGpbE93BOwXklDFns0YwjQ++fdMyqhn0/LBZ26XNvIpS+70+zye7+frTb/peb7T+d9bbX+p3vK+/++uJ0Sj6e33EHF1XQhxmfAdAAAAAAAg+QjcgSMErWL2QvYX47C/9kL0zvC8MGFaUojdsDudkksjX2SXWm1ftWsRbcfPN1rejueL6VrDK7qeL9ptX7ScWH2GEb4DAAAAAAAkGIE7sI+OkP2ijq1i8rmPS9KnJsyKaUonnzViF6SHyfX8quMKu9bwhOv61k7DW1CB/E5d60p5wncAAAAAAICEIXAHArqF7GlLilRKfipUT1nyuJQiN+q1xYkK49uO39ipe41601tSFfEaBvFvBANXrzBwFQAAAAAAIL4I3DHWOnqyq5D9hVHtC1WxPpExNjNpo6aC9XGtVB8mFcQ3Wn691vBy2zW32Gj66r+NelnVIHi/vLJcuDrqxQAAAAAAAKA3BO4YS6WyvReyD70n+164ns8ZdjZtpFOWXOBdqIe9EH57x83Umt7MiCvhVe/6S7ScAQAAAAAAiA8Cd4yNUtk+F4Ts6qc4jO1WbWHUANOpvHm3kDMswvX4abb9u7W6l3lcc+dVAD+iKnjVcuYSVe8AAAAAAAB6I3BHogUtYy4Oqy+7CtgLE2Z9Km+sT2SNgmnIGd5hydJ2/HW75okRBfB7Ve+X6fUOAAAAAACgHwJ3JFKpbJ8PQvaXotw+AnaoAH7LdlNbtuoDP7QWNHu93l+l3QwAAAAAAIA+CNyRGB3V7K8IISIbOjqVN2kRg335vmjYdfdh1XZPP94ZWvX7W0G7mSu8KgAAAAAAAKNF4I7YC3qzvxJVNfteFfvMpKmq2E/zjkG32o6/sV51Jh7bbrblRP5ZuxZUvF/mBQIAAAAAABgNAnfEVqls71Wzh96bXQ06ncwZm3NFy01Zcp53CQY1xNYz1aDP+yX6vAMAAAAAAAwXgTtiJWgb80rwUwxz7Spkn5+y1qcKhkkvdkTJdf3th1uOU7XdmQgr36sdA1bp8w4AAAAAADAEBO6IhVLZPqPaZYTdNka1izk+kyJkx8gMqe3M6wxYBQAAAAAAiB6BO7RWKtvng6D9hbDWqUL2YsGkXQy0s9Pw7m8+dhY3t92olkbwDgAAAAAAECECd2gp6M+ugvalsNY3O2Ux+BSx4Pui8bjm1h5sOrMR9XsneAcAAAAAAIgAgTu0EfRnvxBm0K76si/MWJXJCXNKSpHj1UbcqJYzDzadXNV2c64X+uc1wTsAAAAAAECICNwxcmEPQjWN3ZYx9eMz1g4tY5AUvi/qj2tu/f56ezbkXu97w1UvrSwXtnjDAAAAAAAA9I/AHSMTdtCuerOfmE9RzY7Ea7S8SmXDWXi8E2qvd4J3AAAAAACAARG4Y+jCDtpVb/a5ovk4mzYWeDUxTlzPrz7YdDKbj91siO1m1oI2M5d5MwEAAAAAAPSGwB1DE2bQrtrGzE6Zm8dmLPW/Z3gVMc5Uu5nNbcd5uOlMhthuRgXvF1eWC1d5cwEAAAAAAHSHwB1DUSrbr4YRtKu2McdnUuvTk2aetjHAZz3ecSsfrbcXQgze3wqCdwarAgAAAAAAHIHAHZEqle2Lqj2FEGJpkOfZ688+lTdpGwN0QQXv61VnYafuhbW7fjVoNUN/dwAAAAAAgAMQuCMSpbJ9XghxedCgPZ8zxOJs6s5E1jjNKwX0rt70tj561J4OKXivBqH7JV4KAAAAAACAzyJwR6iCoF1VtL8wyOOqoP3kfKrCIFQgHCEH79dViyj6uwMAAAAAAHwagTtCUSrbZ4Kg/aVBHo+gHYiWCt4/fNiebjRDCd5fD4J32swAAAAAAICxJwjcMahS2Z4OhqEONBCVoB0YrhCHq9JmBgAAAAAAIEDgjr6VyvYFIcSlQfq0MwwVGK2q7dp3H7YLrjfw7wLVZubiynLhGi8pAAAAAAAYVwTu6FnQPubyIH3aTUOKp44TtAM68H1Rf7jlGOtbTiaE4P1Xg4p32swAAAAAAICxQ+COrnW0j/lyv3tNBe3HZqzqfNFKSSkm2PuAPnxfNO+tt72Nx05uwEWtBb3dr/DyAgAAAACAcULgjq6E0T5mdsqqn5xPSSlFlr0O6Kvt+Bt3HrRmd+oDD1Z9I2gzQ7U7AAAAAAAYCwTuOFTQPkYF7S/2u6fUQNTTx9PrKUvOs7eB+LDrXvXug1ZxwMGq1SB0p9odAAAAAAAkHoE7DlQq26p9zKtCiGI/e4mBqED87fV3r2y0MwNuDNXuAAAAAAAg8Qjc8RlhDEVdnEvRpx1IENf1t9cqrckB28xQ7Q4AAAAAABKNwB2fUirbrw4yFFW1j1laTFdNQ/ZVFQ9Ab6rNzO37raLrDfS7g2p3AAAAAACQSATu2FUq2+eCqvaz/ewR05DiqeO0jwHGge+L5v2Ntr++5QwyAJlqdwAAAAAAkDgE7tjr1f5av3uimDdrpxfSUkqRY28C46Pe9LZu329NDzhU9XUhxCtUuwMAAAAAgCQgcB9jg/ZqV0NRl06k17NpY37c9yUwrkIaqromhLiwsly4xhsJAAAAAADEGYH7mCqV7YtCiEuqQL2fPTA/bTUWZ1MeQ1EBKK22X12rtIqN5kBDVX9hZbnwKjsUAAAAAADEFYH7mCmV7emgqv3FfracqnYAh3mw6TQHrHa/HlS7r7KjAQAAAABA3BC4j5FS2T4fhO1L/Ww1Ve0AuhFCb3cGqgIAAAAAgFgicB8TpbKt2jR8uZ+tNQ0pnj1FVTuA7vm+aNzfaIv1LSc7wG5joCoAAAAAAIgVAveEC1rIXOl3MGoxb9ZOL6QFVe0A+mHXvert+62i6/X9u+Z6UO3OQFUAAAAAAKA9AvcEC1rIXOlnMKqqan/qeKoylTcXxn0/AhiM74vmrY+amZ163wNVq0Gl+2VeCgAAAAAAoDMC94QapIVMNmOIZ0+mq6Yhew7q48qQQlhSipQUd0xDeE1XOJ7wn2v3nQ8CeNLGY2f77sP25AA7hhYzAAAAAABAawTuCRO0kFFVoC/2s2XHpq3NxbnUzDjsKxWy501ZzVvSk0IctM21mut/b9vxz/bfEQPAnlbbr9661ywOMFBVtZi5sLJcWGWnAgAAAAAA3RC4J0ipbJ8LWsgs9bpVqoXM0on0/XzWWByHfTVpyWYQtOe6vMvOVtuv1V3/WMRLAxJPDVS9XWllH++4/W5qNejrfoV3CwAAAAAA0InBq5EMpbJ9UQhxtZ+wXbWQeX4pszkuYftMSm4ULJnpIWxX8tMpeSxvyjsRLg0YC1KK7NJiWpw6ltruc3tVu6uvB62zAAAAAAAAtEGFewKUyvYlIcTL/WzJ/LTVODGXyo7LviqmZHPClJlBHmOj5Veanp+oYbKu7wvP94UvxE7b9e/7QljBf7/vev73T8T4Qti+72d9IZ7r53mkEDelFLYUcnrvv1mGXDWkWBRCZk0pGqYhn1LdfixpqGAWCRdCi5m3ghYz9HUHAAAAAAAjR+AeY4P0a1ctZJ46nqpM5c1EBceHMaUQxzODX9ThC1F50PQW4tLTXR3iju8JzxcP255f83y/5nj+hC9Ew/P95zVY4lF2TCnvSymclCGFFNJKmXLRlDJvksgngu+L5u1KKzNAi5m1IHS/Nu77EgAAAAAAjBaBe0yVyvaZoF/72V63QLWQObOYXk9Zcn6c9tl0Sto5UxbCeKya61+vtv2e932UHM9XFem1tuc/bHueKlo3Xd/vucVQ3BhS3DGkrKUMI5sy5IQp5THLIIiPowebTrOy0e73ChTV1/2VleXC5fHeiwAAAAAAYJQI3GMoGI56Nehj3JNi3qydXkhLKXvqX54Ii1mjKYUYqJ1Mh+1K05scRZX7XsV60/XXXM93HN/Peb5/cvgr0Zsp5U3LkK2UIQspwzhNCB8Pdt2r3r7fKrr9H1y/sLJcoLc7AAAAAAAYCQL3mAmGo17qJ2w/Nm1tLs6lZsZxv4XVTqbTY8e/seNE35Kl7X0crquqddfzi74Qc1E/Z1KpED5tSidlGLNpwzhGRxo9tR1/Y/V+a7bR9Ppd3+tBtTt93QEAAAAAwFARuMdIqWy/IoR4rdcVj2O/9ielDSnm0uGmq44vvv2w6X0xzMdUfWDarl9ved5Hbc/PUrkeLdWOJmUYdsY05gng9eL7onHro2Z2p9536H5dCHGe0B0AAAAAAAwTgXtMlMq26kv8Uq+rVWH7509nNlKWnB3XfSciCtxVW5mPGt7kIA+gAvaW6z9qud5W2/OmqV4fLUPKexlTbqdN46m0YeTHeV/o4qNH7cb6lpPtcznVIHRnmCoAAAAAABgKAnfNlcr2dNBCpuewXQ1H/dypTH0c+7U/KaLAXay3PLvtia4HsarDrel69abnrbddb4KAXWs7liErWdMsZk1jjur30anarn270up34LEK3S+sLBeuJmFfAAAAAAAAvRG4aywI21VIdLbXVQbDUYWUYmKc9tlBogrcN1v+9YbnH/r6OJ4vGq5Xabqe8Hx/bNv6xJ3q/561jFzGNE6apO9DV2t69uq9VmGAYap/f2W5cDm+ewAAAAAAAMQBgbumBgnbZ6es+qljqbGvan/SiWy4Q1OVmuvfqLY/PTj1+1Xsrnev5XmqBzuvRcKo1jM5yxCE78MVwjDVX1hZLrwa080HAAAAAAAxQOCuoVLZPieEuCKEWOp1dU8vpjeKeXOs+7Uf5HjGqJpSFMN8zIbrv7XZ9l9QvdibrrepfhzPfzbUhUNrqvI9ZxnprGmeJnuPnjrU3r/bzAwQur++sly4GKNNBgAAAAAAMULgrpkgbFeV7T0Hw0uL6cpU3qRlyQGKKdmcMGUmzMestr1v39lpL3q+Px/m4yKeLEN+MGGZixnToJVThHxf1O8+bOU2t91+n4TQHQAAAAAARILAXSP9hu2mIcXnT2c2Upaksv0QWVOKmVR4JcgPG07lo7rDCQ58hhTiYdo0tvMp81lazkTn7sN2feOx02/LputCiPMry4WtOGwrAAAAAACIBwJ3TRC2D8di1mhJIdKDPJkvRO3Wdsu3HS8fo03HiJhSruUss5CzjDleg/A9qjrNe+vtfq9cIXQHAAAAAAChInDXQL9hezZjiGdOpO9Ypjyd1H0TtkHbyji+f+fWdvt03e27fzTGlKp6z1pmLW+ZSxS9h6u6427cvt/q96QjoTsAAAAAAAgNgfuIDRK2f+5Upi6l6Ledwlgy5e7w1L42veX5G9973Jp1OWYwoLRh3MynzOcsg+Q9LHbdq96+3yq6Xl/HJ6E7AAAAAAAIBYH7CBG2j8ZsWtYyhuxpqOXjtldZtVv0a0eoVLuZQtqcTxsG7YlC0Gz79ZsfNnN9hu5rQogLK8uFa7ptFwAAAAAAiA8C9xHpN2zPZQz7uVMZQ0rRU2CMTzQd1z6Rs6oZU546arf4QuxU6k7rQcOZYRciKlKIR/mUJejzPrhW26++/2Gz30r3alDpTugOAAAAAAD6QuA+Av2G7cW8WTu9mPakEIWk7IuDqE4bOVM+mjBlzZBCbbPtC1Foun5j2/Gfd/t82z5uORtN19vt9TybMesnclbLlHLf12G77d25W2ufbvUX3AE9I3gPR9vxN753pzlL6A4AAAAAAIaNwH3I+g3bZ6es+qljqcS3kFFBe8GS1YIl0ypzP+h2ji/urje9U90G7+ptvtVqVxzP/0xbmJxpiOm0UZFSNtS/N12vsN325gjaMSoE74NzXN++9VGr0Gj2NeCY0B0AAAAAAPSFwH2ICNsPlzNlbSYt1VzTTLf3sR1/rdr2lw76/9Xbu+66mzttVz0mbXgQKwTvg/F80bp5t5kmdAcAAAAAAMNC4D4khO0HUwn7XNpYTxlivp/7e764t97yptreJ612Wp6303C8StP1FgnaEXcE7/0bMHRXg1TPrSwXtjTZHAAAAAAAoDkC9yEole1pIYSqkjywEns/4xC2FyzZmEpJ1aN94FD8RrV1t+l5nueL0+GsDtCLlGJzKm2l04aR56Xp3oCh+/Wg0p3QHQAAAAAAHInAPWJB2K4q28/28kxJD9tTxm5V+4YpxWwYj6c6x1zfaCS+7Q4gdq8KkWtTaWvOMmTiByiHhdAdAAAAAAAMg8Fejg5h+/6mUrJ6PGOIsMJ2ZbvtrYe8TEBbru8vbTbbhWrTuely0rQrhhTp505lWtlMX7/21Gf41eAzHQAAAAAA4EAE7tG61GvYnssY9sljKTeG23okVdW+mDXWJy3ZUx/7bjxoOLSRwdhped5zG432jt1213j1jxZG6D7kJQMAAAAAgJghcI9IqWxfFkK81MujqxDouacyakBi4tpETKVkM6hq72sw6mHanl+x2321iQCSIF933KX1eutR0/VqvKKHGzR0Dz7bAQAAAAAA9kXgHoFS2X6ln7D9c6cy9aSF7aYUYiFrVCctmYnqOe7XnamoHhuIC1+IucctZ2Kj0b5Lm5nDDRi6v0ToDgAAAAAADkLgHrJS2b4ohHitl0f9ftguRaL6tuctWV/IGjVLitBbyOxpuP7dR02XYalAwPX9UxuNtqDNzOFU6H5mMb1hGrKfu78UnFgFAAAAAAD4FOlTCRmaUtk+J4R4p5fHU2HPD57JJipsV/nVbFquZwwZevuYJ92otkTdpZ0MsB8pxeZU2kqnDSPPDtpf2/E3vnenOet6ff0u/PsrywWq3QEAAAAAwPcRuIekVLbPCCGuCdF9NbcK2z9/OlNJWXJB9+3rVsaQKmyvGhFWte950HCq92pO5M8DxF3aNO5MpazTsq9i7uRrtv36zQ+buT5D959YWS4wTBUAAAAAAOwicA9BqWxPCyFU4HK220cLwvaNlCVndd62XqjBqFH2au/UcP3Ku9VmYk5UAENQm0pbOxnTOMbO/iwVur93u9HPlUZVIcT5leXCtajXCAAAAAAA9EcP93Bc7iVsV86cSN9JStiuWsgczxhbwwrb255f+d7jFmE70JuJxy3n2Gaz/QHnWT8rk5K5pxfTG33cVV1lcyU48QoAAAAAAMYcgfuASmX7khDixV4eRYU6E1njtI7b06uUIcRi1mimDDGUsMkXoq7CdpfEEOiL4/nPrjdaO03Xe8ge/LRi3pw9vZBu9XHXpeAqJwAAAAAAMOYI3AdQKtsXhRAv9/IIJ+ZSFRXq6LYt/ShYsnE8YwgpxFAq2x3Pv/detZVr9ddnGcAn8qrafavZvs+5q0+bLpjphdlUs4+7ni2VbQaoAgAAAAAw5ujh3qdS2T4XVDR2PbRzdsqqnzqW6qdHsFZUC5nplNzImcNridPy/I0b1dYsle1AuKQQD6cy1kTaMPLs2k98+KAlNrfdfu76j1aWC5ciWhYAAAAAANAcgXsfgl6914I2Al0p5IydZ05mYh9omVKIYxljw5RiaGF7teVVbu+0aSMDRChrGncn09Yp9vEnPrjXFDt1r5+7/sTKcoEWMwAAAAAAjCFayvTnci9hezZjiDMnMrHf1xlDioWsUR9m2H6v5jRu2fRsB6LWcL1Tjxrtew4tm77vmROZZra/j241RPVMNKsCAAAAAAA6I3DvUalsv9rLkFTTkOLZk+lNKUWsW8nkLVmfz0jVfmIo29H2/PUb1ZZ40HCyw3g+AEJ4vn9ys9m26457h90hhJQi88yJtK0+x3tUDEL3oQyTBgAAAAAA+iBw70GpbJ8XQny5l/t8/nRmwzTkzKjXPojZtNyYTsmhnTB40HCq/2arOV93+2rlAGAwBbvtnt5qtu9wYYkQlikLzz2VqfcRup8VQtDLHQAAAACAMUMP9y4FlYqrvQxJfXoxvVHMm0NrvxI2lS/Np42tlCGGUqXZcP3KB9uthRYtLQAtSCEeTWdSGcuQhXF/Raq2a9+utPrZDwxRBQAAAABgjFDh3r0rvYTtx6atzTiH7Wo46vGMsTGMsN0Xon5np11/t9okbAc04gsxt9lsC1rMCFEsmIWF2VSzj7u+Virb5yJYEgAAAAAA0BCBexeCvu0vdHv7Qs7YWZxLxbaNTMoQajhqcxjDUTea7t1vbzZzj5purHvcAwm222Km2nLGvsXM8RkrM5U3+7kr/dwBAAAAABgTBO5H6LVve9qS4syJTGz3a8aQ4ljGqEshMlE+j2of852tpri90z7ljnuKB8RAy/VObzTb98b9eH16Id3M9v4RvySEuBzNigAAAAAAgE7o4X6IoCLxWhCWHEkN1fv86UwlZckFHbfnKHlL1qMejur6YvPOTjuz1XInonwedE+67Ub68cNKans9n3twa8ds1RYnb73z/RMuhdvf6vqxWsWF3Z/d/z29IBpzp6vt/KxdW/yc1Z6cz7rZQtdtmaCtnWLGEmnDyI/rS9Rq+9X3P2wW3d5bYNHPHQAAAACAhCNwP0SpbKu+7S92e/ulxXRlKm8Sth9AtY+5W3OoaB8R6Tr1zNZHGxP3bojJ29dPpbcqPYXpYakvPCfqC88K+6kvru+cfN5tHDsTy2Nm3OVT5r0Jyzw5rrvBrnvVW/ea/ZxA+tLKcuFaBEsCAAAAAAAaIHA/QKlsXxBCfL3b26shqXHt2z6dks28JSNrIdP2/MraTnvBbntRPQX2kbIfVSY+ek9Mv/eNhVzlA5Gr3BzublIfLaoC2BcV4YuGEMISvv9xVbSU1Y7b5b10zvOFMdmemn/cmD+d2nn6h2drJ54T9cXnhJst8PJqKm0YN4sZ67lx3f4Hm06zstHu9bNzTQhxbmW5sBXRsgAAAAAAwAgRuO+jVLbPBK1kuqpezOcM8ezJSFueR2Y2LTdypoxsOOqjprt+r+bMU9UePbO5s1m4/a2WCtgLa98S6Wpl+Ivwd/sGNYXrt4QvJsN4SGdianvn6S/W7DM/sqBCePvM2TAeFiExpKzMZlILUo7nHv3gXlPs1Hs+mfj6ynLhYjQrAgAAAAAAo0Tgvo9S2b4qhHihm9uqvu0/eCZbl1JE2o4lClGG7b4QtTW7LejVHq3044frM995MzXznbeKQ69gf5KqZm/5qpI9G/VT1RefXa/+wL81uf3clzIE8KMnhXg0nUnNWcb4pe6+L5rv3W5kWk7Pv0t/amW5cCWaVQEAAAAAgFEhcH9CqWy/IoR4rdvbqyGp2bQRux7UUYbtbc9f/97j1nyr94GC6IIK2ee/+fvmzHeuzoykiv0wjr8pHH/orZVUAL9x7ifnt585u9uGBiNhFzOWHMdhqs22X3/vdqPXk66qrdIZWssAAAAAAJAsBO4dem0lc2IuVZmftgjbO+w43p0PttunaSETLrNhV2e++6fGwtu/M6ldyP4k16+Ltj+yKz5UC5qtH/px8fjzf32y+oUfG9UyxlYhZd7JWebpcdv+R1WneW+9537ub60sF85HtCQAAAAAADACBO4demklU8gZO8+czMSukjPKsH2r5W6s2u3I+sGPo6mbf3Vn/tq/Ol187xvx2nrV0rrl1YUYbaslz0o3q1/40fbm8k8UCN+HJ2eZlULKjN3JyEGt3W+Jxztur4/yj1aWC5e02xgAAAAAANAXAvdAL61kgr7tDSmj71UdpijD9g932o/Wm+7cyDYuQVQ1+/y1klh4+6tFs2HHd8M0Cd33qPB949y/01r/6//uJG1nopc2jTvFtDVWle599nNXrWXOrSwXVqNbGQAAAAAAGBYC9z5ayTx7KnM/nzUWo19ZeKIK230h7A932uajphu7obG6SVcfbCz++W/n5q7/YXL2pbfb1H9d+GJeg9V8X3PmRPX+C/9BsfqDPybcbEGTVSVP2jBuFjPWWJ3dqDU9++aHzV7fVLSWAQAAAAAgIQjce2wlc2za2lycSw19KOQgIgzb6+9VW7m66w11e5Im+3C1cvqP/ueFwu1vJXMD/d1K9w3hC+3aDe21nKn8+N8tUPUeDVPKjZlMalbKJG7d/h5sOs3KRs/93GktAwAAAABAAox94F4q2xeFEF/p5rbZjCE+dyqzI6WITe92wnZ9JT5o76Rx6L6nduJzW/fP/4fT9HoPnyFlZTaTWhin0P17HzZFo9nT5yOtZQAAAAAASICxDtxLZXtaCLHabSuZLyxlKylLxmYQ4ExatiZMmQ77cduev/5utTXvcnVEX8YqaO8Ug9BdcSaK9t2f/E8KG1/6SQ1WkxyGFHdmM+nT4xK6O+RIIDMAACAASURBVK5fe+92c8L1evqcfGNluXAhulUBAAAAAICojXvgflkI8VI3t33qWHp9ZsrUqg/1YfKWrE+nZOi9wFuev3Gj2polbO/d2AbtnWISuguC90iMW+j+qOo076333Frmp1aWC1ciWhIAAAAAAIjY2AbupbKtBtS92c1t8zlDPHuy18xkdAjb9WI27OqpP/nNdKKGoQ4iRqG7IHgP3biF7h/ca4qdes+tZc6sLBe2olsVAAAAAACIyjgH7qqVzNJRtzMNKZ5fylRNQ3bVdmbUsqYUc+nwk6wdx7vzwXb7NGF796Tn1I7/5dfaC29/tWg27LgsezjU26jp1YUQsTkJ4eSna7d++ucm7DNnNVhNvI1T6O77ovnd1Uamx9Yyv7qyXHglulUBAAAAAICojGXgXirbrwohvtzNbZ86nr47M2mein5Vg0sZQhzLGHUZcoi53fZu3txuPTeizYqlwu1vrS/9/q/Mp6uVcd8VB/N2K91jFbqLYLjq7Qv/+XR9kUNiEOMUum/X3NrqR62JHu/2EyvLhasRLQkAAAAAAERk7AL3Utk+I4S41s2g1ELO2HnmZCY/nJUNxpRCLGSNphQi1N43Wy13Y9Vux6L1hw5U+5inS5dS0zf+rNdwbTx9HLrHctMf/o2/1fzo376YcbMFDVYTT+MUuq/db4nHO24vd7m+slw4F92KAAAAAABAFIwx3KuXugnbVSuZpxfTreEsaTCG3K1s3yBsH6256//n+g//+sUiYXsP1CdQStZjs94Ox/7y9zJf/B/+brP47je0WVPceL44vdFs3RmH875PL6Sb6vdKD86WyjZtZQAAAAAAiJmxqnDvZVDqU8fS6zNT5nz0qxrc8YyxlTLEdJiPSdjePVXV/uzv/rfFwu1vxWXJ+nH8hnD8bFyXXzv1vH3rp3++0Jpe0GA18WNIuT6bSc0nvdJ947Gzffdhe7KHuzBAFQAAAACAmBm3CvdL3dwonzNEXML22bTcCDtsVz3bCdu7s1fVTtg+IEtmhSk34rr8ibs3Cj/4P/7HzeNvf02D1cSP5/vzW6124gcezE5Zk+r3Sw+K3f7eAgAAAAAAehibCvdS2b4ohPhKN7f9wlK2krKk9qWqBUs2iikZalUwA1K7I91248wb/71H+5gQ+bv93DeEL2J9skdVu7//936pQG/33qUN42YxYyX688dx/dp3Vxu9fm58aWW5cC2iJQEAAAAAgBCNReBeKtuqAny1m97ti3Op6rFp68jbjVrGkGI+E27/hZbnb9yotmbdMRuk26vcgw/WP//P/4t5s2HHa+FxoN56TU/1dM/FeTM8K91c/Tv/dab6hR/TYDXxkjGNylTaSnRvngebTrOy0e5l5sZbK8uF8xEuCQAAAAAAhGRcWsq80k3YnrakiEPYnjKEmMvIRpiPSdjenYW/+Gr1C//0HxC2R0WdQ0rLWIftiuG0Ms/+76+Kp/7gf2pqsJxYabreQs1x7yV5G4/PWBn1+6YHL5TK9oVRrxsAAAAAABwt8RXupbJ9RghxrZvA/fOnM5Vs2tC6stKQu0NSN0wZXtuNtuevv1ttzRO2H0y1kPnc//FzWXq1D4njV4Xja3/yqxvN+afq7/9Hv5RjoGpvCinrUc4y5uK05l7Um97W+x82e5m/sbayXDgz+pUDAAAAAIDDjEOF+6vdhO3FvFnTPWxXplMy1LDdF6JO2H64dPXBxvKv/fuE7cNkyaKQYj0Jm5JZ/zCnBqoWVq9rsJr4sNvOnOP5ib2UJJcxpmcmzV7uslQq269EtyIAAAAAABCGRFe4B9Xtt466nWlI8fxSZtM05MxwVtafsIekqrD9vWorV3e9IW9JfEzf+LONZ772i7Ee4hlbCenn3mntws+KjS/9pD4L0t/OTCaVt4xw51XowvdF87urjYzrdf17uCqEOLOyXNhK5A4BAAAAACABkl7hfrmbGx2fsSq6h+2qb3vIYbtN2H64U3/ymw3C9hFSGWtKJuqM4NKVfyzO/O4vtzRYSlzkq632naSeF5ZSZBZmrV76/BeDmSQAAAAAAEBTia1wL5Xt80KIN4+6nRpc9/xSaDl2JFRx52LWaEohMmE9/p2ddv1R001M5XCYpOfUzlz5ZVXdPpGcrYqxlr8uPH8+SZtUO/W8/f7f+6WCmy1osBr9WYaszGRSiW2Cf2OtIVpOT1Xu51aWC6vRrgoAAAAAAPQjyRXur3Zzo6UT6Ur0SxnMXNqwwwzbP6o5m4Tt+5OuU3/+8ssThO0aSUkVtjeStEkTd28Unv+Nf1g3G4ltUR4qx/MXtlvO3QRt0qecXkz38kYodvv7DQAAAAAADF8iA/eguv2Fo25XyBk7ug9KVX3b04YIrQx2q+VuVBqO1u1zRiX9+OH686+/nMtVbo7nDtDVx61lEtf7SA1T/cKv/8xG7j7vt240XO9U3fEe6b/S3k1kjEI+19Ov45eCGSUAAAAAAEAzSa1w76r67+nFtBP9UvoXdt/2hutXVu02Pcn3ka4+2PjCP/2ZecJ2TZlyQhgicYMi01uV2R/4zVdahO7dsdtOxvH8RF4W8PRCutbjXahyBwAAAABAQ4kL3Lutbj82bW2ahiwOZ1W9U33b59PGdliP1/b8yvcetxLbA3kQu2H7b/2DWdp7aC5lTKv250nbLKPdTBO6d62w1Ww3kzh6xDLlxHzR6uUuVLkDAAAAAKChJFa4H1n1ZxpSLMymtJ6UOp2SG4YUk2E8li9E7YPt9oKb0AG5gyBsjxHVWsaS7SRuGqF793wh5qqt9p24rLcXi3Oppvr91AOq3AEAAAAA0EyiAvduq9uPz1gVKYW2Q0OzphQ5U4bW+mXNbou6m7gW2AMjbI8hSxaFFNUkbhqhe/fann/abrvaD7zulZQiMz9tNXu4G1XuAAAAAABoJmkV7kdW+6UtKeanLW1bq6jixtm07CVwOdTDhlPZarkT0aw2vgjbY8ySqaRuGqF79+qOu9DyvJ24rLdbx6at3d9TPaDKHQAAAAAAjSQmcO+2uv3EfErrqsjZtKxKITJhPNaO492/W3Po2/4EwvaYUwNUpUhcdfOevdA9vZXYTQzN46ZTS1qnLFXlvjiX6uXDiSp3AAAAAAA0kqQK966q26fyprYBdM6UtUxIg1xdX2x+sN1eDOOxkoSwPSFSMtEnklTo/vmv/OwG79PD+UIcS2I/92LBLFDlDgAAAABAPCUicO+2uv3UsbS2fRpUK5mZtAzt9Xj/cWuGIamfln78cJ2wPSHUAWOIrSRvYnqrMvv8b/zDOu/Xw6l+7jXHvafzGvtBlTsAAAAAAPGUlAr3I6v78jlDFCaM54aznN7NpuW6FCIbxmN9VHM2GZL6adJ16l/4pz8zr2V4OZEXYnLqk59MKB2Fks8yppO+jZn1D3NPv/HahgZL0dpO251yvGSdYOyjyv1idKsBAAAAAADdkn7Mq6CDqr5bR93u86czlWza0LINRdaUYi7dU7ByINW3/XuPW7SS6aDC9udffzmXq2hwgYMK02eP3RNz877IZGeElAcPtG2374ma7Yr1h3Ni8xGDb/fT8teF58/rt7BwPfwbf6v54d/8zzgTcwhDyspcNpWoVkNV27VvV1qFbm8uhDizslxI9JUfAAAAAADozkrAK9RVdbuuYbvqjDGblk0RwqBU+rbv77mv/rw38rBdVa4//UxF5CbU+/BkV/dJpU6K4ozY/XHdR+Kju4a4f3cm8rXGiSXmRSv5m3nsL38vUzv5A2LjSz+pwWr05Pn+gt121wopcykp27Rb5f5IipbT1YlxNf/jFfq5AwAAAAAwWrFuKRNUt7901O1Ozqcqw1lR76ZT0pYhhO3KLZu+7U96unSpPrl6LT+yBZiWED/0I+vi+R8WQdje5+OYc+Kpp2fEj/y19d0WNPiYOmMlhbbHd5iWrvxjkbuv7RgKLdQdd8nx/EQ1ve+xlzttZQAAAAAAGLG493B/5agb6FzdnjGkyJmy23YBh3rYcCp2m77tnaZv/NnG3PU/zI1sASoYP/fXGmIiH17Lk3R6Xvzgcp3QvUNKJqqNyGE+9/p/aTNE9XDVlvNY5/X1qsde7kulsk3oDgAAAADACMU2cC+V7eluqvkWZ1N3hrOi3s2mZSjJWdvz1+/WnLEJHbuRfbhaeeZrvzg7sgWoQFwF49IIZRDup0iZI3Tv8HGV+7Y264mQVasWPve//lck7ofwfP+kai2j7QL70GOV+5EnogEAAAAAQHTiXOF+IehZeyBVFTiRNU6Pdpn7m0rJpiHFwNXtvhA7H2y3Ez80shdqSOoP/G8/O7oTEKqNzPM/VN0NxqOiHls9h5mEMQwhsOTY7IiJuzcKJ/7vy00NlqKtoLVMYranxyr3s6WyfT7aFQEAAAAAgIPEOXA/cjDcyWN6VrebUoiCJUNJg+7XnFbdpZVMp+dffzk30rYbZ57dEKZ16MmgUKjnOHGyOpRt0p2xe3KjPi6bu/inv50prF7XYCX6qracRPX2p5c7AAAAAADxEMvAvVS2VXX70mG3UdWAkxOmltXtM2lZlUIM3Gqk4fp3Kw1nJpxVJcPJq1/ZzFVGOFgykxFiZm54rWwWTxWpclcV/7tnsnY0WMnQPPfPfq5JP/eDeb6/UHPce7qur1dTedMyja6r3F8KhooDAAAAAIAhi2uF+5E9ak/Mp7SsblSDUjOGHLj6+eNWMq1T4awqGQp3vn1/4e3fGe0JiNNnhv++o8r9Y6Ycq9ZKhtPKPPM7v8hrf4idtlt0/WS0lpFSZOenrV5aCVHlDgAAAADACMQucA+q9l447DaqCnBywpwc3qq6N5OWG2E8zsOG47QS1KN4UKpv+7P/4tXFkS5CVZpPzw6/d/zc8bGq7D6QsVvpvq7p6iIx+cE3i7Pv/FECtyw0+e2Wo+3g7F4dm7ZED1XuDE8FAAAAAGAE4ljhfmSIcGzGqkopJoaznO7lLVk3pRi43Ujb89fv1Zzoe4THyHNf/Xlv5O01ZkZUXJ9KndxtZQNV5T7wIOK4Of37v9ZMbyWqXXmo2p5/uuV5iTgpJaXITOW7/rVdLJVtqtwBAAAAABiyOAbuRwYIc1OWM5yldE8VJRZTMpT9/cF2e6xaZxxltvzHdydXr+VHvpDp2dGlnrnRb74WTDnwbIS42W0t89VfpJn7IR63nJa2i+sRw1MBAAAAANBbrAL3oFrv0Mru2Smrbhhibnir6k7B2h2UOnAZ8qOmu153vSGtWn9mc2fzqT/+X/ToZZ8fYXH1VHFtdE+uEbn7qZaYFiLdmrh7o3D87a/FY7Ej4PtiJikDVC1TFvK5rn91v8DwVAAAAAAAhituFe5HtpM5PmM9Hs5SumfK3cA9PejjuL7YvFdzqG7v8MzX/rv0yFvJ7Emlh9+/fY+pGshj15gNT91z4o9/i9Yyh1ADVBMyP1WcmEtt9XBzerkDAAAAADBEsQncS2X7nBDi7GG3UVV/KUuOLvQ8QDElbSlEbtDHubPTzrhJSYxCoE0rGR0UJrVrozQyhhz4WIvlZjutzOl/+Ws1DZaiq/zjdjIGqOYyxnTa6np4Km1lAAAAAAAYojhVuB8ZGhyfTt0czlK6p6rbcyEMcmy4fmWr5Wo3CHZUpOvUtWklA72MaVsZZer9v5oovvsNDVaip5brnU7KSctjM9Z2lzdVw1MvRLwcAAAAAAAQSEzgbhpSFCaM54a3nO7MpOV6GI+zZre1q9wfpTNv/LKvTSsZHfg+LWU6GYOf5Iqrp994zebYOFi16dzVdW29mJm00ur3XpeocgcAAAAAYEhiEbh3Myz12IxVHd6KupMxpPoZuJ/0RtO9y6DUT2Qf3bk7fePPqPbvtEPA+immnNFoNUNl1aqF43/+L5pjtMk9cX3/VMvzdmK05H1JKTJT+a5/hb9YKtvTw10hAAAAAADjKS4V7kdeDj87ZWqXSBdTspfBdvvyhajfrTm0Tulw5o1f1nN/NBtrI3tux6HCvdPHhb+buixn2Bb/9LczDFA9mN1yQ7nyaNSOz6R6OdFMlTsAAAAAAEOgfeBeKttnVHXeYbeZypuqpYxWFa2quj1liIErCh82nBaDUj9R/N7blVxFu1b9H6vXsiN77q0NWg49yZRjPUCUAaoHc31/KQlV7umULGYzXf8aJ3AHAAAAAGAI4lDhfmR1+9yUpV0CG0Z1u+v71Xs159BWOuNEeu7O0u//ir7B8tbm1Miee/vxyJ5aW4YY6ytD1ADVwup1DVaip8dNp5GE7ZibMrsdnno2OIENAAAAAAAiFIfA/ZXD/k8dh6WGVd1+r+akw1lRMhz7/97Qexjk5kZuJM9b3bwzkufVXfcDJRPr1B/+k4FP/CWVL8Rc3fEexX3z1PDUHm5+6O9TAAAAAAAwOK0D91LZPieEWDrsNrNTpnZ9msOobm97fuVR0x1NgKsh6Tr1xT//bb3bpriOEDvbww+/7987PfTnjAO5+zPWjcwnPnp/uvjuNzRYiZ522k7st0ENT52ZNLu9+ZFXjAEAAAAAgMHoXuF+ZM/ZuaLVGs5SuhNWdfvtnXZhSEuOheN/9bWW1tXtez68Pdzwu7azTjuZQ0iq3J/+vUv0cj9Agqrcux0CuxScyAYAAAAAABHRPXA/tBpPDYtLWVKrqufJlOg2+DhQw/Ur220vH90q48Vo1R+dfPO34tHLXoXf9drwqqpXb84P7bniyBSj66uvCWtna2L2nT8a991woCRUuedzxnza6vrkEsNTAQAAAACIkLaBe6lsXziqncx80bo7vBUdzZS7Fe4DB6Af1tp6t04ZsmPf/JdWrBZ86/3hvH4frjVEbWcoTxVbUtKWSfVy/6PfiMHlIaOhqtybrhf7qwCmCma3Q2BpKwMAAAAAQIR0rnA/MhQo5s3scJbSnWJKDhxqqep2u+0NacX6k55TW3j7q/Gobt+jQvDVm/VIn2Pz0Ya4f0+r97+W4jAWegisWrVAlfvBdtruQ13X1q35otXtSQPaygAAAAAAEKHYBu5TeVMYhpgb3nIOp6rbc6YcuO861e2fNv/NP3gYi97tT1p/kBMf3W1G8tgqbL/53mwkj51EUqyN+y5QFt/651UNlqEl1/eXWp4X68tFUpacpa0MAAAAAACjp2XgHrSTObSqeXbKvDO8FR0tb8mBwyyq2z/rxP/zzw5tK6S1u7czu5Xuvh9Ouwr1OKqNDGF7bwwZr5ZEEclsflQsrF5P5LaFYaftfhj3bZiftro9yUdbGQAAAAAAIqJrhfuRYUAhZ2ozLNKQQhQsOXB7j7u19sAV8kkyeetf34xldXsnVen+7XcmRG1na6DHUfdXj0Mbmd5Jfa6EGbVTf/hPBnsfJpjj+c+7vh/rDZwumK0ub0pbGQAAAAAAIhLLwF21k5FSaDMMMWfKupqXOshjuL5f3W57+fBWFX+n3vyt5xKxIc2mEN/51rT4zrc+bgfjuptd3c/3Gru3V/dT929G06Em8QzBSYrAxEfvT6e3KlqsRUd2y70Z5/WbppzMZrr+tX4+2tUAAAAAADCetGu10EM7mdPDW9XhpizpDvoY92pOOuJlxkpm895arnIzvu1k9qOGqe61g8lkhMjlhSgUqsIwP6k69v2sqO8siFpN3V4FxYTFg5Kqr3W8K5fDdPL/+k179e/8HFfT7KPlec+pInfZdSt0/cxNmdt3H3qTXSxM9XG/FN8tBQAAAABATzr2No5VO5mMIVVLmYHCK9cXm4+a7kx4q4q/4//v7yY7EFTV6upna6N41AkmDCjG4WkUpt/9hqVaNblZMvf97DjuWiFlxvZkXzFvirsP293c9GypbJ9ZWS6sRr8qAAAAABgPUsppIcR+LTw7/7sqvLy2z222fN/f778jZmIXuOvWTmYyJdbVrLpBHuNB3QlvQQkgPac2/84f0Hcb4ZFiTfgiWVdM9Ek67ezcO38kHvzo347l+qPWcNxCIWXGdv17bWUaza4GcKu2MpejXxUAnUkpzwV/AHZ+NnTrWvAH4y7f96/yYgPhMAzjjBCi80c88b+ftHc87oU4q57ncWI9RqSUe5+/nZ/LT34mn+uiYGtNvf4d/94Z7K0GP4R6QJ+CY3UvPN/7XFb/fjaMfSo/ueS62nHsXu38fPd9n893zWkVuAdD3GLTTsaUuxXuA4XtvhD1darbP6Wwdv0jIUQy+rdDD1IYdJX5xLG/+PrGgx/927O6rEcnvhBzTdd7mDGNY3HdhmLebDaaXjdzRS4QuAPJFwTqZzoCnHNh/lHYqeMPxLWOUGd1LwgkkAc+yzCM8x3H5fngeO2nUOSFJ/+DYRh7YY069q54nkfAOmJSyr1w7nxHUNdNiN6LpX3eQy8+ef/gM3vvPbJ3wka9V675vr/V65MCSRMcr+eCn0E+n/tV7Phs/9RnfHD8vtXxPesa37P0In1fnxSqVLZVP9mXD7vNDz+Te2QYQovq56mUbE5acqBhqRtN9+7tnfap8FYVf1/4rf9U5Cqxnl0I3bT9NeH6VLh3ePdnfl3UFzmvtR/LkDdmMqnn9VtZd9qOv/HuWqOrEyorywWaLgEJ0XH58vmOiqvQQ/UQrHWEOwQ7GCuGYXQeo+dGcIyq4++KmuNC9Xv0gs/l8098NselnWjnyRo+qzEWgsr1zmM2ju1/r3cct1c5bkdHt8B99bCzReoy+c8/NVC+HaoTWWPbkKKb4XQH+s5WU7Q8Sm/3GK36o7O/8lO0k0G4HL8qHJ9e+R02v/gCw1MPMZtNCTPG01NvrDVEy+nqd8tPrSwXrkS/IgBhC6quOv8w1DFc79b1zmCHy6SRFEH1+t7PZyrQR0xVRr7qeR4VkSHpCNj3fuL8ubwfgjwkSnAV4Pngyl/dPqPDsnfcXqECfri0aSmjhrcddWnG/JQ1cL/0sGTN3WGpA4XtDdevtDx/QYft0cXsv/kT9RoTuCNcBoNpn1R89+2UXivSS91xbxRSVmyr3NW8k/VqV/NBzgeVbgA01xHkXAj+maQrt84GPy+Jj7f1ekegw2cUYiPou955nOr8HVSFS28ahqGC94tUvPcnCOwuBD9JC9iftPdZvduVoOOz+jL94BEXUsoLCf0udZDvH7dSymrwt99eAM9Jswjp1MP90GGpymTeaA1nKUebMMWGyocHeYz7dWegwD6JFt7+amwDLiBODKeVKb77DVH9wo/xuu2j4XizhRifkpgqmPfXq85iFzftZTgigCELqtgvJLzyaj9P/nF4NfgDkT8OoZ0gZFfH6MWYBq7qs+WaYRiq2v2SBuvRXhCyXwxe93FuW7lfkHeFE6XQTUfIfiGmbWLCUgyKG9TPV6SUbwTHLHO9IqBNS5lS2b562B8SaUuK55eyw13UAQy5205moMdwfbFZ3mwwLLWDVX98Z/nST2sxEBcJoz7mmh6v6hO2fujHN279e/8Nw1MPMJW2ahnTmNBycV34zq2GcLtrWfbMynKBqjZAEx0he1zDu6i9EVRTEuhgZBIQsh/kdc/zLuq5tNEiZO/JXvh+icp3jEpwzL5CyN4VjtkIDJYah6RUtqePqtopTJiPdFirkjUG7+u70XS0qdbXxdy1f1Ud932AiDAWcl/F9/4itmHyMNQc936c15/Pdf0rnip3YMRUuxgp5UUppSpAuSWEeI2w/UAvCiG+LqXcklJeDv6gBobCMIyLhmFcSfBx+pJhGKrafVqDtYxcx2ezCqDeCVqpELYfba+K9h0p5aqU8pWgLRoQqeCYVe+31eCYfYmwvSscsxHQInDv5o/9mUmzNpylHG0yJQcOhh82XHq3P2Hmu3/6Ra0WBCScdNpZ1VYG+3M8/1mN5or3bHrS3OjyPke2dAMQDRUWq9BYCKH+MPzKmLWNGVTnH4fXVCgW782BrlQ1u2EYlwzD2AqO0xcT/mKdHff5Lvt8NnMCtH9LwcmpzeAkKYUeCF3HMbsZvN84Mda/vWN2NThmz8R1Q0ZNl8D9yD/2cxlDi0GaphTCkoOdIdtxvDut7i7zHxtGq/4oV7k57rsB0Wqyfz9rpvymrduadNJw3TtxXXsha3TbhZ4/fIAhe6JikuqrwZ0NepGqqvdXqcpCGAzDON9Rzf7ymB2nLxiGMXY9fVWf5+BKIz6bo6H26ZucJEVYOq4O3DtmEZ69woZbUsornCzrXSwq3LMZQ0gptGh9kDNlY9DH2Gi68+GsJjmmbv3rB+O+DxAxKWLdHiQqkx+8w9m/Q9Qcz9R2cUcwTTmp5p90oVgq21S5AxELLnNWYfAWFZORUX8cfrmjkpKqLPQsaBujToi9OQbV7IdR7WXG4vtBENqpavavc6XRUOydJF0leEc/Oo5Zrg4cjheDk2VXCd67N/LAvVS2zx11ucdMwawMb0WHK1hyoNY2vhD1R003N4Slxsr8N3//6XHfB8AoWLXHk7n7XF1yEM/3T7ox7iszle/6fAF/7AARUaFvR2uCL1MxOTR7VVkE7+hKELTTQuTTLie5n/sToR0tKIZvqSN4f2XcNh6945gduRcI3runQ4X7kS/SVN4cuKo8DKqdjCnF7CAPtd321nXYFt1Mrl7Lj/s+AEZl8uY3tfiM1VXD8WJ7RmKqYHZ7ZceLpbJNIAWEqCNov0VrgpEieMehngjaCXA+TX1uvarTgsJAaKed3Z7RVLzjIByz2iF470IsAvd0SmpxQIXRTuZBwzkdzmqSI/fggxvjvg+AUSreeHuLF+BgDddN67q2o0xkeqpK4w8cIARB65jOoB162Ave6fGOXUGP9msEOEd6WQ2O1XyNXQl6tBPa6auz4p12h1DH7Plg5g3HrJ72gneKGvahfeCez+nSZl6ICVMONFzQ9cWm3fbCW1BCFL/3F9a47wMMwYDDjpOssPbtxXHfB4fxfHE6rm1lpBRZNQelS6+UyjYhFNCnvR7tQesYgnZ9qbY+tC8YY4ZhnDMM42rQo53WMd2J9Ul5KeW5YLDi1wntYkG9Rl8PqmfPjfvOEHSnYgAAIABJREFUGEfBVYJ8TseH+t57LfgejMBI0+zg8vVDQ7Bi3lwb3ooOZkghUoYYaNjpVst1I15mLE3f+PPnxn0fYAikrLKbD1ZYva7r0rTQcLxvx3XthZzR7dVZ6vfxpYiXAyRScAn8NXq0x0YxaF9wjUuhx4fqRW4Yhvo99w5D9noWy8A9OBHKax5f6jV7R72GXJk0HjqKF25xzMbO7uD64AqVsf9uJTSocD/ybOXkRNcD3yKVVYn7gNYb7kCBfRJJz93JVRjYCIzaxN336ON+iIbrDTS/Y5Sm8mYvLYNeKpVtLuEFutRRNcmlzvF0tuNSaMKcBFN92oOrT14e933RpyV1ZUCcFhycCOU1T4aXgyuT+I6aYMHru1e8gPhaCr5bXRn371ajDtxj0799whIDDTtV7WTqLu1knpRdX/tQrxUB46n43l8O1DIr6TzfPxnXtjI99nFXLpfKNpfvAoegajJxXiLMSSbVezxoH/MVrj4ZWCyOj45WFLzmyVIM2syMfYiXNMF3qiu0fEqcF8f9u9WoA/dDd7xO/dvThiwMcn/ayeyvcLuc1XFdwLjJVW6meNEP13S9ezqv7yA99nEXwR80V0tlm0sBgX0El8leo2oycQhzEsYwjFeCY5WTYuHQ/ntBMJuB1zzZxj7ES5LgdVwNXlckz1h/txpZol0q2xePOnuVzxpahBsZQwopxEDBMO1k9lf83tvsF0ADZt0umg2K3A/TcLwNfVd3uEK251/36svRm6WyzeAbINBR1f4mFViJRpgTcx1V7a9R4Rwqba9+66hq5zUfD5wgjbknqto5ZpNvLL9bjSRwDy5VP3Iw21Te1KKncMYUAw1bpJ3MwSZXr+V1XRswbnL3madwGNf3vxjTrjLqirFKn3f9cqlsr6qT5KWyzR80GFtUtY+dvTCHQdIxE/Rqp8I5GlqGYh19n3nNx89eiMdVmTESvF5UtY+f73+3GpcTZdYgdw4uN78QnO0+01Ht81bwz6vBgbTacbcLwZTzI39hZ1KGFr/UJ0w5UDuYx213UwgxE96KksFs2KvB+waABiZvvtO0z5zN8FocrOV5DzOmcUzX9R0knzMGuUprKeiDeqlUtq8Gv9uvrSwXrka7akAPQehK0D6eXg6CgQu+76+O+87QmWHsziu5FPTjR0QMwzjveZ42v//5fMbeVZlSyl/wfZ8rMzUnpXyVoahjT31mn1eDrX3fv5bkndFX4B4E7ZcPuZz2hSf+2bO0JYVhiLl+7x8WQwphSjE7yMNttbxnR70dOsqurw105QCAcOUerG4JIRbYrQdrON7jOAbupiGLpiGF6w1Uol8MKlF2q1FK5d0WRNUggL9EAI+kUS0KhBDqcuezvLhjTb3+14I/DK+M+87QkWEY54K/TTlWxwSfz9jHlztOkG6xg/QSVDRf5ZhFQL0Prqq5G77vX07qTum5pUypbA+ld2UuY9SifPxupVXiPgBfiHq1xbzU/Uzcf5/2BBgeX9C+6AiZ9TuO1gvUQNvzpuK69ogGke+F8Krf+xXaziApOloU8IchBC1m9BW0kCHEGSN8PuMQLwQnSLWdNzCOOlrIcMyik/pu9ZUkf7fq6a/vYHjaUC7ZyueMh8N4nqNkDbE9yP3ttqfF4FcdFd//y4EG0QI9iWvz7SHKrt85NTYb2ydfiGPOYFXiIzORNaK+qkgF71cJ3RF3weXODPHCfl5mSJ8+DMO4FLQ841gdE6oaks9nHGEpqJy9yI4aveB1eJNjFodQ362uJvG7VdeBe9BGZmi9liYnzGE91aGypmwPcv+tlnsy+lXGU2bjQ1pXYJh22NtHMxu27kscuabrxXK67OSEMdDvsy6pyhX6ZyKW1Bd9FabSWxRHeDEIc5hDNCKqX7thGFfp3T1epJSq7cBr474f0JW9ylm+k45QcMx+ZWx3AHrxQvDdKlFXp/RS4T7UMv+UJUfeIzek/u258FaULOlqZdx3AaCd3P1YZslD1fK8WLbeyaSMwpCe6uVS2SaIQqwEX/Cv7s0oAI5wlrYFo2EYxpngWO17VhgGMvThwcHJ0GsMxEUfvhyEvhii4Ji9yjGLHp1NWujeVeAeVLcPrd+SGpgqpZgY1vMdJCUH69/e9vyKSxuLfZkNe+hf1gAczWxwIcBRHM9/Su8V7k9KkVW/X4eEiiLERkfYTm9R9KIY/GF4nr02HMFwVHp3j5DneUP9Gy64koTPZwziJXXChlZgw9ExHJWTouhHMUktobqtcB/qxqZSQwsEDpUxRXOQ+2+1vEb0q4wnq/5YjxcZwKfk73w36j7fSZCPax/3bCaSwan7uTCsJwIGEXyhv0pvUfRJvW/epFdw9AzDOM+xOnJvDXMBwclQTrAgDHuVs4TuEQqOWYajYlB7LaFi/92q27+8h/qHczFvrg3z+Q6SNeRAA1OrbXcp0gXGWGbzo/vjvg8wZL7geOyC0W5uab9IDcS1j/sQBqfuKQZXxwHaCr7IM3ARYUjEH4a6MgyDoXt6uDqsVXRcecRrjrAkrl2FTjhmEYHYf7c6MnAvle1zwz5oJrKGO8znO4hliMlB7m+3vUjXF2eZjQ8Xx30fADrK3/42X5K6ENc+7kManLqHwB3aklK+wiAvhIzQPQJB2M6xqocrw1gFwR0iROgeAY5ZREh9txrqPNEwdVPhPvQPo5Qls8N+zs+swRBCCpHp9/4N178b7oqSJV2t0G4H0JDZrNFSpgtx7eOesmRqiE/H4FRoKRig9hqvDiJA6B4iwnatrHmedy3qBRHcYQiKhO7h4ZjFELwc1+HH3QTuQ/+D2TLlyWE/55MGHZi63XatKNaVFLmHa/RPw/Awuxjhi2Ufd9OQw/wyTOAO7QRf2F/ilUGECN1DQNiuncjDDoI7DBGhewg4ZjFEL8UxdO8mcB9qMDrEgW6HyphifZD7V9veQvSrjC/pttk/GB6fxL1bqcfrtHvqUlz7uOdzevyeBYaNsB1DROg+AMJ27airHyO9pJ/gDiOwF7pTINIHjlmMwEtBS8jY0K6ljGWInWE+30EGrXCnf/vh0tWKzssDxpbhtPpupTVu2p5nx3GTc+mhBe5cyQRtELZjBAjd+0DYrqVLnudFNlSf4A4jpN5zV6SUfGftAccsRui1OH230q7MbSpvDlRZHpZBBqY2XX9Nh23QGYE7hooCd0TA8fyRtz/rRzolh/U76uyQngc4VFANQ9iOUbhEy4LuGYZxnrBdO6p3+6tRLYrgDhrYG6RK6N4FjlloIDYFDdoF7pmU4Yx6DaYcbGDqY6rbAb34gjM8CJ0vxLE4divK54yRDyYHhiX4Qs6AVIwKfYK7ZBiG2kdXYrHY8RJZqBEEnJcJ7qCBs0GIjEMEx+wVjlloQIXu53V/IbQL3NMpOfJho9aA7WSqbXcptMUAGJwvGuxFRKHte7E7mZOyJIE7xkIQtlMti1FTwcRlqicPZhjGGSomtfQLnudFEkIGx8NVroaDRs7GcSjjsHQcs2Rd0MUV3QsatAvcU5Y8Nuo1ZEzRHOT+dYf+FVpzpRDtfX7cwU60QGOen+flQRRabnQ9TaNiGpJAA4kXfAGPdMgf0IOzVG/vzzAMKib19HqUrWSCz2fCduhGDWWM8n0fZ5c5ZqGZou7toEZeTf4kKcXEqNeQkkIFKAv93Nf1xabr+zPhrwpdUcG5txuerwlX5oUndoQnp4Xfx5d4KarC8G1h+tbuqSnLXxCmL3Z/EDdqGPP80Nas3iKeod6LN4UvHeEGFcX+7j8P/2yRYlXdcPd/G35NSH9CmP6x3X8avPd00/bi+Zrkc4bYqdP+DMkkpaRaFjp6QVVP+r7PINVPI8TRz3UhxCtRrSoINJmrAV19WUq56vs+1e4BKaU6QfaiFosBPm0vdD/v+752hXBaBe4qANCBZci++8jXHG9DCEHgPgy7VepGVTiyLlyZeyJU37vUqf+QVT2eK4v7Vr4b/rqwfFek/AWR8gVBqOZ8sRjpAndP8hj3hGs0hCfVwOW9K3We6/mxfHFmd4qEEJ9cddH5iSTFHSH9tjA8U5j+kjC8798cw+d6fixbBJgGbxokE/1FoTlVPXmVIOdjhmEQ4ujnLSHEBc+L5go+KeUFFWjGfB8h+dTA62u+718b99c6aM/3sgZLAQ5yNrhqSruCBu0q3HVgSXGq32XsOF4uUTtDJyp8bBpV0ZYN4cq9KuHiSP6o9uS8aEkhWsG/q2r4lOeKtD8r0lSNaqjvIcgHUiF72/xAeEZR+P8/e+8CJldVp3v/19516equTqXTDR0SciFBEKRJEC+ogwQdxyHiRxyZRx1HCaMzelQkeBmOoyPBbxiPjErwdmbU0cQjj3qGb0xmGPjU+SSRo6KOQ0IQBjSQTkhIJ31JdXd1Xfde37Mqq6ET0t1V+7rW2u/vefIcnNO7au3bqr3f/7veP/US0ZJIdpvTsqYB3rWfE+IZP0wWr5DtnkU2zxFDASgqOFG/aJzqs/VH5HR2WMXxkgNBEpgI3LJAdb4JIacptkPEUQ8RIxNmk9S1co4GQHUK0/nQKrpmo0Les+iFA3TgOvlspVScpFIZ7oUuezDuMfg1/U023GhEt6RQs4gm7SEaTVeomCKqWIUZYrs6CDd8zVpEkzbRaLpME6mDzbGD+Amy/iGE7po9SOXMCFXSwtW+Sort8cLZkuZYaqkcldNE5fRhqqaeJMeawhUYPnXulnQbc8pmkwoMA4BAkTEFcMsCHdie5CaqlmWhx4JaFIno+pDF9oVSbEexH+jCiiQXiGasGARAF+5QrYkqFMFTSPu0KU7W4W72jRCqhWAthGshYNcsIbB3aLQHOaqzZVJ8r9CkPYmGrHESgNvbsUpUSR9sitkNe4USIvtcTAvw1VQnTWWIKuknqW6PTUfDg2CpOXxYt0OayzKscANGgZgCoBmJFXJkk1QIr+ogImTWuq4b9vWIJqlAR65JcBPVrTNiegHQBaWaqColuHd32rGPwfahR7mcRoIcS6IQ8Rwle4LG0mNNoVoI1kK41p8Oqln5pju/mBqiKmpckeOnBiaE9nJ6kKqpLnKb16SeuGwV1e2eZ93vtdRw854DgdAIKec0TNIpplMRE4A5kU1SEVMAdOMamY2bNCC8qsGgdLWvc113f5gjktc5mqQCXblFNdds2DDGNmHFINCUgkorM6D+nULKai6p80TFcT1vm1iEm10I0cdTIp+9m7jBDWdFFE7JJhpLT1DVKiswomTAqf2oqplCO2dmVfaF+71h9TUjcUQ0joiegfjuC4drtQKniW0xOAuBSaBJKtCVLbJglAgsy9oA4TV2poX2lRG42qcLoogPArqTmBgwWVy4Q4GhAOCVK2TRKHaUEtzTKXZG3GPIWFT3um2pweO36OuCEJzH0sWmm13FTPYw4dRNJTvX3H8I7+Hj8q6Wv6NhlamcHjJSaD8dIhpHRM/MFN8d1GHbxeX8fL1GfIJMCoUWoD9yqTfcskBXlHJihcmMKBkQPcIUto2IroxKaJ8BCqLABBIRA4bcdmAQSuS5K6WsMEadcY/BIuZ43bbUcGMvGKhOft9eGrjlTyaagjNP+MOX2P8Twvsk1SF8hcj893TDGmkKzqLpKE9YAWiaafG9mqJzv/qJol3Wrg9orDg8gF4BEZNOY94BesMYW4fcdmAAaxKSEQzhNVpENvudUmRfKBqiuq67M8oRoCAaCXvkud4lVy+A8LhG9osxmc3IbQcGEXuRjPF5RIJ7906KH+Yrwh6IbTG68Jz4V+UvyVlVRpT1su3jxRqVHTRNPR1CvFty79aJvgf/3271RqcIKX6c8s5CsvQT7pSmMss9KQ5zw95HDXuh8k1QY6Dau7j41Dv/qlBesipx++6FQjY1lLEsrYo1g0dqNF7yXGNuifUDeaj6IBSkC2s3XgwDQYg0++XxnO5JMZ8wJ1xDC+W/6f+GsOaPczjnoWZpx4VlWZsQURAou075sOn7VdzD+13X3R33AKWz8KG4x6ExRXk+p+fl5jnmnLdcNJFxPitnzNPT/zt0bcdgxHlZyTnXrn/TfEgTw/1qj1JpTnvPijm5ld92OWee+ly1Vv5Dsdo7t3LOYzM1KCO4d+UsWrXEk84dKEtz3k3/u0crsY9fRXKHn6RVW28bzYwdXZT0Y9ESObdKOSf+m8EExPRWPUVwF/+3uj1IDbtPTD1JP0RzwVPpyoE3v79j9CW/r+4gFSGXsgfzaVsr4e/Y8UbxyEg91Ac4CO4gLBhjIhP4RhzgttkjXwKbL4Wc80CFOfnCOP1vHUT4ttjFOV+n0XhbwrKslfJ6g2DQOtPCzU5ZDGsWxFyNmrQzxnbj/m+L6bl5p5ybw25kO3OeXofidVvs4Jwb5XSHicETu055ngrtnpXFs5n3K+bW9rgk6OfdVknF8aWqYvuQBVxOI0RwyZ7Kmbu+X1l6zzfE0gWI7a1StrJUZUXqdgpkw+3ui5kFRc6IavY+cqwz8TDRGqxR71jxvS3UefB31aff9F4UgebA4XxMt+vKYk33BQQQoB3ShQWxvTUG5QuhiPPYGbYrT77QPPtSI1/ixfnaAFFnXkSTr42cc9Nygrfgt2ZeBmeIrTtd19V6pYNsVgdBaH52yLl5e9SO6RlzdXO+kQK8mKM34tzNSzNahnNuUtY5omTmpzh9v0bxPDUTKebvn87XP+XZagN+Y+dlqyxYRI4yDvfeQurgkr70sjgOwjRZi1Ff1pvqXnX44GPFKiYpiYiQOed//Y9i92934+b3Q6dToQ43/qwlXWnwItXJopr9NDnWBUk/HH6YeMHa4lPv+FjByWFRwOmwGRtc1JHW6jegVHaHnzxc7QvzO+BwB0EDF1ZLDMqXsq1xOXpmQ4o6m/CCOCtGxRVYliXO8/cVGIqK7JEiwE4VImCCQjoxsaJhdmIT2VtFnsMNEN/nRPzOrjVhrkaUzJwUZ9yvyhZYZG8BiO9zE0u0jDJNU7NppnX4+ZTjhhuEqxEiQuaFd3xwFGJ7AEzZHTSemiQY3b1RTo1TOd0Nsd0/4n4+/ws3TWbGhnTflVBwOdeuMJZOMXTGBTqyCWL7rAgh502ccyHYblJNbCfpquScCxe3KJxcf5os6qRTkI5w7bEsa6Ep+xIgg7KR6Tmu6651XXeLSWK7BCsano8477fKPg3CGb1VZaFWuGk551s456JAegkRbVNgWKqxQj6PmADm6eezRz6jrJTPLEqvZhDjE+OUPRqul+MHJ7NJFhMjRRnBXQWytvdBNFzysbU5FB55kM7/wofLyGsPkAbL0/F0lRwYRdtiyhqiOot11YxpZIcP5y/4u/9WE0U1cDKcSKuGqdR0QxBWzwCtkA/Kt+CsnUTxFCFHmyXuUnQSzrpzIOicxHVyJYDuoDj2HKKwdL3ruitd192ke2TMbEin7DVqji4WhNB+vSyCbtaxKfJ0kZSIeuRvTVGBYanCLXEIeEGC+KfnIebqK0WxSfXC2OkQ45XjFs8QV+LZ6iRiMTQoEymzYnFm94IuO9aHy0KaDeVTzJNo8ruJGk3WtTbp+2ZGXrsanL+GqNBzjM590VRzPCtecJwW9CycdWzVSoUGn6hQtbKQjjxt0aH9y2jkCNGwQo7eLqdMWTenwEjUpmqVqWSpfZzOn+PZZmSIaPhIlKNpC9FM9am339xRvOgyZccYB4s60iJaRqsx791XDvXzESkDgoQxFskzqSYU5YvDFlPiR6RwIZb7XqfAcOJG6waqslHqUwoMJW6EeLPZdd2dSdhZxth+FFmaCKF9s4H9GKZj3TbJf1jJoPFcLc/lfpzHJmKF4CYdi2LzgWer5yEKKpH9JisjuJ+/vGMwk2ax/kD3ZNihTpst9bJt0gX3c7716dGFe38Wj6u9M090wSVTdP7Fx2jgZUS9Z55Bdqoz0O84eniQnnrcoSceLtAjv+qNVYTvcKvU6aCB5WyIlQBFBRac9C0WRZ4pOn/NMVp9oUOdXTb1Le4jy24vBL1aOUbFkSk6+OQUHR/ppF8/sIIO7iOamgxt6K0y+JZNNPqS3499HKpQyKZKGcvSKuQegjvQBZlPiSxoA4X2U5Evh1vglI32pTBILMvanvDzlyihnZ5zyt6hwFDixFih/VRmCO9YdabpXM0Y24IG9Cfmal1/a9tBPltthXGFBsWqo6i+DIL7DM7MWsfTFs3ugJ6D3aOVaAerCLE1R12+muh1bz5EF72E0YKeJZEfjcrUCO177Djt+rez6NcPBCvut0LGHaW8g9ieUxHT2VhKKIjRu9vFNbnmFYdp7SsrtGzV4sCLPqfSvAYfPU7/+dOF9Mv7e+MS4A9ce0N55OWvx6oLIsqn7cdzKft8BYbSMo8+VSHHDa9JBAR3EBRwTjbZJh1YRgrtpyLjKbYm+LxH+lIYFJZlJbkBnyiIicgY4wXXmcAp2+RWkwuhs4ECaRPt5mp53pK8CmlQPk9pE8MXFHi2anJ9VIVRCO4z6O+wDqUYeXK4J1FwF2L7+V/40KTIdY7kC4Wg+YdveZLWvLxAHZ29kXxnKziNKfqvPc9ELr6n+CR1N/IEOesEYiorpobJpb7IvvPZa/Ky+K/J8bHD9OMdRD//9yVRx9FAdD9BLmU9nk+ntBLcnzxcpVI5vNVZENxBEDDGNifcRSeaX21UsQlqFCT8/Ef2UhgUlmUlNfrpTulqT5TgSrhHd8n52chc/laRq9C2JFjE02quZoxtTXDEyJ3S1Z64uXomCZ+3i7IhbujXgDKC+4vOye2zLFod9vfMRX+HNZhi7f9INFx++JHj1ehd1jEixPYX3vHB0dCbo4q4mJetG6Fr3lmNxcneLo1GmXbdc5R+ePeKSGJnbF6mBY0cRHchONsHqRFBk1QRFfPaDUP06vUppQo/Mzk+MkT/+u1UlM73sRevq+1/20cykXyZoqQttmdhNq1V4yEI7kB1Eu6cLMqXwsibPKmGbCK6NYHN3bRyTibU3S6ckhuTFB8zkwTP0ZifT0FeC1sSKuRqM1dLh3MSVyGJuXpDUs0LpyPBz1aCW0Uz67C/RBnBfWB1/ObIpTnL03ZVhw8+VqwmppobidguhPYN1w3SuquDz2OPit/8eh/d/bXVdGBfuF8I0Z1o0h6lGgu3+COanF777oO06oLwRf2gEKsvfnH/GO3YtjQK13vSRXebscFFHWmtfgsguAPVSbADJ9Gu9tlIaOasNs5Jy7J2J+zFfZuMkEmsUzKhc/QeKdwl2tU+G9LtvjWBRRgt5uqENqCHq30OEjqPR+Jyh+A+A6+C+1TDffKJ8dqqkIalFKGL7dNC+5VvbL+5pKoc2j9EX/hEf6iO9ySL7mXrMJWt8FY/XHBJid65aZjOXKp3Ue03/7GPvrVlddjCe5LjZSxGe3o7MloJDUfHGjQ0Wg/t8yG4Az8k2Dl5J+d8kwLjUJIEijlaOCcty9pIRN9UYChRcX3SstpPJaFzNObnFpAZ4dsTVoBTfq5OoLu9KLPaEz1Xt4K8NrYnbD4P3eXuTWEGJ1FqcDsJR2Q6sz00sf3adxfpzrtL9NoNK4wR2wVLV/bTZ75NdONtB6mvP5zvcFiOSvZoOB+uMBXrYGhiu3C0/803D9FH/q5Le7Fd8KKXrG5ehx/41FCzsBUSy+/+Yq73Fz8ox7y3seBy/V4qLEYRZF8B4JlNCXvwFy+Gb4KYMzeyydk66TJNAisYYxs12E8dxhgE4j69JOliuyRJc3RROpgxP7eAcP9zztfKVSBJQYe5OvQIDYUQzwjrILa3BudcGK1XJujZSrBJFo5DA4I7aJnl//SF0VAapAoH8Ze2j9FVbykYJbSfysUvW0af3lZqFhbCoGYtokk7msBuFRBi+5QVfLyLyGgXxZG//BzRWcs8NVFWmkte2U93/j8lWv/WsbCGKUT3Rf/x72YcL8NhjJLX8RtogXwATpKwMf1iuF2BsSiPjNpJkuiutEgis9uTEFEgrre1rusmPuopYXN0EcKdNzjnQoC+Xsexe0TZuVrmdSclSmaXvGcTP1e3g4hXSVihrBD27xgEd0nW8r7q3eE8HfBwlOOcb316dOHenwXrbBcu27/87DB95PYuynX1GHGg5kMUFERh4XPfHaLlIfQIrll5qljmC2hhie1ChP7brVN08cv1yWn3grgO3/zuHvrc98K5DoXF43tbKL9vb9h7ohzzpLQBAFonSc5JvBh6IGEvhivkcm9VSYJrslkUc10Xud0nSMoc3SyyYH72jixUXC8LF6ajsss9KQWybZzzdchr944slN2q6/jbJFSXuxKCe0dWb91/suGGlx+tAL2/+GE5cLFduNpv//YYnb+mT9PD4o+Fvf10y98TveU9wcc5TNkdVDO4lla1yoGL7cLVLuJjhAita5NeLzSvw38gest7Q4kVWf31W6q5w0+Gvhsq0eDhNSANg46MZe6qIqAtCXNO4sXQJ/LFMAmiu5L3hGVZSXBNTovtuE+fIwkRQtMrj1Bk8YkU3dclRHRXbq6WmfrXKTCUsNkmnwmAT2S2eRJWp4jC8YawPlwJVc6Gz15ZhENVxEMEOj4hMifJ1T4Xf3BtP/3NNw4Fnqk9aVfIMbBXYY1NUckK9np89fpy09VuYnxMqzSvw28Gfh1ajVr23K9+YlL0f0gKnNM+nXbVTkQHEqAhGxPinMSLYUAkRHS/RoomqmF6cQxi+ylIB6/+/Y3mZlpsx3kPiBlRYKaL7msUXJGUBBMDnqkCZsbqFNMJbZUepG4wK5mxo3Tu128JLp5EiHmf+tpQU9wDzyGE3jv+qUwrXhBk/noHTdijZFK8hSggTNrB2offd8soXfehXKJc7bMhrsMtd081V58ESKo0nj/3a3+dmN4CLumViW4xlpxqCNAJvBiCtkmI6K7UvWFZ1kLDXZMQ20+P6XMXxPaQSJDorsw9IlcNmn7P4pkqJBIiuosoqFBc7hDcA6DmmBnae+4/fLzIGvWOQD5M5ETf9o3DtHQlxPYqGinJAAAgAElEQVTTkUrl6JNfydOrryoH9pkuW0QlezTIYcaGuMWKtjg2wViwRfHn9rtG6dLLg41K0h1RePjI33XRujeOBLknnQefyJ/9/b+vJuEQNlwefGNpABKEfOA13TmJF8OQSIDortp1Y3JxDGL7aZCrLEyOEILYHjIJEd2vU2hF0gbDVw3imSpkEiK6h/I8A8Fdwnykb9Rc8wT3JfduK2ZHjgQzMQux/eNfKtOCHqOz7gNBuK2DzHWvWYuMyHMvpoaJKJgoGXE93n7XGPX2Q2yfjXfc2EsbPzwc5Eee8bN7soVHHgx0mGrCzW9aDEC4mO5ux4th+GySopmJFBRryGfqtSyEwA0Q20+LyXP0IMT2aJCiu+m/96rMjyYfZzxTRYQU3W8yeBevCKNIBsFdksGReBaR295//93BiO0iJuUTX5pqOrhBa4jInfd9MjhnesmukqtxnvukPUQuBdNct1n8+XIZ/QNa4PKr+pqROwGy8q7bq5mxUPqzKoPL6YjROwhAiCTAOYkXwwiQYtk6KZ6ZiBLXkGVZJq9GEc52NMo8PUYXWSC2R0cCXLOx3yuMMdHUek3c4wiJPXimihbO+RbDVxEGXpyCzAxOQjQ3XLXtb4NZ3nVCbCfkY3tARJ0EJbpzytKkrefDo2iSWmPBxBBNi+0o/rRO8zoMTnQXTVTP+V+fMTrPnYv+CQAArxgdT4EXw+iQotkGQyMLQnFheSCUvFMFuN513d2G7psv5OoKU6MpNkjXNYgQKbqbKuCtUKB5qqnPHYOysA4iRj7L7jL0uAd+v0BwByex9J5/HLbLk/4fpIS4+YkvMrIs5Bl7JUjRvcEWUlWz291tNkkNJq8JYrt3AhbdRZ77mQ/siGFHosFx+WKdxptJM9OzsoFemCrg4cUwBgyPLIj1XjG4Weo213W3KjAOVTF1jr6Jc75TgXEkEingmRoDFrfgbaLgjtUo8bPB0FWEhaCbp0JwB8+SO/wk9f7yR/6jO6Yz2y27C0fXJ0Ls3PihYLK0p+wq6dRuYMI6RET+ryGI7f4JWHQ/695txkfLAADaw+BmqXgxjBGD3ZNxFxJMFF4HE5Ap7RnGmCiyXKPp8Odih4xJAPFi6oqk2OZK+Vxl4oqUTViNEi8zVhGaSKBFKgju4FlWfufz/hWwzjzRTZ8+DHEzQESW9rqrR3x/oIiWKdl6xHlUrDFy2FLfnwOxPTiE6L7ujf6vQ8OjZTgRmqYC4A1TH9zxYhg/mwx0Yq2Q2bxxYaJrciOapM6JqUUWRH0pAOd8v6HnInDHbBuYeM/ukIV0EDPy2dbEJqrXyAJzIEBwf46qKgOJg95f/LDccWTQf1b2f79jiBb0LNHxGCjNO27spQsuKfkeYs3KU13xBqrChT9lZX1/jij+3PA3wxDbAySo61BGyxQeeVCVPQsQDsEdgDaRD7ZGxlPgxTB+DHZixSJOWZZlYnPjO13XRaTI3Bh5D2H1kTpwzreLe9HAXYurkGDaPYsCmWLI1UEm5rkHdu9AcJcwoiNKDCQGRKPUpf/2zZrvbxbRJ0tXBtPgEjyfm/6WUV8Ah7eseAPVki1WWvhvtPuXnxumRWf4j0gCJ3PTpxn1BRNTvvzuL0yK+QcAkHgQTwFCRTqxTBNy4uoLYKKIs1mBcSiLoXEydyK3XUk2G7giKfK52tA4GRTI1GSjgXFQENxVweWkfRBx//13F303Sr308qlm9AkIDzvVSR+70//1Jhqo1hS99YX7vsb8VxXe8t4hWrYa12MYiOvw5jsC6SuQKo3nz9z1z4leXQQAaALnJIgC04ScNYyxlTF8r2kNgDchSmZeUGQBkSB/N01zMccRK2PaPbsDBTI1kXFQps2ngcXKQHD3CWOU13n8wl165k+2Z3x9iIjueM9fBTYmMAcLe/vpXX95yPchUjXLfcryv2/nryH6g2ux0iJMxMqBjR8ORHQ/c9f3ySSXO+d6/yYAEBOmCXhwTiqIFHJMW3UQqahiWZZpTuddrutuV2AcqmNckQUFUXWRv587DNstCO7eKSJKRm0MjZYJ5B6C4O4TRtSl8/iFu505DX8Z1yK6Q7heQTS88nVLfedoC1GwqtjtX2cl341Sm7ntnxoLbExgdsSKlgDy3EUDVZNc7pxotQLDAEAbDFz2DOekwsiMYJNeCiHi+AOxT61h0nnfJecBoDabDIupiKxoJRtqm/RctRkFMi2AoeE0QHBPOL7d7SJKZtkqRHdEzftvqTXFZT9MKeZyn7L8O6Y/cOsw5bp6AhkPmJ/3fbLh+zo00OUOAGgL4wQ8vBgqj0kvhVE3LzXJ6bzNdd3dCoxDaQwU7+CU1QAZU7HFoF1aIe+lKDDpuWpQuqeB4sheOdsMOk+BPO9AcJdwohVKDCRCen/xw7Ivd7sQ2v7ir5iGu64/QlR+2/v8xa8Il7sqWe4iu91h/u5B4bY+fw2KP1HS2V2gN/6p774CprncAQBtYZKAB+ekBpj2UhhxNrBJQg5WorSGUUUWKeQCPdgCl7vS3xMFWIWkFyb9rgbSewGCe4JZ+m/frPnaeyH4plL+4miAd0S0zHKf6RXlAFzlQVC2Dvr+FOG2BtEj8vL7Fvv+WrjcAUge0u1lkuEBL4b6YNJLYSTiimVZJjmdhbsdwmtroMgCYkGuFjPJ3Rz6XC0bPUa98iksYGLQDFnQvNWgXfL9+5cKZhz+cFwVRpEs8vv2kl2e9P7Q3Nd/QvDViMEDB+jA4ODzBnzxxRdToaDp+8NffPwQfeLPvJ8Hh/WRw4hsHuiw2sJlRA22zNdnXPvuYtNtrRnT1+S+J58sP/LII0cvuuiiM1evWpUT16O4LrXhPR8/SLfd4OscCpd74Tc/p9GX/L5up1FrOCexsiCb9OMAYsM05yTiKTRBvBQyxoTL/ToDdgeuyfZBREHrmCLewd2uJ1tkMduEYl8UcyjmaRA34rzdYshZMENwr1ShuEdN/85/Fo5i7wLZO2/aRxo0B3z44Yfptk9/eugnDzyQGR8fnzXbO5PJlNeuWTN89RvekL/22mt7VixfHu1AvXLWshMNVB97yHvz3rI1SnlnUWz7UGEikqTf8/Yi2uh11/rrRRAh4pr8zO23j/74/vvZjGsydzqX53nnnXfoD1//+tTb3vrWfqUF+FUXLKPz1xA9vsfXxyy95xuToy/5ff+h8KBl6g1+xDCHMdALk14M4ZzUjy2GCO5rhKsxgt4Bptyvu5Dd3hoRZk5HAeZoDRHzGmPMFAFPRFSsDbk4b8o9Owh3u57Ie9YUQ4PvexaRMglExDZ0/3a396xr4W5/0aVKi+0PPPAAvfSyy4Ze8Xu/R/f827/1zyW2C2q1Wu6Xv/rVsk9u3txz4UUX0ZWvfe1B8Rla8M5N/mJhalaOYjS4U9XyV/h72/u1iDYSQvtLX/7yoVe86lW0fceORfNdk4Innnhi6Re++MV+sc35F1wwvHXbtnI0o/XA22/wneWeKo3nc4efjGP0AIB4MEXAg3NSQ+QL1C5DdgfOydbZqstAFcCUc74Dc7TWIFZGnc+PChTI9Mak8+fL5Q7BPYEsfPin/pqlnnC3K0mxWKT3feADw3/4hjfQo48+6tk1LcR38Rmvuvzy4yL2Q2nOXLKi6XL3To5qVjxCbo2J5q29nrcX2eEaRBt98MYbJ4Ro7ueafPrpp/ve/4EP5IRoL8R75Vi6sr/pcvdJ/4//aVK9nWsLBNED0ALSOWlKHjSWPeuLKecuVFejQfntRdd1Ibi3jiluWczRGiNX75jS6DpsQdyECKgi5xzztMbIAucOQ3bH1z0LwV3S8JFqk0/rdRh7f/VD745ohd3tQhi/7JWvHN32rW95d++fwu49exauffGLy9t37JgK6jNDwa/LvRyT4F712Sz1tRt8u6rDRBSALhoYKP7jN77RHdTXCNH+1evWTSnpdn/D23wX4wq/+UU6mMHEg8XodzqPH4AIMUXI2YXsdn2RS9af3+BHP+CabA2IOO1hwnkX0RQ7FRgH8AeKo/NgUAQU5mkzMOU8+ipiQXCXOHFGakRM1+Dj3rPb/+BaJV9KhONXCOMHDh4MPItcxM28/R3v6FQ6zkO43P24i122qNm8NGrqzHtxRGS3v2bDgugH3RpCbBcFoKf27w/cEVav1zuF2125a/JFL1ndXHXgg2bz1EcejHlHAAARYIqAB+ek/piQExu20AIhJ5mY0OMFc7QByMK2CcXRFaLnRkifjXkaKINBhgZRzPL8zqKM4O5yUtqpagq+hawrrj5TtUMhhM2rrr66KITxML/n/TfckFPa6e7XXVxjlcDG0gpOU+D3fs5eduWIqtnt02L7gQMHQm1Gq6TofvXb/a22IKKe3bt0j5XRBsflpkR6AP0w4cUQTb3MwISXe9HYa2WIn2/E/Ypmqa3jR2BQDMzR5gCXezyfGyV7sGrQKEyZf/UX3BsOh8ASAT0PP+C9I+Gll0+pKHC+fv364ePHj0ciGl3/rncxZTPdRdSPcH17pWJFW0yoMn8Vzzf/mb9mqyHy9ne8oxi22D7Npptu4kplur/idV1+P6L7t7sTtOYoXuoNXg1xAEa4GkBo+G/6ED8QcgxAvtzvMWBXwhTccb8mD1PEOzRLNQdT7mEI7rMDd7tZmHI+9RfciZOy4tl8FNK2NqJC9+8e7vC88R/+8UiggwmAv77lluLevXsDy2yfD+Gif8vb3ubbwRsa664e8/zRUcfK1H181/LVRJ3dSjpzxSqI+++/P7KxiXiZd/35n6uzQkgU5S55lb+PmJrozh32XhuME0ahLRMNhXqDh7myBS+54LQgZxQoiAlCTiiOZMuykN+eTMIs4EQFzrlByOIJiqOzY0LDVBRGDcKgKCjP9xYy3BOEXS5RauL4Ek97LJzTqy7wnv0eAiK240tf/nIm6u8VAv8DDzwQ9de2xms31HxtH2WsjMO850K+7tpDgY4lIMQ1+f4PfKAe9feKRqpKRctc+UbfzVO79+0NZiwAABXBsmegGia85Icl4pggvBYRJ9M2JszTEO/MAz03TkPIkWJRMYgVKUZixDzs1SykUIZ7qC470HS37/EeGfKSy5VrGPqxj398OOzc9tn40Ec/qmbPgYW9/dTX7337mnU8yOHMih93u+DFr/K+UiNEvr99ezmqeKNT+fgnPuGv2BIkL1x7lt9PK/zmQXVXksyBxSiaeyggXE5aOfKBMZjwYgghxyAMcWFBcJ+dnaoOTGF0P++IkzETCO6nB89VQFVM+f3VW3Cfqrixfn/V9R4ZvCCtx0KB/L5Hjnne+CVXHA50MD4RTuLvfPe7vrOivSIcxcpmub/sSu+xMo2I4jAazPv1JOJkOjp7Ax1PQMQpeguhX5mVF3aq02+sTMcz+7OBjSdCLMa0EtyrNRdNU0EcmBBRgRdD89D9pTAsRzLu12TifSWqGqDIYiCyOFrUfM/CePY2YUUK7lkD4Zyb8vvrqailjFLMOSnpWDWJBY//h/e9OX+NtyiakBBO4rjc7dN85vbb1XTgXnq5d8GdqIOcCHLcG8z7ionXbFDyuIvGpXG526e54847D8b5/Sfx4t/zFfsjctxFDJZuMNLLMV5roD8tiAXdV1YUESdjJLq/7If1DGLCSijcr21gSJ8NiHfmov25ZYwFXcg0YZ7GPWsuuwzYM70d7jqTtlheh+Fnxo6d4WlD4SgWjRAV4l/+9V9jF11/+KMfOSodk2dZed4qX9vXI8hxd5j362ngZUoe9+9897uxxwz9/Oc/V2cuuuglvis3OjZOZUyvpqkAxMQazQ883LJmYoKIE4ZQqvv9ivz29oF4B1QG9/Pz0b1IJiKgtFolDNrChPnY0++iMoL7+JSjrcPdYqRkvMVMhFOUOY1OTxtf9FI/julQeHjv3sibpZ7KM8880y+ibZTkfB/vRg0W/k655L15r8ipV5AHH3ww9gz18fHxHmWijhb0LGmeLx/o2Dg1ZbFJBYbRMk68aW4ggRhSlIKQYyAy71n3qIJA7y/LsuBuTya650EPQrwzGhN+g4MWyHWfqzFPm40J5/cKLxupFCkTu4jmcPLsUM1YEcRw+MCXU/SFa0fj34OTEWK3CuMQMSJKsvYy727rRsjXsuvj85etDnIkgTIyMqKEdHn//fer0+DYT+HnxLylZnPiObBIr3i0ShWKO4gcE6IK8GJoLrqf26BFF0SLJBPdBXfM0WZjwvnFXH0yuGfNJrHnF5EyM+BEDa/bZmy1BfeOo0+PeN542Sql4mRU4pe/+pVy7v8m513sPfzaZeEWM/wEwlx6+WCAIwmUfU8+qURzqUceeeSoAsM4wQWX+DpfmbEhO8DRRAJjpG5VCAAQCMhvNxo0TjWP/Uk/AAkEc7TByNULWI10MrH2EQsA3LMGI1cQao+X2D5lBPdSOX6XHefU5XXbrOWjCWQEdAwd9B5zIKIhwGl55plnxpU8MovP9vejG2bjVJd5L/6svlDN3HyF+P9+/OOUMqO58FJfY8mMHUsHN5hoSDF96tiOy3V/WQF6EnSjsKgxofETmB2IsydjgoCPc9o+us/TEO/MR/dzjOLoyeCeNR8Tnp/bLpTB4T4Dh/Oq1207bEsdV+lpSI+PTHna0GckBIiJjk5/fQXCFNwd8l786V/aE+hYAmTBggVqrnaIk4WLvPWNkNjlSe3cGkztxU4n4TiEfFMA2gcvhWajuzgbtGtS+wx313URKZM88HxjPvgtljDGdC+QEXouJIJEFr+VEtw5J+8xGAHQ4N4/o8NmnuNooiD3zFPehC+fTQ9N56yzzlqg7C6q3jjVC7kuZQX3M/r6lFjt8NrXvEaduUjh8xUSsf6GtYvLuedVXQAkGLwUGgznHJEyAGiOAfcxmB/8FpsDVg4mAxMEd30jZQT1Bh+O8/s5eW/cmrGYOjEOQXLBWiUzs1evWqXEuF720peqKyjmF3hb1XCC8B5iXObNCb5c7Wjsc1/wAiXm04suuuhMBYbxHD7PW37f3mDHEyIWY1o9SJTKrlYFAmAMujuxIOSAJKG7wx1CDgBmgtVIAOiFCUUyRMr4oeojHTpjszMU2IVZSZUmfPj31ePcc89V4tq9/PLLFRjFLJx/8THP29ZZeM5Xh7wVKXJqr7Y4/7zzMgoMg6688kq1mhwrft6ChBFptbOcU4cCwwAAANXYgzPyLHDMJ5MrNN5rJc1iIHB0F9yR2/sciAdKBok8z0oJ7pNlp6LAMDzBiDpthcN77fLkSk8b+mx6GBb/1xvf2Bf3GM4777xDcY8hRNRzvvYvVbox8fqrrvK8QiYoRI78iuXL4x7GyZy13HuTXM1IWZo53Ctu7NcsALqBqIJEgKgCc8C5TB5okguShjedRx0wTwNjUS3DPVa3XZ37M4HnUhp1y2sV21Yym14FF++f/smf+GoIGTqLlyndV6Btzl6ldGNisdohk8nEWhR404YNPtbphMSSFd6b5GqGxZhWD7yOa9TCJwAAAOBU4JwEAJiO7oI7AMailOBeqrixCph+tYcu2/KWTQ3aRrh4zz777Fgz/9/9rnep3RDyjLO8r05wGXLlPHDllVfGek3efPPNsa/8CJpujTLcMxbTyqFRr0NwBwCA06CzQ1bnKBAAAGgJrDYDAOiAUoJ7w+Gx56C7nIpet83azE+TStAmH7v55vByxufh6je8YahQKJh7yjgZvHPhcdONNy6L67svvPDCIeXiZBIGY3rlMdYaENwBaBNkeycDRFIAAAAAAAREUotkSgnuKrjtHE51r9t2pSyzIjwUZ+N11+Wy2Wwsuf+3f+YzyD4Gz0PEygjhO44j8/nPfhbXZMykLX36kNcbPJbrFADNmzAiZxQAAAAAAAAwL0qpAyq47eqcV71um7XZimBHA+bj85/9bOQXzXXvfOcwnMRgNuIQvi+//PJhIfYrycBLk3KtqNdoeA6Q3w5iBCuoANAHRNQAAAAAwBeMJTOyWDk7nuvSsTi/3+G01M/2OVsfh6MJCJf7wMBAZLnZCxcuLH76ttuMy8kGwSGEb1GUieqQilUe3/vOd9S9Jh3Xey8BjbAYe1qn8ZarHCuyAAAAAACAdjDGdF4tB0ASSeQ9q5w63HB4rDnoVcff9p0pVg5qLKA1fnDvvX3Lly0bDftwZTKZ8n333FMwOrsdBMJXvvzlvuXLl4d+TaZSqdLOH/+4Q+lr8qn/UmAQ4ZPSrGFqpeb2KjAMkEx24bwDAAAAwAfau2WT6vgFIEkoJ7iXa26sgrtL/pbZd6Ws0EU2cDJCbHzwZz9bdPbZZ4fmKhZi+64f/zh38cUXJ+PoM/IcrTQvNo2F9tkKIa7JMEV3IbbfuWWLpfw1WS4lwkmdYkyrlS/lqtuhwDAA0A28HAMAAAAgCIJy/KK/DACKop7DvcE74/z+uutve1UbpzodnfsUGEZoCNH9lz//eV8Y8TJCyNdSbJ8ser+/LX4k0LGc/Nk9oX22QkwXgjZcc03goruINnpg164uEamk8zFqheqiM9UfpGiYarO8AsNoGRWalAOgIWtw0hIBogrMAUKUN3ReiYS+AyBp7NZ8f9cpMAYQPshwV4HxkhO7S9Dh5Fm0VbVxqpPzqAX5EW0jpilw/vSnfV/+4hfLQpD0++3C1f6hm24qPv7oo31aOtufetxn+UgxnIZ2jlxxTd717W8vuuvb354K4pok2bT30UceKSRltUWtJ/IetJ5IM0uPgUpUaFIOAACKgpUM5qC7EAUAOD0QaQHQC2S4q0DDpa64h9Hg/oQIFRunctv21rhQQ9FWuH4PHThQEML7y1760oPtbi8c7Z/avHls/759uf/71luTGtge3n1oeZx3dv9cK0FzJhuuuabz0MGDhS9/6UuerskFCxaMffCGG4Ye/c1vmvnwWvUROD68QIFRhE2JMX0GW6vzQQWGAQAAAAAQOGioCYBWrMTpAqbiTYQNkUo1fn235lJ31odmviBtjZUdV6nYDDfTUfG0oYau4mmE8L7xuuuWFYtFevjhh+ne++4bGh4ZafziF784Kfbn3HPPtVadc457xRVXrBCu4RXLl2uVxTwrj+32vtoizUtEFM5xsPmyUD5XA2a9Jh988KRrsre317r00kvdiy666Mwrr7wyt2L5cn1jePY9ZnyEkM2YiGBarcBQWqJSQ347AF5hjK3jnO/EATQavPwDoDdYpWI+KKqYg5IJESBwErkqRTnBXdBw+MGUzWIT5aoOZbt9HJkFGWtyqEJKiUylFS+k3OGn2t9w94P99AfXhjGkyBBu4Msvv1z809Yh7YmpST9bh/eg6rWYddCcNgSJvSY9MLl6QPkxpi3m62aLmmqdQ3AHcbITGbtAcfDy/xyDOB6JRPd5eq3cB2AuKIxKhAmA6bTU9jSIVSmcc0SAmQ0y3FWh4fCpOIdS9xkp02FbyjXP41bKm8BS1kpHAjN5fI/3w5Hi4WWW2B7vL38FBBAXfq5DTcjYllbRUxNTTlKjsgAIAuTGGgxjDCLOyexXaTAAtAjuY/NBE3OzwD1rPom8Z5UU3EvleJe7u5yIE1W9bm8z6slYalUZixe+1NsxPWCOqzhRlEtjvnaXhd5QseRpq6OHkD2tE426tygriZPLB9JoNmxSll4CTaWKhqkA+AAvhWaD8wsA0XHNjwHiRgwGGf2nRYt3pjnAOTUYg+7ZtldOqSq4nxH3GGoun/CzfXfaKgc3Gv9wO+U9uuL4yJA6ewJa4pkD/uzg6ZAFOZsPe9ruyNNKzllgFo4dGfFzaKqL+nVQhku2Rss4OaeK40JwB7Gi+zJ/CLJmg5d+AIh0j3ZAbJnZYJ5+Prrfs1g9aDaJvWeVFK+qDd4Z9xhE41Q/2xcytjdBMSR85SAf2FdTaV9AC/zuNxnPh4lFUCG3qNHCXz2f3+5VLq4JzMGjv/Z2niXlpat9bR8FsmGqNlTrru4OGADiBkKO2eheUNmlwBiA/ujucIcL2mwgzpoH7lezSew9q6TgXqm6sY9BNE71s3132uoLbjTB4GY6jnn6oIf+j3L7AuZBNLv1is3DX51hc29tiR/5lVLNiME8PPaQr0ZrlcUrlJ97MjZTvigwk8mp+H9fQeLRvikWhByjwbkFiceQ5oUQZc0F8/Tz0X31YAHPVkZjyrltuxitbDxDrc5jzWr22ziVEeVytlqHt9p31qinDfc/kQt8MCBc/DVMDf98p7k3IVb0FGg0lIprAnNw0F8PiKklq5Q/uhnb0qrjeqniei/GARAAnHPtnZMQcowGKxgAOIHuK+IwTxuIbGyNhqnPB89WQElMume9FKOVFdynqq4T5/eLiFuHk69YmAVpy1/jyoCZPOci741T/TbhBNHx5GMHfX1X2i2EPlbbx7YHfqtUXBOYBTFnDPtLW/EVhRURGcvSSsBWYQUZAETkoyqsBHgpNBDGGM4rAM+BTGigIiad1yD3BatSgKqYcl49FaFbEdxjuXmnKm46ju+dSc3lvgoSPVl7KvBB+aD4opd7j2f47W/8NeEE0fHQz/zlnIfdMFVgNb/D2/3x0E+R464DD/3M1/xXW9infGHFYuSvuBUxjsvHag00TAVKoLsTCy+FZoLl7AA8h+4Cnoio2KDAOECw4Jyenv0qDqpNrtFqtKBVTLlnPf0mtiIox/JSVKq4y+L43plUHFrkZ/sOmy21GQt8XF6ZOvvcLs8b/+Te2M8HaJFf3u8959zmQ5EdZpt76ynwy53IcdeB//w/S/2McmrZ+cquwJombVlaFSIrNV6N+CtNcNuAcDAhaxQv/eaBQgoAz2GCgId52jwwT58GzrkJ9yvh2cpITLlnPb27tCJoxPJSpETjVNe/EzCfVkczcnJd1OheeNjTxg/9NPDxgBAYPTZMwz4086ybiey0eHXSi5gSsZ9AXUTOvs85o3jhS30VPKMga6vXHHsupipu1P04jHj4B6FgwrWBl37zgLsOgOcwoWgO8c4gpBgbfvSpvuwyYB9wzxqEYfdsaGuOaA0AACAASURBVA732H5s426c6vBmlvuEn8/ozdpKRQ5MnHtxxfPGD/9Sq/iERPLv3/cbJxOdezzFz/C87f07/KTAg7B59Ne+CyKa5Ld7v4ZjYGLKifqBR3cXMwgPOCeBUsBVNyuYx5OLCYI7ViOZxcakH4B5MKJIxhhbqMA4QDCYNP+G43BfP5AXkTI7PA3JJ3E3TqUTLve6n+2702oJMscHXrXY88aIlVGfB+7z1hhXwGiM7AjzndO80/O2iJVRG59zRaOze6LWo3YvUpHfrlBiWEuUypGuHBtcP5BHpAw4LZxzE0S8FRByjALnEoAZcM6FBhCr+S0gcG8bgBRhsQppbowokuGeNQN5z15nyO7skb+JbdNq3smW8MY+O+OTjndxOCCmfOa4M6KOnK1OrMzxgVd2cssuedpYRESUS2OBDwoEw0M/G6IpH5HSmYgLXKw5A3mLOBKxMof2R5c3D1ongDiZ4xf/nvIHPGtbSjXFno9qnR+K+Cu3Rvx9QD/2GHDO8FJoDjiXADwfEwS86+CYNQK42+fHFKMLzrUZmHQePRuFWlKC1w/kd8aRCVWuut4dsAFRCyDHva/DVipvurxklXehcuc9yjcyTCw/+md/luAON/o86jT3foP94J/UtkAnlZ//yFtBbwZja1/drfrRy9jW2QoMo2UmSk4qwq8bjKtQD7QCQg5QAuQCAzArEPCAKmzCmZgbzrkp9+sVjLGVCowD+MOkezZcwV0ifqiKXr/IC7UGJ9elkSi/81SE3u5wGvXzGQsztlJ50yMve533l4qd/4oXEhURbu/HfZgFGRUjjZOZJuMu9bztT39ANDUR6ZwEWuCeu3wVbtxUpqpBfvtkxrK6FBhHy5QqbpQFqo0yjg6AuTAlGxoigP5AjAPg9GCeBrEji6IrcCZawoTGqYLNCowBeIQxts6ge7bIOd/udeOWBff1A3nR4Gpd1KL7VMWN/aV9yuG+BHObUY9KsTLDr7iq13OszPDQiegSoBZ3fcmfmJaNNNv5OdJNkb/seft7vpMNfEzAO0/sPdKM+/FB8UUv99U3IwpSFos6nsU3EeW3i+eDN8lVcQDMB5yTIHakiw65wACcBkP6bZDsuYG5Wl9QMGkdU+5ZrCDUG5MKJp7FdmrT4U6yAZp4MN3WxmZ7ZKVt+l9bgn2x5MR+o5Ud7tvVrVqszOS5F3tXxb77FUR5qIRfdzs142TiW7mQ5t7vjQfu7WhmhgM12L7Vd9+Nodf8cV71s9lhW7HHnbWDyG93AohHm4OifC5Yu34g7+uhBCQHufTZhFVKEHL0BucOgLmBYxbEhnTKXoEz0DImmV5QaNEQA+9ZX/dU25mucpn4xnv3Tm6WDYbWShF+mv3y387ZXG737p3cIH/01sz3fZNTTi9Rut1hBkrdJeJEVUbk2U0rYmUOltQxbg6te/Pi7ice8rbxtMv9kldCeFcBv+72FD9CFo+vQXGHu4zqHheRiCaxP7q7Rle9NRf0sECbnCj8+LoWG10LJstLVmkguNvLFBhGy3jMby/Kiv5O+Zs+zcoZv/lCMD0ORzvwwU5D3MWb0ShYP6R7Di/0AMzNTkPEk2ZxlHOOuVovUChpA7EqhTGmzXjnYRNjbAvnHDGVemHaPevLTOa5iZqMmPHUFE044O7dO7lTvpzM+aI1neNuWdTrdaxBUHF4KWczz4L7dKxM2YkpuuMUJl6wpsvN5kasatnbcRUu90teGeIIQUsM/vY4Pb7H3yqQnBOf2E4yVobRGHHq8bT9vd8t0BVvKFJnN/oLxMldX/RdgBu68tooG3t6wmLsMGO0RPVxzmR8ymn33Nwqft+Rww4iwBTBHUKOnmxCs1QA5kXM07cYcphQHNUIuNs9s8uQ41aQ9ywK45pg4D27w2/BJ7Zg8WmnvJAM5/tbNXLcaZHfz1AtVubQG673vrFwud/3PTSsjJutn/MntjOakDnq8ZJ1vc9FwuX+T1/LqHJKEolY8eIz1oin0pWRl72+Q/XD12Fbvppox0Gb+e3Xrx/Ib4bYDiLCpNURm5E3qg9wtwPQGjLH3ZR3PlEcxX2vD57MncCfI1cxbpS9VoAemHbP+i7QxtrJc4boPicq5LhXHP+i5KKsrVRUQrN5qp2a8vwBwllcr1UDHRRonV33TNCBff4OWKenqIngyfnMkP/JvblmpAmIHqcxFURfh+Mvuqzh5LqUP4EdKesiBYbRMlMV92Abf37T+oE8nF8gMmSO+7zGC01YAQFXK+BuB6B1UBwFkSJ7o8wbPwxOi2lRjyi8aICB92yRc+67eBWr4E4nRPed8zVjOZHjHj9Vl/uq7jOijkLGY1Z1SAxfdtUxz58snMVf+x+OUjuUFCbHJ+juf+z2tbeMipR11cg+F1FzGe5PMP/6p9FTIA5+eHedhr33YJ7m8Bs2Kp/dbjE6aGuWi1gsOWe0+Ke71g/k8UAL4sCoBl9wYqkP3O0AtI1JjtkCcsHVRs7ReCb1iGFmBsE1MqoEKIqh92wgv3uxC+6SOR11IsfdcflYlAM6HVMN/06Y3qzdjtswdJ55/dtXcMsuef6eXz/QSY/vUSoqJxF85VPdzYKHHzodtWJYOl1/grlw+9/3XcQcRcnosWG6++u+58WxNZdP1nrUr5d02LZ219f4pNNqTA9ePkFcmCbkYJWI+myGux2AtjDNMXsjBDylwRztH5OerQRbsTJFabYYeM8G8jyviuA+74QwMeXGLrhXXP+xMgvS1jKVHJIiwmH4Fev9CeZf2txHjXolsEGBuRFRMj7zspVyt09jcdFA1V9GjhB/hQgMouGLn+gL4nt0cLeThnEyjsuLomDdAoNytRkAkRPEck3FuEIuqwUKwhhbK8Q2g88NGgyCwOGc7yciny8fygEBT0FkIcTkOToqTHu2WgFzkJrIe/Y6w3ZrUPYv8Y0SgrvMct8x19+MTzqLoxvR6RF6u99YGcHCjFUOaYieEC53N9PhL1rmq59uqysf8MixZ4r0rTv9RckIuhw1K5Bd7mrfnyFEYJErDsLlnruqvnsIaORu1zFOZnzSrbf4p1i2C+JmzmdADdmCaBllwQqE9lir02BBqJh270DAUwxZAMEcHQCGNTueBitTFEPes6YVdyjIeUgVhzvNt1StWHI6oxvK7AQRK7M4l/Ie4RICwuV+6Oo/83ctiGiZB+6DszhMxCqCz37Uv1Bu8yHKKFofES53v1nuQgT+9hf0UkZ1Y/C3x+n738z6HTW3U2Vt3O22XVNgGG0xNtlodQWCiQ9KQC9MuwYRLaMgjLHNaMLXNnAAg2lMfFYQAt4GBcYBTrBVFkJAMJj4HIKVKWqx1dD4JyMF93l/xMtV98lohjI7Uw4nTuQrPiVtsb6crdKhJxp+xVW91b6z/DXX2Pr5Pjr4JET3sPj8xzpo2J8W3STvqG0n9pvlLvjJvTn69QOjgYwHnMzURJE++9FAHnSG1r3Z0sHdTifiZPyvvogQzqlSKrdUWNuzfiC/X6d9A0ZiopBzhRR4gQLIKJlbcC4A8IahsTIkBTysSIoZxphoZH1Nog9C8JgouK+AoUENDL5nd8nfu0BQRvWVL/xzCr7FSacnuhHNTsXhDb+fsTiXCkA5DZb9f3pzr+8PvP3DfcjQDoFtny/7zm0XZN1hsv33IggV4XLvcP0vgfvKrYtoZAiie5A0GmX6u48UfDfsFR/V2T1x9Io/8u2SjwKbsUd0i5OZLDutxoQhux3EDudcRAtuM/BM3AL3ZPwgpgCAwDAxgq6AlX7xIguidyRw10Mt9HDOd8+nr2nKNVLsBTFh+D0b6POiWjbr+WJlFBHcSw3yHYGwIGMtUE3AmVq6Oj966WsO+fuQSaIv/nVfU5gDwfDjf6nST+7z3+BUNErtdAJpchk6ObdAjPw3St78HojuQfLV23gQue2CA398Y7eIs9KBXMo+S4uBzmB03FnW4p9ChAKqYKrgsVW+mID42IIoGQACwdR5eg1jDM9DMSALokk1f0SxssLU6/oOGBriQa4IMvWeLQb9O6ea4D7nztUanBoOPxzdcE5P1eWigeqEn89gRDnVmqcKnr7mL5Y6HV3+hE4hyN32gRxE9wAQsSh3fTEYF3C+IURsPWDNxq7+91sUgG7/8CJciwEgVlmIXg0BMPGCtcXiRZfpsuelXMryv/onYsZLTitfWFw/kN+t274BM+GcbzewwRdNuyeRORoP0gV3XRL3HYCgMXg1kuA6uGajZYbYbmIGtCqYXEiCoSFiZjRJNfWe3S5/5wJDKcF9/UB+3mrCSNF3mksglBye8fs5Z3Wm1NiZGQjH6VPv/JjvfYPoHgBCbP/KpxYF8lkiSiateJTMqWR4J6W5/3ii4SNEt70f16IfhNgucvEDwE1lqk+942Pa/EhnLOuIAsNoi1LFbXXMWEINVMPUF0OROboTonu0MMbWJTSmAIAwMVnAE67ZjQqMIylsxeqjcJFZ1DsM3b0Cnq0iZ6fh92zgv2+qOdxpvglhfMpdEt1QZqfU4L7dtynGuvNp9U7BxAvWdB171Rv9531BdPdOkGI7owltomROJd8ct68mxU2a1yJEd08EKLYL9r/9L7O6RMkIutK2Hl1dZzA23ljc4p9CcAeqYWI+8DRr8GIYHdL1hjkOgIDhnO80NBd6mm9CdA8fGeGDJqnRYHKRDKJ7RMh71mSxfY/8fQsUFQX3OR+OK1WXHJf7z3b2icOb0TK+3bdn5VJKuief3vAXK6p9Z0F0jwOR2R6U2C5Y0OjWJkrmVFhTdHcD+axp0R1NfVsnYLF9+LKrJjSKkiGL0cGUxXz37Iia8VJLt0yxlVVlAESJdGLtMvigrzG8qKAEUmxHTAEA4WH6PAbRPUSkcIeor4iQkX0mF8lgaAiZhNyzofyuqSi4z1tVGJ90WwqnDZvJBvl2DXelrMUZS0019PEP3rGC26kp3x80LbqjeeX8CIEzqMx2QadTIVuzKJlTEdEyIhInCMS1eMuf9+FanAdRIPvKrVNBiu3V3sXFg29+f3dYQw6DzpSt03CbTEw5Bx23pXseYjtQFdMb14mc4N14MQwHiO0ARMJWQ3tuzASiewhAbI+NzYbvH0T3kEjIPVvknIfy/qGc4L5+IC/cTXvm+pvh8YYS8RgVx3/zVEF/LuX7M8JAxD48ccNng3MXb37vIhr8baBNCIyhXqvS7R8h+sl9gQmclHFHqcPtMOIQdbl9ZFEwIrlopLr5PYuasT3gNMdnothcCRBQg1SSue2/e89tuokfpQ7bXqbAONpidNxpdcwQ3IGSyAdek51YhBfDcIDYDkA0yKZySXiOgOgeIBDbY8XUxvQzwbNVgIjjyBjbnpB7NrRVWyo63Gk+d5MqsTIUUPPURVk7ZTM1Xe5TS1fnn97wnoPBfNgk0afet5B23aNkgSE2jj1TpE/8WZYen7PO1B4WH6UuJ7hYGhVY0NyfYKKJxLX4lVsX0f/+qv98eJM4uG+Ybn5HoVkgC5B97741W+vRKwo9a1sHFJ2WZ4VzKo+XWloAhjgZoDqmu9xpxovhSgXGoj0Q2wGIHNMds9MI0X2TGkPREync7YTYHh+ySJaESDvxbLVfPhMAj8iixc6E9FkoJlFwn1cIGBt3atEMZW4mA2ieyohy/Tlb2YrjsVddvaz4opcPBfaB37qzu+nmFq7upHPf94r0399ZoOHgDi8xKlKhsUjb3PbZsDhRtxPcCgDBD/53B936nhOu7qRz33eLtPk9fc1iRIAcuPaG8uTqAe0OblfavkCBYbTF+JTTakEKYjtQnS0JcGKRfDHcjRdDfzDG1kFsfxbTV4cARZA9N7Yl5HzcId3ZoE1kUVnMz1fg2MVOUp6tphuprlNgLNohn0l3G94gdSbbZUEqFJQU3FuJlRkpNpSwS4qo3LLDfStUvVm1s4Kf3PiJ/onzLgnO9irc3B96S5Ye/c9kCp2T4xPNosPdXw/65bBMCxoF48T2adJcxMsE24BXuLmFq/uB+5LZTFU0kRVFh+CvRTr2yqurIy9/fbBFkghIWexxVVcdzcVIsdHqqhYI7kBpEuTEIvli+BAclN6QcQ/3Q2x/lv2KjAMkg6S43An9N9pHCp5JEu6UJoHPVvfj2ao9GGMbZIFshU7j9kmov2OqOtxpvuXEtQaneoMHaAv2zkSD5/1+hs1YoTdrByskBszv/vxTq2s9ZwaXey2ctJ+7uUBf2iz+OznCu3C1f+y67kAjZE5QpkIjp32T1PnIujnKusHGEolrcevn+uj2DyfL7S5c7R99W1/QETKC4wOvGn36Te8NrgFwhHSl7bN1G7Pj8mKp3FLLDcTJAF1IihNrGuGg3A4xpzVkRIF4V/imDuMFwEQS5nKnGXEVcM7OgxQ6UQxVDzxbgdPCGBPXxvcTds9uk79joaGy4D6vIDBSbPjOTw+Cutv853sZwpLOlBIxOXPxXzd9YVF9waJgCx0P/fSEw1gI0Y2G0kUHX4iGsTf/6QknccCxHU26G67xYvs0XW43ZXjwTU9FEeSGNxWaQnRSrsUQEGL7U+/8mJY9BBjRSMayuhQYSluMjreU3U5wtwNdSJgTa5prZMQMxJw5mJHXjjxgAOInSS53muGcTdp+t8SMvPY7NBhu4sCzFTgV8UwlVu8Q0Y0JPDihz+PKCu6txMqMjjs90Y1obsYb3HfVTAeXu5Prosc+8pX+RteCYBqpTiMEaCH+fXxjjn65MwQ1OkYO7R9qxseIhrFBZrXPpMspU5prJxL6Iu8sCkV0F0xfi79+IJzPj4vmtfhhok/9t4U0fCSUQegstlPT3Z5SYBTtM1pstFo8SdpDNtCbpDmxSC7jFWLOFjiyno90TT6EiAIA1CCBLvdpbpERM+jBIZFxFPuR1648SX62QqFsBvKZamdCn6luDdvdToo73Gm+WBnH5TRVcYMVfj1ScbjIc/ctFJ/VmWrZphgXQnR/9OavLmt0Lzwc+BCEIP0Pt+Wb7lshvOvsMp4W2j/55/0hxMdMM0V5Z6oZs5JEwhTdhSD9lVsXNa/Fh36mRHyVZ6aF9k++O8xrUXuxXbjbcymrV4GhtEWl5g6JmLUWGFw/kN+ty34BkFAn1jQ3SkfWBjWGEy/SgQXXJABqklQRa43swbE5yQVS0RhVxHYkMI5CSxL+bCUKZYmPhZrhar8jofdsMap7gHGubgTFvXsnRVfrp+b6m0KXPbV8caYzulHNTqfNqCfjv9HegVKdRqvK6+5kl0v0wjs+OJoZOxqewNaZJ3r9H1dp3dU1yi/oDu17gkSIs//yrf4wcrFPIRmZ7a0waY9SjYUr9Iprcf1bi3TFG4g6u9X/YRLFqr2/HKd/2RbFtai92C7oTNn7utL2agWG0hZPH63R2ERLvxm3rh/Iw9kBtEKKGPsT/hK/i4g2RuHEUQ15/jcndKmzF3ZxzgMTEizL2qm5W/VK13V3KjAO45E9FZIc8zQo5irO+ZyGQdOQjuFNENo9Eeh83Q7yt3V3wppjnso2ec8m5tkKz1TPItztkbwTKy240wnRfbvMXZqVi1blyoyREg7fszqsSYuRryaqDc4nHxmr+m7EGgVCdD/n25/Z1/3EQ+GLVOevIXrtNaO05rJOSqU7VNj/ZxkZGqV77srRfzyQCyWf/flUqNDogNg+g0l7kmosmvvmklcRvXr9Qbr45csi+b52ePZa/ElU16IRYjsRlfo6Ml3Mf800UjinyiNPlludD8+RcW0AaIVc8gpnc8JeDuV53wwhpy0guJ8MBPeIQHH0WXbJedro644xtlHOz0kWbP0Sm+BOz53DpDcen3Y6b5HOfyOR8/MmFMeaDHLOV0b1ZToI7vNOBGefmTnU020vjW5Us5NPsUohzXyLwbq43Kc592ufjEZ0n0YInq947ShdcIlNnfl4Jo0nHztI//HAGfTrn3SEls1+Oiw+SoXGItJMGIyEqlWmkhVd8U243kUhSIjvF774jNgKQeJafOC+Pnr0P3NhZbPPxpHXvqX6zB++Ixvpl4ZALmUP5tO2di8No+ONiUPH6q2s/tm1fiCPZkFAW8QSYLzYP4vRwjuEHF9AcD8ZCO4RIt3OtyRmh+fGSOEd83OgxCq404nzqfscHxRGCu8Q2k/Lmzjn26P6Mh0E93mr5ZkUo/NXqGF4thjR4g6ryoh8CVA6udynWfzv3z181g/uWhL5F/f1nxA9L3nVEK14gU2LzugL/Dsa9QoNHSrSw7/ooL2/KoSZgz0nGXeUuhyI7XNRtYhKlsj+j37Vy/LVRBdcWqEXrjlGy8/N0MLe/sC/Y2qiSE/vL9O+3+RivRZFYfDaG8ojL3+9Cf0DtHS3Cx4frFCL+e3Xrx/IJ2qZMzALmbd5P07rSQjhfasJgs6Ml8KNEHJ8AcH9ZCC4RwyKo89jl5yntX0Gk/PzBgjtgaOC4L5WNiIHJyjKPpJbdDY1iL4K8nkKQvvJRH7PKS+40wnRfd5MuPOWdxzKppkSLvcFaVbtTjHfjs+DpXp5pOpoJWb1/fy+kbO3/32WuW68xQIhfObyRBe+uEq5ziN09jld1HNG6dn//0y241kx9PjIENWqleZ/O06KjhxM0ejRCh17ZkUz+/rgPooqmmNOOp0KdbhqRemoisOIxu0J4hR/7r8oBgkn/HkDQ2SnKnTeQBdlO567FnvOWEzpTJbqtSqNHXvOnl6vd9Dgbxs0WUzR00/1N53rMYrrM3FTmeoTN3w2W16ySonx+EVXd7tolvrbg9VWijri4XHl+oG8sUslQTKQTdnmjBlMKHvkC+JW3ZxZspCyMeHZz0ECwf1kILhHDIqjszI4Y57WQsiTot10IRSiXfDELrjTifO8BZnep2WHvF8jc0P7RTba34hn5Vk5J+r5VxfBfd4f7kULUuWlZ6SVEKeDcrk7nBf3jlW1+3HrPLRv8gX/82NVq1ruVWA4+sOoSAsaBeS1twlv5roXqc7wgBgg1d7FxcdvvLPg5LpM2SVt3e2DR2o0Xmopemzb+oH8xvBHBEC4yJf/3XjxnxPxgiheDrerKr5LR91G6ZiEWzJYILifDAT3GEBxdF52SfFduXla/s5Oi3ZrFBiSyagiuKP/wtwMyucqIb7vVm1weKZqmcgapc5EC8GdToju8y5Pe9E5uRHLIiVE3qBc7oenGpWjlYZ2rmbRTPW8L33kUMfRp5VYdaAtGXeIupx+RMj4oGJVaMrCyoAAGL7sqomDb35//KsGAkRXd7vj8uKjT1VafTC+ZP1AXrkHRAC8gAaqbSFEnZ1S1IltDpAv8+vky+A6vBCGCgT3k4HgHgMQ8Npiz4wiaSzztBTsNsh/ENmjQwnBnZ5zRn9fgaGozuD0c5X4f+MomOGZyhN7OOdr4/hinQT3eV+wzupND/UtTAWfmeyBoFzunKjyyFi1w9HkPJ3K2du/OnjGT/8Vk0C7MBqjLidLGbdTr4ErioiYmbCK5MLt7gWeSleeevvNHcWLLtNv8HOjrbv9mZF6Zfh4S8XYPesH8rE8YAAQFoyx3RAFPDEtwIvjtzusZbUyUmLtjH84V9EBwf1kILjHBAQ8TxTl/BzaPC0d7NPz8/RcjfejeFBGcCesTPHKnlPu18CLZvKZauWM+xXPVO1zSWwFTY0Ed1HJGZvrb1RqnirotBn1ZPwrOSNVZ+Jgqa6tq7T7t3tKq79+CzHXMSaDIlSy7jB1On1wtYdA2apS2fK98iRJTC1dffyp6/5qYa1HiVpmoORS9lA+bWu3Y5xT+bH9lZzjolkqSCZo8hUo4mXxuHxhJPnfrbyULJQvfiRfBFdCuFECCO4nA8E9RiDgBcauU+bm/fLfXMyco9fK/63zvWwiqgnuWJkSDIPyOO6W922rz1XT18L0vbsS7vVAiCVKZhptBHdqsXnqOWdl9+U7rdXRjWpuzuqwJi1GvhuIPnq8SrXWxBUlQcRMC9h8iPJOP7LaQ0a43SetYXJYn9H7GQCHrv6zytEr/sjIOB5GNNKXy2jZZ2J0vDFx6FhLRVg0SwXGwhgTD8+34AwDcBIQ3E8GgnuMQMADYE6UEtwJK1OAecQWJTONpdkhndeld/R4XRmxXVCsc99iu+CcfFprwUQ0WHzso/9z6TOvf/thblmTCgxJHURT1O5GiQoNiO1RII5xwemjLlcc+6r5O9w+5SXnDP/XTV8gU8V2QVc6pcAovHFsrNHqiqftENuBqUi3yi6cYAAAUBOZb4ym7QBoAudcrEq5E+cLGEBRhd8frQT39QP5nXKJxqyUyi5V6/xQvCN9jimHU4OTb4E5l7IWFjJ2gCOLhyO//9Ylj/73r+XrCxYNab8zfhFCe5dTpp56gdIccTtRk3WJFjaylHOF6F5J1s6fHpHVLlzt/3XTF/vKS1apOMRAsBg7nEtZWrrbx0vOUK3RcmEutuVzAETERvlADQAAQEEg4AGgHZtl3BwAOrM5rtz2mejmcKdWBITh441F0QylNY7XgnG5r+hKV20du/udQq3nTHrkr7f1H331NcPEaESpwUXBieiYqabQnnVz5u+wwojbKedmqafRQR2uEG3KST0Uky988eijf/n3HSa72qfpztjaLm0eLjZazZzftX4gH0pDRABUQTaTg3sSAADUBgIeAJowY2UKDA1AV3ZwzreoMHYdBfft8938o+MN0UxOmQmi6nKquf5d7haj7JLO1EQwo4qfQ298d1/5hct7qdAgyjmHyeZzrl7QnDJl3CFa2KBmdEzG7TR4X/VDCO+dboF6Grmm4z0pUTOMapThNVro0IE/eu+EiY1RT8Vm7FDGsrRcUVKpuUNiFVeLKPGQAUDYwD0JAABqAwEPgNMSu/t2NqQzeJOaowNgTgZVMuNoJ7jLPNp5s9yPjDQa0YyoNUZrbiAu996s3Z1P61gnOT1OtutEpnbOXUKFxgpaVCfqbhB1uINGCPApfrAZG7Oonms2RLWQ0a400453ETUjMt4tGjVyP20+2dy/hY0M5Z2Mjo5oSAAAIABJREFUuC5rhTPPUGBkoVPIprRt3Hx4uN5qRWRw/UB+e8jDAUAZOOeb4J4EAAB1kQIeViQB8BxK91ninAvNbZsCQwGgVURRd4Ms8iqBrsrtvM690fFGL+fqxEM4nKjU4IG4Zld0pYeD+BxlSXOiTmfFSQK8cMCn+JMaRNCUKc33yWx2ogWNZYiN0RD2bMb7Iio4RBk+qX3OO6NJ6nCrzf0pOPnm/s1IqOJWyvhVFx22dUjXWC642wGYl3VwTwIAgLpgRRIAesE53whDA9CITSrkts9ES8Fd5tLOW20bLjZq0YyoNcYbPMvJf1RF2mJ9SzpTyXmpTEsH/ILGKuqp9zaF7KYI7+6jjPuYdMKXYhmbKACIQoAoCIhoHOFk726sbors+sftA6ITKzDyTp4WNToo3xTfR7UR3y2aelZk72nkqdPNNvcnmUzl04lwtxdbWQUGgGlIN8s6nFgAAFAXuSJpB04RANoAQwPQgTvlqgylSGl86YiDed1cf3BsrFHoK6TKjJESDmOXNxuoZnsy/pXYMztShbGqS2WnZcejOTApwqed1c/bp3rz2Jaobg0Tpwo1mv+7o/nfLjvf4zEokc1PrCpI8QpZvJtSfAmluBhLr0j6Sd5JSCgZTpRxTjRlFtdajU1Q3aqTS2o0ahbZ8+IaTfNCc6wWR68AST7d/C3Q8njUG3y0VHZbvca2yug1ABKHcLUwxq4nom/i7AMAgLII1+xOIlqDUwSA2ghDA2NsnbxnCzhdQEF2yGKucmgruK8fyO+8d+/kLiK6Yra/cVzedLmfsTClTKTHlMOpm7PJFCPfme6rutPDvzle7QtmZIaQbrp3uyjttNYUsT5L8SN9kgu4S/4D4ORrJM27iVwicbmI4k6DVanOyuQwRjyCBxJRCErxLKWou1kAsnlWhOHgLJ2MzdhgLmWtUGlM7TA0Wm+noIM4GZBohLuFMbaWiG5M+rEAAAAVkQLeBtk0EgIeAIojDQ2bYGgACrJH5f4gOjvcBZuJ6P65/kA1lzvJBqpnZv2n+YhomWVd6YmDpXp3IANLImk0MQUB8OyqC56lnBS8p0V4V/yjKjnsOLmUJU4lcll+XkFeuNUtPkyMuohRg1K8mxidiISxRVxM89pFwa0FFmRS2ortDYdPjk04rRZot8nINQASjXC5MMYWzrcSEgAAQDxwzvfDNQuAPkhDA0F0Bwohoo7WqdQk9VR0bZraRLjciWhwrr+ZdrlHN6r5qbvBNVDtzdrd+bS+p7H4gsuGFBgGAMEzLcKL5qQ5N0t5p58WOAup4CylnkaBFonM/zn+9TSyzb8V23Q7fc3P6HBPfKYVbKGoVmg1Hlw/RKPUlKVvQ4UDQ7V2VkNtDnEoAGiFbPS1C2cNAADURDa324DTA4AeyIzseXspAhAByovtpLvgLplXYBAud86pHNWAWiGoBqqClfn0hM30FJS4ZevRfBIAgzFVcGdEIzo3Sq3U3KFSueU+HbvgbgfgeWyQS00BAAAoCOdcGOiux7kBQA+koQGiO4iTabF9t+pnQXvBff1AfquOLnfRQHW0xgPJWk4x1r0yn0bnaAAAmEF3JpXTtBbZ5PBwvZ1KCNztAJyCdL2sg+gOAADqIl2zEN0B0ASI7iBmtBDbyRCHO+nqcq84nKouD0Qo705bhd6srdT+AQBAXKQtdiRrW526ngAP7vad4Y4IAD2B6A4AAOoD0R0AvYDoDmLiel3EdjJFcNfV5S4Yq/FCUNEyZ3elKaNxVjEAAAREqZBJL9b5YMLdDkBwQHQHAAD1gegOgF5AdAcRc738ndAGUxzu1IrgcGSkXnBdGolmOK3hcKLxejDRMowod+6CDKJlAACJZkEmNaVzlEyp7A7D3Q5AsEB0BwAA9YHoDoBeQHQHEaGd2E4mCe6tuNwFz4zUlYsYmGxwqrk0GcRnZSxWWNKZ0kZ0r/YsManoA4CWOB15Y05cymJPZm3rDAWG4pmnj9b62tgW7nYAWgSiOwAAqA9EdwD0AqI7CBGhbV6po9hOhjncqRXhYXS8kXMCyk0PktGamw8qWubMjlRBl2iZ6qKlLds4AQDhMLFizbzFSk0oLcykV+m8A6PjjYlag7f653C3A9AmM0T3XTh2AACgJhDdAdALiO4gBIqyQaq277tGCe6tutwPHKmlohlR6wQZLSNY2pkeimDYAACgDAsyKaZzlIxo7H1kpNHdxiZwtwPgASG6c87X4cUQAADURYruV0rRBQCgOFJ0vwnnCQTAtNiuTYPU02FinMe8AsRk2e2q1FzlBOkgo2UKGasfDVQBAEkhbbEjWdtSLjKsHY4db1iiwXeLwN0OgE/ki+GdOI7AIFYGvCv4nQGxIp2N6yC6A6AHnPMtWJ0CfCKiH9fqLraTiYK7dLnPm8158Gi9P5oRtUeQ0TI9GXsswqEDAEAsMKKRQia9WOejL6LOhkbr7axygrsdgADgnG/CiyEwiBU4mcA0pOiyFv03ANADrE4BPtglne37TTiIpjas3DTfH1SqLo2XHOVc7iJaZrQWTLRMX4ftBPE5AACgMguyqQ6do2QEg0dqhTb+HO52AAJEvhheghdDAIzDiBd20Jyn90un+w4cDgDUZ8bqFBTKQKtsE5GPst+SERgpuEshYt5mWE8frfdzTlPRjKp1Kg6nssN9R8ukLdYX4bABACByOmxrOGNZXTof+XLVPV4qt9U/emN4owEgmUgH5Uq8GAJwElq/9LquC8HdIGT/jQ2IAgNAD+SzFQploBWul1GPRmGqw51acbmLrNyh0Xog8S1Bc7zO824AxYB8Wu1TXO1ZgqWvAMTM+OqXankKLMaGujMp7QuLB47UFrbx59vWD+QhIAAQAlLMWQsxB2jMvIajNtE+PxWYx4woMKxKAkBxZhTKbsW5AqdBzOOXyNWmxmGs4L5+IC8eELfN93fHjjd6RHZuNKNqHdE3b7jm+m4AiMapAABDKS3MppTsxdEOx443irVGy41SCdntAISPFHPeBDEHAK0d7kEXH4BCSHEGcRUAaALnfDNy3cEpiN/plSY0R50Nkx3uJIWJeW/oA0dqqWiG0x51l2iiwX058HO2NRjD0AEAIFS60ynL1jy4XRR7j4012sluvxXudgCigXO+HU36QNJxXVfnl2D8XhrOjLiKeU12AID4kbnuK1EQBeK91rS89tNhtOAuhYkt8/3dZNntKlXcI9GMqj3G6zxbVdCBDwAAcZG1raGOlJXT/QQcOlpPi2izFim28nsGAAgO0aRPRsxgGTTQhTAEcl2LThDcE4CMq9iIiBmgIYmco+Q9KwplNykwHBA9gzJCJhGrtk13uJMUKOZ1eQ8+U1usYgNVwWiNFxqcygoMBQAAYqWZ257WP0pGNEotlpx2YsM2rx/IG+0AAEBV5EvBJXC7Aw0I43dCV5f7TgXGACJCRsxgVRLQiUQXBTnnW/BslThEj6S1JkfInIrxgrsUKOatnqjcQFUYII9V3RxEdwBAwikVMql+zZNkSBR322yUOrh+IA93OwAxIl4O4HYHGhCGyKzli7HruhDcEwZWJQGgF3i2Sgxi9dGbRI8k0yNkTiUJDnchum9tJSdKNFCtN/hwNKNqj2nRvezwyVY3dDgNFetORpFdmJVaQXuzKgBaUyuceYYO41+QSbGUAY2gjx1v2G02St0Y3mgAAO0ww+2O/FGgHDIfN2h0FK5xfyYYzNMA6AXuWaO5UzZG3Z7EnU+E4C7Z1Mof7T9S64tiMF4QovtojedHalz896zCu8upWKzzypGK219xuPLnGII7APHCrVQ70Sax0GFbw1nbUn6c8yGKukOj9Wwbm+xaP5CHSw8AhZCOrOn8UWQGA1XYEcY4ZOPUeeM5FSORL/bgOTBPA6AXuGeNQ0QFXZlEV/tMEiO4rx/I75bVlTmpVF0aPt4Yine0c1NxOD1TcfPDVU4TDV6sOHxoyuGHJht8SPzfnqm4hckG7xAfkrKY9gIVACDZpCw21J1JKVsMbYeDR9su6sLdDoCiyPzRla08XwKlKUqx+lb5b5umL/thisy6CdgQ3EGTGfP0NhwRLdkmoyjY9D8iOiesAiOIH9yz2iOen24VUUEhrbrTiiQ53Elmuc/7AH10rNHvuFz5B+2qy2m8zgsjNd4/VuNLi3XeL/5vM8lYVnfc4wQAAK8wopGFmbQRy2DGxp3hUtltZ5Nb1w/kE91QCQDVEa4d4d6RAgCWQuuFcG1fL5c6bxBL2uW/jfJlX7dM2TBF5q0hfnbQ7HJdF7+d4FnkPC3u6yvRoFEbhNh6jjhvp0ZRiKx+jZs5gxaYcc8iZkYvtslnqnl7aCaFRAnusoHqvG5B0UB18EitEM2owiVrW2QxVjFhXwAAiWNyYTbdq3uTVDrxu1J8ZqTejrtdCEFolAqAJshmfeukoIOXQ7VpCu2cc/FSuPV0S53ly/5meT51cLtvC3PJtoyV0UWo1Kk4ACJEuC1lg8brNYxJSgrTMRQbpbAOEsyMmJkrcc8qjXjuvUTet4mNjzkdSXO4C9F9eysvQsKFKNyI0YwqXBZk7A4T9gMAkCy60ynbhCapAlHEddy2GqVukkViAIBGSEEHwruaCOH8pmmhvZURyuXQ6zQQ3aNwk+lQBB50XReCO5gTef+vlatYkBWtDoihAKdFPlutRLFMOXbJAtk6URxJ+sE4HYkT3CUbW/lxFW5EHaJl5iNtWZRL2VVVx+d05BUYBQDJpNy/Wsn9zqXsoY6UlVNgKL7xECWzQxaHAQCaAuFdKYpSWFsps2HbQr5EblJ4/26NwgkqhWzVhQ4sYwctMWMVy0oI77EzHR+D+xfMiVyVBuE9fmYK7SiQzUEiBXeZiTvvA7dJ0TL5tJ3N2lZNgaE8j4kVazBZAvD/t3cvQHbd933Yz9n3AgtiAYIC3wApyrEkrwD6JVuKtUtPEtlrpoQmihO7dgW2dhV2mhGYbCePiSMw02ma6cYE3Zk6KdMIaJMmTeMxEMt0lE4irNU6TiaJANEPyXphSYIExMVjSQD73tP5g/+lLsHF7r137+Occz+fmTukROy9//M/9y52v+d3fr82Wenfnru97+vuenmot7sUfdvraCUzm/NgB6iB4L2tKoP2o1u5zTlWxOZxgNvZFlee5/nvpynV7dRK8N5WlX3atY+harcE7+YytI6gvUadWuEeQvej1Xw4y9Vapqevv7vrWg6WArCurjSduaO354Gy7E4drWSOGpQK5VMRvD8UQwahTvOs9Wgf3mrQfosjOauoC++hlvZLXV1dDXdfnWrV69XIxWrqtha8h+8bqmebajpe2NglaGerYvB+MBY15PXvpjI4EXu0C9pr1LGBe7TpANXgldcX9ywtZxdbsaBmu6OvZyivle5AZ0uT5NLu/t49ZRiSmtTXSubs+MiQQalQYnG46uFYTakyq7FOxcqrqnu01yIG21X97tAih9vUM7Wq1pwt9nQc7ApbVlE9K8RrnKmKYdWNuBBqzhFvi0UNh2JRw3OKGhpi7eLY2l0o/o6tQ0cH7uMjQ2fim2hT5y4slqK9QfLdSnehO5An14f7e+8sS9heRyuZJGdBDtBEsZpyrTLrUVXvdav8hfBQsyuv4vM/3dxDqkoIrtoy62N1dTUEXYfa8dq3cWJ1ddXFahrulhDvGVXvNav8/jzW4Auhwj/eJRY1HKm4U8UFs9qFPftExcUxd6FsQadXuFfdWmZ+YTW5cGnpSmtW1XxCdyBPdvb3JD1dJUnb62sl80y8CAx0mFA1FKuHwi+In8hpr/A8mY179Fg7fiGMg1fbdY5m423dbe1Vvrq6ejqGGe0W+ra7WE1TxRDvaEXVuwuktzdb0X5CYLcxVfpNFIsa1i6YPe2Owg2djXu0VrzQlgv6ZdTxgXtU1Q9qr19d3jW/uFqKfu6J0B0IFxPvfOBSu/dhR2/PXF9XV/6mt9bp8hvLb9bRSuZono4BaI/wS04M39OK8F2w890Q5xOxN/vhdvYRjW2BWh26h5YMB/NyW3ccUNrO0D1Uto+18fXpQLHq/dYLpJ3+PXo6tvGo/P7c7O9T+5v8/E2nRUdrxAtmx+IdhcL376oM2Q/GPXJxrMEE7jW2lvnW+cU9WZbMNX9VrZGH0P3GPX/M+xDaZH7Pg20dpDzY031xoKdrsCznf2k5mzn/+tKOGr/MoDfgXSrC9+FYVflch/2SeDYe82MVIU5uqq5i6N6K9jIhzHs6tmTI1S/DMXR/tA2B4zMq22m3W75HfyJ+v+qUtjNT8fvfWiX7kRZ/fy584E7rrRO+r7Wd6ZSLZqeE7K2VZllNt7yX2gsvXgvB+4HNjnFosOv6Q/f2l6YaM3hjcXlxYWW1rx2v3X/l1ekP/L3/cl87Xhs63St/8qnp13/wibZ8/vq7uy7f0dezuyynIMuSG984v7AttCCrwTOq24FapGkawp2xisemP7sWRAiqTq89ivJLYJqm4Rf34004DyEACO1rjjVgwGBTdXV1Dcc9eKLJLxXeI4djSxvIpTRN99/yPboMv+eeveX7c1u/J6VpGn52/mw717BV8U42ciJN08rP7GhJzsvZis+sNjFt0NNxR7yxw/ENuXOjP3VtbnX7lTdWZnbd0V3rQLzcCpXubywuX15YWS1N+FV4Dx9Isu//kzPpb/69PclcW4uQoeH6urtevqOv54Ey7eyFy0tdNYbtWskANYtBx8n4WAvgD8ZfEg/GR94Dntk49O702j/zHirfTmwLcDBN0/B7xNEG7P10DNqPF2VP1gapdnV1jcU9aHRYEfbkaKyoh1yLFwuPx8daAF/5PTrvYd50/L689r3ZBS5KL77P336vxwC+8nNbpJ+rbv5sVdSfq8pE4F4htJZ54cVr4YfEZzf7s6+8vrhnaNvATG9PWqbQfbfQPUeuXEySH/rJPdn3/fHZ9H+d2Jm8+o1O3xFKojtNL+8sWdh+fW51Zubqcq1/H7gdHtiy+AvVO35RTL77y+L++Fjrdd3qoCcEN+fiL4Fr6zxXxluY4yDT42mahiFta48Ni3gqrFWhHS9yX99YeT7W1dW1P7ZLO7TFkCLc/n58dXVVZR6FFb/fnVu7SJp8N4Rf+9689u8Ha/ie0QhT8TlOx/WdE67DWyoC+HABvLK44WDF57XVn9mkIlhf+74iXM8xLWXW8cKL105Wc0tkX0+afM+DA3NpmpSm/3DyVnuZlobuWsrcXvZ3/vV3/9vpfzqb/tbzrf6GXnwf++n57MH330j/0TMuJK2j1S1lQti+q793d1qimyizLFn4w3Pz/SurNf19qpUM0DYxjE8qgp414ZfH4RrWtRakJ/Gfa2FxKUP1WsV2M2u/mN+qIwKuGL6P3XLhZ/iWFjxrwd/bAYK2MXSqijA+qfjMJPFzs973kvVUfj9OKr9Xl+F7jpYy5En8u374lp+p1vt56ta/+5J4wf3WsPwdP0/Fx1WDdotHhfv6Dsc39Ybh5uJylrx8cTF78O62tD5vGpXuOXLp/HRy531vhaFjf35nduCxy+nf/0u7kysXOn1nNjc4lGT/xd+aSR4+sCeZv16aQceNtrxt50qrXqsrTS/u6u/dW6awPfj2awu1hu1TwnagnVQxtkb85fhMZWVrp1ldXV1rrwFUoaIiPrn1ziXeVsuFYWgqQTi302Vn3m18ZOhqvAVyU7PXV7bNXF2+mKPlN0QI3cNAw1a81krfYG8rXqeQLr22/I5l79q7O/vvTtwIVdudvjUbCv3v/8Y/n78ZtgcD23fldq1tduOe7+luxQq60uTl3SUM21+/ujx7fa6mvu2zWskAAEDdqq30B2gbgfttjI8MhavJz1XzZ1+7tLR3fnFV6F6n5e277m32axTW6y+/+y6U7p5t2U99eiD7C8cuhCpu3in75MRM9ulfTpKe3oF3/Id7H7FT7TO3s6/3gbKF7fOLqzMXLi3V2ubpyPjIUMe3WQAAgA4168RD+QncNzA+MnQk9lTa1LfOL+5dWc2u5PE4tqKVle68W/p7X7p9b+2HRu6+WcU98rEbtu6tQD37a/90JgyaXfe/z11r+ZJ4a+d39fcO9nSVK23PsmT+W+cXax2SemJ8ZMht9QAAUL+it5TRggQ6gMB9c4equQIZ+vd+69XFXVmWXM/BmhtK6N5GVza5caKndyD7uc9uyz79yzOdXO2e/eQvzmaf+ftJMnzX7QNQfe/boZRhe/JW3/aBGvu2T4fq9uatCAAAOsKtgycBckfgvol4639V/XbnF1aTV2eWSrmnMXRfzMFSOku1IfHDB/Zkf/X/vJI88v2lu+CzobWq9rE/v3Fbj5VlQ1Nbr7Rh+2uXluZr7NseHIrzQQAAgDqkaWpgKlAIAvcqjI8Mnay2n/vlN5YHr7yxMtPuNTfDHX09fUL3Nrh0frqqFx3Yviv7xf9pe0dUuw8OVVfVvub8H5XyM5ljpQ3bZ6+vXJ65ujxQxR+t9PT4yJBbRwEAYGvKMDDV7wXQAQTuVaqln/srry/uKeMQ1UTo3h6XXluu6XVDtXuZe7s/fCDJ/so/mt20qr1C+vu/Y7rsbSzsuvf2cwLqU9qwfWk5u3z+O0u7a/yyU+MjQ8eatCQAAOgk+0twrO56hQ4gcK9NVf3ckzhEdWk5E7pX6dqDH2rmkovt9Zd7al7/Wm/3p//BxWTX3eXYh113J9lfOHYh+/QvJ8ngjqrD9pvOfnFX09ZFpdKG7VmWzJ27sLi7xr7tZ6ttSQYAAGxK4A4UgsC9BrGf+6FqviKEMucuLO4NIU1e1t9IIXQf7OleKM8R5Vf6e1+qvwL57of2Zn/1HyfZ409dLGybmdA+5pMTM+E4kodGar96cPX1GQNTm68rTWd2D5QzbE/eGpI6GOZ01CBcnD2sbzsAwMZCX+40TcfWeZQhXKWxxkqwn1rKQAeovXK2w42PDJ1+4cVrTydJ8uxmOxHCmW+eX1h55P7+Um7aUG93fwjX3lysreMJNZpvwBzUH/vk3uwjh+bSf3V8Pjn9T4pR7R2C9rGfmU1+7JN9SXfP5n3abyP91//79mYvtdN1p+nlXf29e9JyZu1rQ1Jr7dt+RN92AIB3i0H6WCxmC/+87d2raZqGIobT8XE8yzLFDJ2tDD3cvYehA6hwr0Psx3uqmq+cW1gdOv/6Uimr3IOB7q5kR5/rNk316jca8+zdPYPZT/7Cruzoydnkh8fz+55cG4j6S782d7NPe3fP4Jae78Xf3trXs6H+7q6Lu/p7d5c1bK9zSOpz4yNDx5u0JACAQkrT9FCapifDzYNJknwuSZInNgrbo53xz4WCtytpmh5X+d6Z4nmvrbVoDmVZpigHOoDAvX6Hqx2ievmN5cGZq8ul7OeexND9jr6eJE0SLWaa5Y1LjXv/DO7Ymf2ZvzyYPfMvriRjP3MlN61m7n0kyT71ty5mv/RrNxoStAevv3Q+mbvWkOXxbgPdXTN39PXsLWvYHoakvnRhsdYhqVNxyDYAAG8FpYfTNA3tWX89hudb8akQ2Mfgfdj+dpQytJOZzsEagBYQuNcp9uU9XO0Q1dcuLe0NlZJ5PJZG6O/uSob7e/vTJGnoMFWiqxcbv68D23fdrHj/pV+bC0F3CLxbLoT9Pzw+l/21fzqTfebvJ8kHPro36e7Z1qhlpP/hXzXsucpobu976z2qGzt6e+Z29NXf6ifvVlaz2a+/vFBr2D5d7ZwPAICyS9P0YJqmp2M1e/1zqdYXgvdzIcz3RuoYZQjcz+VgDUAL6AWyBaE/7wsvXgvhyhereZZQKfm+B/ovDvR17c3rMW1F6Oc+3N/b98bi8rWVLKupbHph171zQy99ReuP23n5a6vJgx9oznOHSvIPfHQw+8BHk+TalVfT3zmVJH/4b+9tWCubW+26O0kOPHYl++BHriUPfuCBELvHR+O99AfF6FffJiv9tbe3D8NRd/b17CnrcNTk5m2eydy3Xl3cGYZf1yBcfD1kSCoAwM2w/WiSJJ9t8laE9iKfC8NWw/wc/d1Lz8BUoDAE7ltUyxDV4FvnF/e+74H+y709aa2Vk4UQQrhd/b1DVxaW5layrOoQde49D32nCVUPpZF+88v7so9+ovmHM7Tr3uxPHU6S8Fi4cSmZ/oOr6e//v8PJd166M/lWVR2U3u3hA0ny4AeuZA+NXEv2f99QqKwPsXt8NFe9a2ZdoYXMUG9PaYejrvn2awuDYeh1jQxJBQA6XuyzHfq0H2jhXoRq91BNPyZ0L6dwt0RJ8gIV7tAhBO4NEIaovvDitYPxL/oNhYrJ0Kbge/cNXOrqSu4s8nHfTgjjdg/0Dr6xuLy4sLLal89VFsyVNowA6N92Z/I9P3hn9j0/+N3/b/76leT61TeS67NdN6vubzWwvSfZ/8Hlm//v8N73VPRhb03ATlOkSTK/o69ntb+7q7QtZNaEIdfX51ZrvePiGUNSAYBOF0PR020abBkC/tNC99IqQ3V7osIdOofAvUHGR4YOx9B90yv5IXT/5qsLdz5yX/9cmjaplUYO3NHX0ze3vJJcW1op6yG2TrPau9QqVKeHx533JU1rcUOu9HZ13WwhU/aq9uA7V5YXwpDrGr/sxPjI0NEmLQkAoBDaHLavEbqXVyl69WdZdjoHywBawNDUxhqrdup0aFfwjfMLg1mW3CjQ8dVssKc7BO+hQnahYEvPnbmZC5c6fQ9qFvrFU5c0TWaH+3uS4f7OCNvDUOuLl5f6a/yys+Fia5OWBABQCDkJ29eshe7Dxdg9NhPfX61sUdQs+p1CBxG4N1AclncoDs/bVAjdv3l+IYzlu1aG47+d/u6uMEy1vztN5/K5wmL44YMj137ko388+bvPPju7uLhoLzcR9uiPFrpzvcZ2m7/zgfUu4sxt6+me3TPQt7O3qzP+ighhexhqXeOXnS3Rra0AAHWJPdvzEravEbqXS1kKXLSTgQ4icG+wODTvULXPOrewOvTq60ulTwXjMNXB/u6uxRwsp7DjS69EAAAgAElEQVS+8pWvJL/0Nz+788Cj3z/40ksvX+70/bidz//mb17c9/B7By98/av5XGBOzO958B0X+wa6u87vGegb3N7bnadfmJpqaTm7fP47S7WG7eGi6uF4kRUAoJOdzFnYviaE7sfysRS2SOAOFI7AvQnGR4bCFf4nq33m0DM4DOor0jHWI7SlCH3dd6zTYub6fe/X6L0G0y+9lHz4Ix/ZLXR/p4WFhfk/9zM/m/z0n/+ZvbOzVd1owlt3oVzcPdCb7Ojrua8T2sesCWF7GGId5mrUILyxxuLFVQCAjpWm6dGct/r4VJqmR3KwDuqUpunhnF7QqYf+7dBBBO5NMj4ydDxJkmeqffZOCd2Tt6po11rMvF1duzIwpPdHjUKgLHT/rhdffHFm/3sfGfiNz38+L0vKvcHl+eUQtN/R17O3u5OS9vrD9iRWtgvbAYCOFtu1FCHMfjb2AKeYjpbkvM1mWeZ3COggAvcmGh8ZCn85nKj2FTopdA8tZnYP9A4N9nQbplql9w0PvOvzGkL3j//kT+7u9J7uJ0+duvzhj3x0j6r2Gr3nwVc6LWgPsixZqDNsf3J8ZOhkc1YFAFAoRwpUeXxSP/fiidXt+0pyOKrbocMI3JtsfGQo/CVxqtpXCaH7qzNLLxf1eGs11Nvdf0dfT5JsH/YD0CYevmNgdb0/EdrLfOyxHx/s1ND9v/lv/+Lcz/7cz6/bg/tj9+1o/YIKZOnu997RacecZcncN84v9NcZth9vzqoAAAqnSK1a9pWoUrqTlOmcCdyhwwjcWyOE7merfaVLs8sPdFLo3t/dldyxc7hjhjTW6/vuHHzP7b40DFMNofsrr7wyk/sDaZBwgeFnf+7nbxw/cWKwFAfUBqtDuzsqcI9h++D8wrrXrjZyQtgOAPCWgvbV/kyapmM5WAdVKFl1exKHCwMdRODeAuMjQ1fDkD2h+8ZWB4byvLy2e+/OgQ2D5RC6/9CP/OieTujpHsL2cIHh5KlT2273Z+7Z3nuxtasqntX+be/tlGPdYth+uDmrAgAopKIG18e1lsm/eI6OleiQprMsO5eDdQAtJHBvkYrQveom050Wui/d80gOVpFf1bRHWRukGnqal3UfwgWFA49+/2C4wLCRB4b6F9u91jxb3nXPm51yrMJ2AICGOlTQ7dRaphiOFvAOio2obocOJHBvIaE7W1VN1XYI3UNP87/+N/7GfNk2/MyZs1fDBYXQt34zP3L3UF+715tnS3sf+lYnHKewHQCgcdI03V/wMDS0linqBYPSS9P0YDhHJTtO/duhAwncW2x8ZOhMPaH7+deXLpVlD25n6e6O6W5Rtx+/f+dytV977LlfGfiRj/7x5PLly6WoZP7f/uE/fPMjP/Zjw+GCQjV+av/w3navOc8W9x8o/R0AWwjbp4TtAADr2l+CbdFaJr/KNjdpNssyFe7QgQTubVBP6H75jeU7z7++NFemfbjVytDuqvejUz3x8PB9tRx6aLvywQ8d2PF3n322sHu7sLAw/+d+5meTv/iZI5v31KlwYM9t27sTWsrsfM+NMu/DFsL2swW+TRoAoNnKEFTv1OYjf9I0Da1kDpTssLzPoEMJ3NukztB9sMyh+/JdD5auBUqjfezeO2p+xlAR/kt/87M7Q7X7iy++OJP3Y6z021/60sz+9z4y8Buf/3xNX3f/UN/Mzv7uZi+v0Jbufm/tb6aCyLJkYQth+1hs/wUAwLsdLMmejKZpWqbBnIWWpmnIRj5bwkMTuEOHEri3UQzda2pbUObQfXn4bgnpJkKI/MN7h+rq6R+q3T/8kY/u+Ynxn0r+4A/+YNNe8O0U1hfW+RPjP7Wn2hYylf7EA2WasdMcq4M7Svn9f2k5u/yH5+b7he0AAGwi9HPXRrDNYnufsrWSSbSTgc4mcG+z8ZGh8A34yVpWEUL3ly4s3siS5FqZ9mJ1+/BKDpaRe4ffv2fPVtb421/6UvKDH/6RvSHQ/v9+53cu5OV4FxcX577whX/1clhXWF9YZ72eGnnPlvaoE6wO7Cjd0IQQtn/95YXdK6tZrV8qbAcA6EzH4qBO2ieE7ftKuP/CduhgaZbVHEzQBC+8eC1cWf9cLc880N+VPHJf/1yaJoNlOSf3/80fz8Eq8m12YSV58HNfnltczRpy3vc9+GDyZz/5ySv/9S/+wsr999/f0qD6tddeu/hvvnh6+V/8xm/cV2vbmNvZ2dd95cIvfP+uZqy3TF75W/+mVMezhbB9KvRsF7YDAGwutv74Ysm2KtxSuz/LMj8Ptljs217GVjLBo1mWncnBOoA2ELjniNBd4F6tn/6tr1/8jW9f3dvo5w3h+2OPPTb3xJ/+0zM/+qM/MnTHHXc0LLh+4403rnz1a1+79ru/++/6Xvit39p79itfSeppF7OZw++/a+ZXH9uvwn0DqwNDyat//V/kdn21mr2+cvn8d5bqCdtPjI8MuY0YAKBKJQ3ck7U7HoXurRPb+dSUfxTIdJZl+0t6bEAVBO45U2/o/tA9fa/2dKf3Fv347/rcX0r6v+0i8Gam31xIvvf/+ErTX2fnzp3JgQ99KPnhH/qhK/fcc88bDz/0UNcj73tkw+bYly5d6vqP//E/3fwzp6em9oVQfSvtYWr17376g8mH9mxr2esV0fz3fPibMz/3t0vRUiaE7S9dWNxdx5cK2wEAahT7bV8p6b4J3VsktvE5HX7lLOkhPp1lmaG80MF6nPx8GR8ZOv7Ci9euxj5mVf3lE4YD/tFLC/e+74H+y709aT3BEwWzb0d/8sHdgxd///Jcw6vcK62F5b/9pS+FSvfct2l5cEff5Q/t2eYzsImsq7sU8x9eu7Q0P3N1WdgOANAiIYxO03S2pEHpgRAChyp+oXvzdEDYnpR0CCxQA0NTcygOUh2LveSqElophP7FN+ZXXy7ysS8P352DVRTDL//YvqaG7UX0V3/g3tLMM2imld33DhT9GM6/vjQ3c3W5nuMQtgMAbM3pEu/fWug+nIO1lE7c15MlD9tPuGADCNxzanxk6Ew9ofs3zy88EFosFPW4V4ZlyNX62H07bla5F2O1zTfc3zP75AfuErhXYeGBD17I/SJvI8uSua+/spBcfmO5nnP9tLAdAGDLyhy4J0L35oj7Gd47+8p4fBW0kgEE7nlWT+gehH7GM1eXCxnErg7eMZ2DZRSGKvfv+h9+9P6+vKyF5lhazi5/4/zCYGijVYcnx0eG/PALALB1ZQ/cE6F7Y1WE7QfKdFzrmMqyzFA6QOCedxWhe01B9GuXlvaGlgtFO96Ffd9X5lvLGi5Uuf/ph4Y7vspddXv5zS2sXg1ts+oI22dj2K6PIgBAA8RAsRMKpdZC94M5WEthVfRsL3vYnqhuB9YI3Asghu4H49T0qoWWC994ZeFaaMFQmINNu5ZzsIpCef7HH97b15UW7uJKI6lur83iAx8o1LCEK2+szHzjlYXh0DarRiFsHxO2AwA03MkO2VKh+xZ0WNg+nWVZp3wugE0I3AtifGToaqx0ryl0n1tYHQotGJZXsleLcKRZ38D1HCyjUHb2dyfP/Mj9aacef+hjr7q9NllP33wh1pklN8KdOq+8vrinji8/G8N2t3QCADReJ1Xyhruwv5ymqVlANUjT9FAM2zvlLvajOVgDkBMC9wKpCN1P1LLq0ILhj15auHd+cTX3rUeWd99X9gEqTXHk4N0DH9qzbaaEh7apf/gnHtbHvoRWVrPZb5xf2FbncFRhOwBAE2VZdi70q+6wPf5cmqbH9XXfXJqmR5Ik+fUOCttDdbu7aoG3CdwLJoTu4yNDh2sN3UMrhq+/vLB39vrK5U7fw7L6Zz/5yJ5Oay3zlx+9Z/ZDe7blYCU00vzi6szXphd21jkc9UQM2686KQAATdWJ/ao/pcXM7YWLEWmahrYqz+Z1jU2iuh14B4F7QcXQ/claV//ShcXdRRymyub27ehPTvzJ99bc5Lqo7h/qm/nvf/R+Q3brkPUO5LaH++tXl2e//vLCnjr6tQfPhe+NwnYAgOaL/ao7YXjqrQ7EFjNC1grxIkS4w/SJ3CyqNVS3A+8icC+wOAjwyTgYsGp5H6a68JBigXodeu+ubYfff1fpW8v0dqU3fm38ffX09eZm4N6fuzY8WZbMT19YTC5cWqr3IsqT4yNDRxq8LAAANtbJofNn0zRV7f5W2B7eB18OdWA5WE6rufACvIvAveBi6D5Wa+gehqn+4bn5waXlrCP7fpfZrz62f8/Bu7aVusL3uY/tS7WSKY/QQuaPXpofeOP6Sj3HFL73PRq/FwIA0EKxsrcTq9zXjK5Vu3dib/c0TcfSNA1V7Z/NwXLaYUp1O7AegXsJxMGA++OgwKqFlg1fnZ7fo697+fzL/+x7hx/c0VfK8xoq+J/8wF31DNIkh9ZayCwu19VCJnzP2284KgBAW7nL8K3A+UyapodzsJami73aQ9D8xdhip1OpbgfWJXAvidizeKzWYapJRV/3LEuu52E3lodz2166MHb2dyf//qe/b/dAd9dCmY7r0Ht3XQ4V/DlYClu0sprNfuvVha20kDEcFQAgB2Iv9ynn4mY7lc+Fiu9Q+Z2D9TRcDNpDyHwuDpDtZKeyLDvd4XsA3IbAvURC8BSHqT5T61Hd7Ot+fmH70nJ2sd07sjKcu/bShRRC96k/8/7+vq60FENyQ8X+3xt7aHcOlsIWXZ9bnfna9MLO63Or9T7R04ajAgDkiir37woV31+M/d0P5WVRWxGD9iMxaA/V/PUWzZTFrPc8sBGBewmNjwyFK86fqLWv+/zCavL1lxf2vnF9pe2hO40R+px/6ZMfGOzvTueLvKUhbA8V++EiAsUVBjW/dGHxxrdeXdgTWlrVIXxPe2x8ZOiYtwEAQH5kWRZa/D3nlLxD6O/+62mangutZorY4/2WivZnBe1vO5Zl2bmcrAXIIYF7SY2PDJ2MLWZq7us+fWFxb2wxc6Mdu7M6eEcnD91puBC6n/3ZkYGi9nQPA2CF7cUXB6MOzl5fqXfa7Vq/drdtAgDk09EOH6B6OzdbzYTQOvQ9T9P0YD6X+V1xGGro0X5FRfu7nM2yTO92YEMC9xKLgwTr6useWsz80Uvz25aWs5lO38cy2Lej/2ZP96KF7qFn+7/9sx8cFrY3TqtnJIQLd69dWprfwmDU4LnxkaGDWsgAAORXlmVXtdnY0M7Y9/zLser9WJ7C97CWuKZzcRhqp/dovx3vcWBTAveSq+jr/nStRxrCsa9Oz++Zubrc0hYzK8PvGWjl63WKEFp/7ecP7A4hdhEO+W9/5IH5f/LxR/Rsb7CV3fe2bDhyrGrfNnN1ud7PdGgh84nxkSE/1AIAFEAcoHrKudpUqHr/TEX4fjy2ndnfqgXEdjGH4muHkP3LcU37WrWGAnrOoFSgGmmW1V1xSMG88OK1cPX8ZD1/gQ70dyX77+672NuTNn2iae9rX7+691c/Xbj+dkXyuT94fe4zvz2dLa1m9bb3aJqB7q6FU49/T//H7tvRceelFea+9yNnL/3sf3+gmS+VZcn8qzNLWbhTZgtPE1rIHBofGdIbEQCgQGKv8nPakNQttOU5Ex8h3D231X7h8ZwcvOXR1N8JSiicl4PxTg6ADQncO8wLL14Lf9GGXmxP1HPk99zZe3HPcE9TQ3eBe2tMv7mQ/PRvfWPmKzM39uRlTR+7b8fMP/uJ9+3RQqZ5mh24X59bnZm+sFjvUNQ1z6lqBwAorlA5HQaGOoUNNR0vZCQxiN9ICNSH40Ow3hiPqW4HqiVw71AvvHjtSBxqU3PVQax2n+ntSZsS1ArcW+vYmQvzn/3dV7LF1Wwr1chbMtzfM/t//cQjO1W1N1+zAveV1Wx2+sLizutzq1t5mtBC5nAc+gwAQIGlaXqy3kIvyJnQSkZBEFA1Pdw71PjI0LE4UPVsrTswv7B6s7f7hUtLV7IsaXw/6O6ehc49M6135ODdAy89+ejgL3zwrjdb/eJ9XencX/mBexde+68eFbYX2OtXl2e/Nr2w1bB9KkmS/cJ2AIDSOBwLKqDIzgrbgVoJ3DvY+MjQmfGRoXCr2XP17MLrV5d3/dFL89uvz69eaOQuZj198x1+aloutHD5n0f37/jqz38oCUNVQxDezDWEivYwFDUE/Uc/fF9/PneFzYShqF+bnk8uXFraucUWMk+PjwyNhSHPNh0AoBxir+tDTicFNhsvHAHUROBOEnslPxZ7wtVkcTlLvnV+4e5vv7pwPbSUsJvFtm9Hf/JPPv7I7hCE/y9j++fuH+qbadQBhRD/J/btfPmf/eQjSahoD5X1erUXU/isf+vVheTrLy/sCd8DtiDcYfNovOMGAICSiT2vn3FeKagjWZadcfKAWunhztu2OlA1uGu458re3b0DaZrU3Q+85/L56buP/fw+ZyYfwnDV//vrl6/8xrevXjs7c/2uhZVsoNqF/bFdA+c//uBwz0/tH96rZUw+bKWHe5YlcxcvL82Hu1sacDDhzpqjqtoBAMovTdMQvI861RTIiSzLVLcDdRG48y4vvHjtUAzeax6oGnR3pcl7dvVc3DPcs7eerxe459vswkpydubGzTX+5rmrF5dXs5stgHq60oEQrId/33dH381qefKn3sD9yhsrM69dWtqzxdYxSbyTJgxGNeEfAKBDpGkairvO1fs7JrRY6Nt+0KYD9eqxc9wqDC184cVr++utdg+B3GuXlvZeml1O7tnTe/GO7d11Be/kU2gDs1at/rH7dji3JffG9ZWLr80s7V1czvY04EhVtQMAdKDQzz1N07EkSb7s/JNzoVXumJMEbIUe7qwrBGLjI0Oh0v0T9fR2T2J/9+kLi3vDUMUQ2tlpKI75xdWLX39l4eZneIt92pP4PeSxMC9C2A4A0JliL+wnnX5y7GbYHgf+AtRN4M6GQrV7kiQHY2VqXWoN3tPF+e3OCrRHCNrjQNS98wurjVhD+N5xUAsZAACyLAt3UZ/o+I0grwxJBRpCSxk2FStSj7zw4rUQvh9LkqSugYtrwXvo8X7Xrp7ZPTt7+tYdrpqtel9Ci4Wg/dWZpb3X51Yb1SZIr3YAAN4lDKKMPd1rbl8KTfR0vCAEsGUq3KlaCM7GR4ZCtfvT8VaruoQe7xcuLe38vW/NDZ5/fWluaTnTbgbapLKi/fpcQyrag2dUtQMAsIHDYTClDSInTmRZdszJABpF4E7NxkeGjsU2M1u+FfDyG8uDX52e3xt6Ra+1m+mav77srEBzNSloD780PTo+MmQwKgAAtxV7ZI/VOy8MGiiE7YdtKNBIWndQl/GRoXOhKuGFF68d30qbmTWhV/Rau5kHz726cJfTAk1xedv9gyFob2DrmCTe8XI0XowDAIBNhdA9TdNDSZKEuyJ32jHaYErYDjSDCne2pKLNzJNbaTOzJrSbWb1+TYU7NMnXHnliqIEV7cGpJEn2C9sBAKhVHFA51ojfJaFG4e7cQzYNaAaBOw0xPjIUKt33x97NW3LlPR9Q3QBNMDe0N1kYHL63Qc8cbv99bHxk6JD2MQAA1EvoThuEsH0stjYCaDiBOw0TQrfQuzlJkoca0d8daKzz7/3xVxvwhOEXoWfGR4b2G4oKAEAjCN1pIWE70HQCdxou9HcfHxkKfdAeDT3Ran3+LO3SUgaa4DsPfHh+i88aLqQdjBfWAACgYYTutICwHWgJgTtNMz4ydGZ8ZCj8wPRYLcH7Sm//dWcFGu+NXQ/dXeeTTsX2MYfjwGQAAGg4oTtNdCLLsoPCdqAVBO40XRysWnPwDjRW1tWzrcYnDH3anwyfX+1jAABohYrQ/awNp0FC2H7YZgKtInCnZQTv0D6X7x6p5bVn4wDkg3EgMgAAtIzQnQZ6RtgOtJrAnZbbLHhf6R4YcFagbd7u0x4GITsNAAC0Q2z9EX5vPOUEUKcnsywzfwpoOYE7bXO74H1h2+69zgo01uC172z2fOEz+JA+7QAA5EUI3bMsOxSLQqBa4Y7dx7Isc7cu0BYCd9quInh/yA9S0ByD1y4m6eryjXWefG0g6pigHQCAPIotQZ50cqhCaEMUhqOaQQW0TY+tJy9i2Hf4yt/5dLh18DNODDTWzkvfuHT1ru9dG5waqj5CNftJ2wwAQN6FauU0TUNv9xCk7nTCWEco4DsS2xEBtI0Kd3Jn+PWv+ssRmuDh3/vnD8RnDWH7mLAdAIAiicNU9683C4yO93S4E0LYDuSBwB2gQ+x96d8me179T9+MYfsZ5x0AgKKJfd1DS9JnnDySJJlOkuTRLMuO2QwgLwTuAB3kh/6fX+oRtgMAUHRZlh0Ns4hi4EpnOhX7tfv9BsgVgTt5dNBZgabZl02M+owBAFB4cTDmwRi80jlCi8xPZFl2SAsZII8E7uTRsLMCTXXI9gIAUAaxxUz4+fYTMYil3KZiVbt5VEBuCdwBOo/AHQCAUokB7H7V7qUVLqY8Gfr3Z1l2rtM3A8g3gTv5s9i/31mBpjqQTYz6nAEAUCoV1e56u5fLiXAxJcuy452+EUAxCNzJleypxw8mS313OyvQdKrcAQAopYre7s84w4UWLpo8lmXZYb3agSIRuJM3R5Ik6U9WvTWhycZsMAAAZRWr3Y8mSfKQNjOFE9rHPJ1l2f548QSgUNIsy5wxciF76vEwLPXKzbX0zydJz5ITA82y0nUtudb3QPr8F1SKAABQemmahoKTEMCPOtu59lw4TyragSJTRkyeHHl7LSvdM84MNMlbYXvyjs8cAACUWKiUDgM3w+BN/d1zKfRpfyjLsiPCdqDoVLiTC7G6PUwa33lzPV2rF5PB63udHWiwla4kudZ3LUmSoXir5n5V7gAAdJo0TQ/Hivd9Tn5bnYgV7ec6eA+AklHhTl4ceztsD1a7hO3QaFmaJNf7rsSwPYmfOVXuAAB0nCzLjoce4Sre22atov2wsB0oGxXutF321ONhevyX37WOweuh0t0JgkaZ6z2fLHbfd8uzqXIHAKDjxYr3w3q8N1X43eN4KLgTsgNlpsKdPDi+7hpWu50caJRQ3f7usD2JVe5H7TMAAJ0sVryHHu+PxeprGifcQfB0KPSJPdqF7UCpqXCnrbKnHg+tZD6z7hp6F2eTvoWdzhA0wELPq8l8z70bPNGj6fNfOGOrAQDgZsX7/ljxflif97qFCxfhQsbpgq4foC4Cd9ome+rxQ0mS/PptX79r5WoyeGPYGYIGeLP/YrKabjQbIVSdHNRaBgAA3ilN00MxeH/C1mzqbLyLPQTtfrcAOpKWMrRF7Nu+fiuZNVlX6uxAg2wctiexaueY7QYAgHfKsuxklmUhdH8otkYxZPWdwn48F4egHsyy7JiwHehkKtxpuRi2n469oze2/U0nCLZquStJrvdV+yRPp89/QfAOAAAbSNM09Hs/0sFV76GS/WR4ZFmmNSVABYE7LVVT2B4MXk+SrlUnCbaitsA9eDJ9/gsb34ECAAB0Wq/3UzFkP23wKcDtCdxpmZrD9mDgRpJ0rzhJsBW1B+6J0B0AAGpT0l7vpyoq2bWJAaiCwJ2WiANSj9cUtge9i0nSt+AkwVbUF7gHz6TPf+GovQcAgOqlaTocg/exAobvs7FQTsgOUCeBO02XPfV46Af9mbpep3fxYtK3sNmwR2Aj9QfuSaxoOZw+/wU/aAMAQB3SND0Yw/fQfuZg/Gde2s9MJUkS2sOcia1i9GMH2CKBO00TW8iEqvYDdb9G18rVZPDGsLMEW7C1wD2JVS6H0ue/cNppAACAxoj938NjOAbxa8ZueYHhGn+vno4heqW1n+XPrT30YQdoDoE7DZc99Xj4YeBo3VXtlbpWzyeD1+9zlmALth64rwnV7kfS57/gB3MAAACAdQjcaZgYtB+Jj9p6tW9k+5tOEmzV7EAjt/BEuKgmeAcAAAB4J4E7W9a0oH2NwB22rrGB+5oQvB9Ln/+CPo8AAABAx0sE7mxF9tTjY3Hy+qeaupGD10NrGecKtuLN/ovJatqsAcRn47yGk6reAQAAgE4mcKcmcRBqCNkPtWyq+sCNJOlecaJgK97sP5+spq2Yh7AWvp9W+Q4AAAB0GoE7m8qeevxQnJLeupC90sBcknQvO1GwFXO955PF7lYPIJ4NwfvaQwAPAAAAlJ3AnXeJVexj8fFE23eodzFJ+hbavgwotLne6WSxu/UXzN4pBPBnKkL4M+nzX7jqjQUAAACUhcCdtV7s4bEWtDd+8OlW9C5eTPoWmtV7GjrDYvdcMtc7mMNjPRtD+DOq4AEAAICiE7h3mOypx4crqtdDwD6a+x3oXr6YDMwJ3GErlruS5HpfUbZwqqINzekcrAcAAACgKgL3ksueenz/LQH7gcIdcdfK1WTwxnAOVgLFVazA/VanYgB/Mn3+C+fytTQAAACA7xK4l0xFBfvaoNN292zeuq7V6WTwevGPA9qp2IF7pdCC5rjwHQAAAMgjgXtJxEGnxwrRIqZ2C8n2N/uLtmjIlfIE7pVC5ftRfd8BAACAvBC4l8gt/dnHCtk+5na2v5nPdUFRzPdcTBZ6ijwLYXZtsGqSJKGy/Zz+7gAAAEDeCNxLLAbwhyoC+OK2ZRG4w9Zc73s5We56oEC7uDY4NYTsZ7SPAQAAAIpA4N5BbhmgWqwAftv1JElXc7AQKKgbvSeTpe7HkiTZmcMDmK4I109rEQMAAAAUlcC9g93SguZgrvu/D9xIku6VHCwECuvRdHLqTPaLHz8c73x5oo0HMnVLwH7V2woAAAAoA4E77xCHr1Y+8hHCC9xhK2bTyanhyq/PfvHjrWg5tdZ3/UxFaxjV6wAAAEBpCdzZVGxFsz+G8MMV/9xfY0g3vTbsMD5uDjxMf/Xzbw8+zJ56fK3a/sg7nntgLkm6l50sqM9UOjk1ttFXZr/48f0VF9rWPvPDVQxfnor/vBpD9asV4brKdQAAAKCjCNxpmNii5mDF851Lf/XzdQ86zJ56/HiSJJ+6+cmjRu8AABhlSURBVD96F5Okb8HJgvo8k05OHbV3AAAAAM0lcCfXsqceP3mz13Tv4kLSt9DvbEFdPpFOTp20dQAAAADN1WV/ybnDsQ/0BScK6qZvOgAAAEALCNzJtfRXPx96QJ9MVru3O1NQn3Ryqu7WTgAAAABUT+BOERxPsqTHmYK6TNk2AAAAgNYQuJN76a9+/nSSJJfbvs6ddyXJg+9/6wHFobodAAAAoEVUDVMMXdnLSZI83Na1/sCfupj88Pjem//+P/7nRdk5ELgDAAAAtIgKd6jWHXd+1V5RQAamAgAAALSIwJ1i6Fn6fNvX2T84UIzNgne4ajsAAAAAWkPgTjF0L/+Htq9zeO/dxdgseAcV7gAAAAAtInAHKLF0ckqFOwAAAECLCNyhWj298/aKgpl2wgAAAABaR+AO1RK4UzznnDMAAACA1hG4Q7UGdxywVwAAAADA7QjcKQqDH6F2PjcAAAAALSRwpxAMfoS6+NwAAAAAtJDAHQAAAAAAGkDgDtXYeZdtohbTdgsAAACg8wjcoRo799gmanEuSZLZHOzY6RysAQAAAKBjCNwBGu+cgaUAAAAAnUfgTpFMtW2tvf3f9E6hBudsFgAAAEDnEbhDNbq6rtknanBVhTsAAABA5xG4QzX2f9+wfaIGZ2LoDgAAAEAHEbgDlJcqewAAAIAWErhDNbp65u0T1Uonp04nSXK63RuWTk6psgcAAABoIYE7VGNw6IJ9AgAAAAA2InCnSNpXMbz7nru9U6jSdPxjqssBAAAAOozAHarR2z+Qm3265705WAQbOJe81c5F/3QAAACADiNwh6K552GnDAAAAABySOAO1RjYlp/2IHv3z+ZgFdxeZeujs/YJAAAAoHMI3KEaXT1Dbd+nH/j4+eQ9+24kgzvm274WqqWPOwAAAEAHEbhDNfoH2984PVt9JfnIofmku1fgTjWm7BIAAABAawncKZLOHkK5vDSfPPL9b+ZgJXn2dJIkj8XH021aZ2VLGYNTAQAAADpIj5NNgXR2e443ZoaT67PhM7ucg9Xk1Zl0cupm4J1NjOZhiVrKAAAAAHQQFe5QFNeuDCdLC7udLwAAAADIJ4E7bGbvvnxs0fbhniTLBnOwEjZW2UbmtL0CAAAA6BwCd9hM/7Z8bNHwe/pysIrCWGst02rp5JQ2MgAAAAAdSuAOm+nqup6LPdo+vJiDVVAb4TsAAABABxG4UyTn2rLW3v5v5GKP7nlvDhZBLdLJqTNt3LB2vjYAAABARxK4Uxjp5FR7AvfhvQO52KPtO/OxjmKZbvFqp3K0O6rrAQAAAFpM4A6bGb6r/UF332CotL+z7esonvZcpHmn2cLuHgAAAAA1EbhDEdx5r9NUXFq7AAAAAHQIgTtsZmD7hbbv0d0Pvdr2NQAAAAAAGxK4w2a6e+fbvkc739P+NRTT6Raver0WNu1qa9PqYwcAAADoeAJ3iqbVQzCTZO/+/W3fo7se6G77GqhGngJ3AAAAAFpM4E7RdGZ4eced+3KwCgAAAABgAwJ32ExX13Jb96hv0CmqXx4u0LRrDYa1AgAAALSYwB020zdwra17dOe9TlH9OjZwTyenrrbjdQEAAAA6mcAdNtO/7ZG27tHdD73qHAEAAABA/gncYTNd3dvbukcD25eco8I4vc5C21HhPtWG1wQAAADoeAJ3iqbz+lLf/705WEQxpZNT6wXgLZVOTnXmoF8AAACADiRwp2g6ry91b39vDlZBsRiYCgAAANAGAnfYyMC29m/P4JCpqcU33eIjMDAVAAAAoA0E7rCR9+xr7/b0Dbb39cvhbA6OotVtZVS4AwAAALSBwB3y7E7F7Q3QidXeKtwBAAAA2kDgTtG0Nkjs7rnY1v1J0+ttfX0axeBUAAAAgA4gcKdoWtsqo6f3Qlv3Z98HZ9r6+uWQh2pvLWUAAAAAOoDAHTZy98ND9qfwWhY+p5NTp/OwWenklJYyAAAAAG0gcIeNDGzredd/nXuzdUM4d919w/kpBS1lAAAAADqAwB2qN5UkyWPJc3/hSMv2bPvwNuenFATuAAAAAB3g3dW7kG+tbZWxffhcDEuPpnvuv9kuJEuSMe+RQtHPHAAAAICWUOFOoaSTU60NT//NP/7ddM/9Y2the8t198x7h25ZHvqZt3INUy18LQAAAAAqCNxhI29cam/gvX3nH3N+iq/lF4oAAAAAaAuBO2xMUFp8eahwBwAAAKADCNxhY+uFtQZgFkiOqstnc7AGAAAAAJpI4E4RtTW4TCenBO7Uw90SAAAAACUncKeIWhZcppNT7RmWCgAAAAAUjsAd6ATTzjIAAAAAzSZwh9vTc7s88tAGyN0SAAAAACUncIfb03ObIhLsAwAAALSJwJ0iEoQDAAAAALkjcKeIrrZozXloQ0Jj5OEijcpzAAAAgJITuMPtbRS4G8JZLK26SAMAAABABxO4Q31UvwMAAAAA7yBwp4haFXa3vw3J3Ju/3/Y1UK2zm/y5Vr2fzDgAAAAAaBOBO0XUqsC9/W1IlhaH2r6GcmhF//QN3y/p5FSr3k/a5wAAAAC0icAdAAAAAAAaQOAOt5FOTrWiKnpj//43/2WSJLPOUWm0Ytiu+QIAAAAAbSJwp4jyECi2pk/29O9dSJJkTOheGk1/76aTUwJ3AAAAgDYRuFM4LQoUNwu4W9aPO33/h0O4f7xFr1dKubhbAQAAAIDSE7jD+lpTwb65tXWcdJ5KodkXas52yD4CAAAA5JLAHQogff+HVWiXQ7Mv5LTqzgsAAAAA1iFwp6immrzuzdrWtKylTMW/6+MOAAAAADkmcIf1bRa4t6TlTDo5Vfk6eWlzU1Sd0G7FewQAAACgjQTuUBytGBZbj2cKsoN5aLfS7NZAWsoAAAAAtJHAHdaXh0rhWyuy89rH/ViSJCdysA4AAAAAaCuBO6xvs0rhVlQSv+M10vd/+HgO26KcSienwjqP5mAtAAAAANBWAneowy291VvpcPLGpQs5Omcnk7f241wBhrrmod2KHusAAAAAJSZwh3Wkk1N5aN/yrjWk7//wmeQL/+Bftmc56zpZ8X/mPUxu+/ri3QAAAAAAlJTAHajXqVsC5Lz2mAcAAACAlhC4U1SjTVz3dJV/rtktVPJeDX1rwC5wr07e+vADAAAA0CACdwonmxg92OQ1n6vyzzW7RUneW7ScvOV/609eHW1lAAAAAEpK4E4RjXX4WctDYDsdB6W+LbaXqfbugHbohAsCnf7ZAAAAAGgrgTtFdLjJa85La5TbVdrnITi+tbp9TZ5D7bxUlld7B0U9mn33BwAAAAAbELhTKNnEaKjgPdDkNecimL21gjxnbndRQluZzTXzvO7MJkYPNfH5AQAAANiAwJ2iOdqC9VYbGndyuHy7wN3g1M01+0LKkSY/PwAAAAC3IXCnMLKJ0RAkjrZgvdUG6c2shM9zL/SzsV/7enJ7ESKdnMp7q6BGGY2fFQAAAABaTOBOIWQTo6Fv+7MtWOv0BmFyK+W5ncxtQ/UCDE5tuxYF/8/GzwwAAAAALSRwJ/dicPi5Fq1TS5TNbbZH+rhvbqoFr/G5bGL0WDYxOtyC1wIAAADoeInAnTwLQWE2MXqyhWF7kqPAPc+h9WZry/PaWxF0V6NVe/SZcLeEancAAACA1hC4kzsxaD8a26o80eL1nczJfuShrc16ZtPJqc3CYncJbO54C19rZ6x2D8H70WxidH8LXxsAAACgowjcyY1sYvRQNjF6PAbtn41BYSudykn/9jyrpjI7zxXuuTi/8aJFq3vd74ufq2+HO0fC563Frw8AAABQej1OMe0Se0uH0G8s/rPVAfutWll1vJmNQut2BtqbVq+HixbZxOh0DHjz5kwb7pq4neMxAG+HsAdPZBOjs/GujpPp5FRe7u4AAAAAKCyBOy2VTYwejOF6eBzI0e5P5yxwvG0ldgy0W7ua76o27D+T08A9T9oZuK8JF7k+FR7CdwAAAICtE7jTdLF1xVole15D2KM5WEMR1BK456WSvNLpHITcN6WTU6Gn+okYeOfBeuH76RjAa7UEAAAAUAWBOw1X0SpmLWRvd6uYzUylk1N5aieTxD72uRNC4irXlJtgO+eO5qSd0q3eDt/jwNVTawF8De8BAAAAgI4jcKchsonR/RUBex4rm28nVPIervNrh5u1qJyGmlPV/sF0cup0G9vebCRXA11jlXsI3Z/NwXI28sTa5zqbGD0b2+GcFL4DAAAAvJPAnbpVhOyHc9aPvRZHthAaHmzPktum1rD6bN7eF23uf7+udHLqWGy7lMsrFOs4EC8QPFsRvofK91xdzAAAAABoB4E7Ncnx0NN6PLfFVjLNqnCfbdLzblWtFybO5PQ9MpXDcPtQbMNTtM/UWvgevjdMJ0lyTOU7AAAA0MkE7mwqhuyHYyiY16GntXomnZza6qDUZoWjea0UrnVdZ3I0ELTSubwF7rHyfqygofuafetUvh83cBUAAADoJAJ31lXSkD2J1eNHtjokNYajnaaewD2PmlV9vaUQvySh+5rKtjOnYvB+Mh9LAwAAAGieLnvLmhD2ZROjoZ90CCS/nCTJZ0oWtodWIge3GrZHzQzcTzfxues1XWulchicmqsj+K6mrWurF2LCHqeTU+Fi1zONW1XbhWGrvx6+r4QBsXH2AwAAAEApCdw7XBjWmE2MHs8mRkOY+sUShuxJDNofSyenxhrYW/pwg55nPXnsf13vms42eB2N0MzK+0ONeJLY7uihJElONOL5ciJ8X/lskiTfjt9zOvEuEQAAAKDkBO4dLJsYDUM/r8YAMgw7PBXD6ekS7EoIep8LoWUM2htW1RyDwmZelMhjK5Z69y93xxIr9Zt1IeBw/FxtWbg4lE5OhQs7u5IkeTp+Nssi9Pb/YjYxejpc9CvRcQEAAAAdTg/3DhaDx9MbhakVVaghRDxY8Z9urU5t5xDKtSDydAx4Tzd5UOOxJj73bDo5lcfAvd4K97wOTj3TpD7pO8OMgCRJtjqQ923xvXxs7X0XP5ObfR6THA2GPRsv7N3OkRi6HzFgFQAAACg6gTsbuqUyvKahh7HS92AVf7RW5xrYGqYmoQd1kwda5rXv+VYC9zw63cQLAZ/NJkZPNuvCScVn0hBSAAAAgJwRuNM0FRX0pZBNjB6OPaibKZf7VW9LnvB12UReCq3fIYTVn2vi84fjHsvp3QoAAAAANIke7lCFGLY3M6Bdk8eq5a32O8/d4NQm93FPYmuZELo34w4PAAAAAHJK4A4bCG1xQnuQFoXtp9rVKmcTW11TXqu8m9mLP4mh+5dDG6JGDVIFAAAAIN8E7rCOGLQfjWHzEy3ao+M5PRdbDczzGri36m6C0IboXDYxekzFOwAAAEC56eEOFbKJ0f1JkhxJkuRwrFBulel0cqqqALgN1dKlDNxDW5lsYvREE4enVgrvpc+ERzYxOh0vrhzP6R0NAAAAANRJ4E7HiyH7oRiyH2jTfhyp4c+2ukq6rBXuwdEWBe6V9sWq989mE6NTMXjP690NAAAAANQgzbLMftFRYoX4WHwcigFoO02lk1Nj1b5+NjEa/uwXW7Te2XRyassV9dnE6LkW7fNj6eTU6Vq+IJsYPd6G0P1Ws7HFzbF0cirPFygAAAAA2IAKd0ovVrAfrAjZ21XFvp7ZWFmfV40Kf8/k4MLG7RyNF15a2ULoVjtj6P+pbGL0bEXLmattXBMAAAAANRK4UzqxAnwtYD+Y46A3OFJHH++qq+EboKZq8Q2cadHw2f21fkHY/zgg99nmLKlmB+Jans0mRk/F4L1VA14BAAAA2AKBO4WWTYxWBusHc1a9vpln6uzd3cqhqY2qcD8d+5Y3W82Be/JW6H4sXqhpxUWBWoT1PJFNjK61nDkpfAcAAADIL4E7hRJD0UMxXB8t8Nk7kU5OHa3za1s5NLWRLWVaYSvV/4fjhYE8XrSpbDkT/vepuNYztfasBwAAAKB5DE0lN7Jf+fTBWKFcGSi/FaCuLH8rufTaeDJ/fW8JztiTdVa235RNjF5tUb/x6XRyqq6K8fW0anBqOjmV1vu1caBuXkP3jUwlSXLulkeSDA1vS4bf88PrfF24AHIuPfK8Aa0AAAAADSRwp22yX/l07dXqb15ZSGZn+pPVlSKeuOlQRb2ViuTYQufLjV3WbYUq/IYNdM0mRo/HKu1m2+oFjRC6H2vRWpunqytJ7n7ozaSre8cGr7HWquZ0euT5uvcMAAAAgLdoKUNLZb/y6UMxZD9UV5X2jl39ybY7biSXzm9L5m8U6eQ9E0LcdHLq6hafp4gDUyufrxUhdrhIUHd4HM/R4Wxi9GQM3vM8dHd9g0NJsmvvZmF78o5WNcd+8Vjct2PpkedrHeQLAAAA0PESFe60QvYrnw5tSY7EkL1x4WX+q91n3w4wJ6caEmC2qi1L9FCj1p28tfbwPvh2o55vE481qrd5NjF6JL5/8xe8hyr2/m1J0juwkPT0zCS9/f1JT9+OJE37t/jMJ5IkOSp4BwAAAKiNwJ2miS1jQlD5RNNeZGUlj9Xup2KbjpMNqGh/WxwY+8VGPd8mGtq/fU0LLxhMpZNTDb0bIJsY3drdGY0UgvbhvdeSbTuGmvxKgncAAACAGgjcabgYtB+tui97I7Sv2n02DqA8vfbPRobslbKJ0dMt3NPn0smpI41+0mxiNLQt+Uyjn/c2nk4np44144njxY+xOH/gYMur3+/eP5f09A226NVmY2ud0GqmKe9tAAAAgLLQw51mOdrSnR3YPpRcn02SxZVrt/yXaqqcb/dnQoB+a8B4Lj6SRrUsqUZsa9K6Cxhb6IG+idMtDNyfDRcp0smpM41+4nju33H+40Db4RjAD8f/e3981OpqfP/dau39Fyrbb32vAwAAANBmKtwh52KQe7qFbUya0k5mTTYxerWFxxKqs8eaEboDAAAAwK267AjkVxvC9qSJ1e2tev5KYd9Ox30EAAAAgKYSuENOxT7hrQ7bk5IF7klF6H64xa8LAAAAQIfRUgZyJpsYHY498FvV67zSiXRyqunBdIsHwFY6lSTJkXRy6lwbXhsAAACAklPhDjkSq7DPtClsD46V7HVu9UTY32xi9Gi8sAEAAAAADaPCHXIgBu2hqn1fG1dzKp2cOtSqF8smRsOFhQOter11zMb2NsdUvAMAAADQCAJ3aJNsYnR/kiSH46OdQfuah1oZPMce9V9s1ettIrSaORke6eTU1ZysCQAAAICCEbhDC8U2JodiyN6OHua380w6OXW01S+aTYyejG1e8kT4DgAAAEBdBO7QZBUh+6EchsvB2SRJxtoRLscq/9BaZmerX7tKa+H7aW1nAAAAANiMwB2aIAbJYzkO2dfMxrD9TLsWkE2Mhj369Xa9fg3OVlS+t22/AAAAAMgvgTs0SDYxerCikr2dw0Br8WQ6OXW83YvIJkaPJUnymXavowbToeq9ovpd6xkAAAAABO5Qr4oq9rVHHgaf1uLpdHLqWF4Wk02MhuD/UzlYSj1OxQD+tOp3AAAAgM4lcIcqlSBgr9SWIambKXjovkb1OwAAAECHErjDbZQsYK+UizYyt1OS0L3S1FoAr/odAAAAoNwE7hBlE6PDsf962QL2NWFA6qF0cup0PpZze9nE6OEkSUK7m515XWOdZm+pfj9XyKMAAAAAYF0CdzpaQQed1uNEkiRHitTeJN5hEKrdR3OwnGY5W9H7/WQ5DxEAAACgcwjc6SgxxD0YK9gPlbCK/VahncnRIlS1306sdj/aAecqqRi+elL1OwAAAEDxCNwprYoe7AcrHmVrUXI7hQ/ab9VhwXsSh6+ejAH8Of3fAQAAAPJP4E6pxD7sh+OjzC1i1jMbW7AcL3M4m02MjsXze6iDLqCsmV5rQROr4AvTIggAAACgEwjcKYUYtB+Jj04KYacrBnB2VA/weM7HKgbddkrl+5rZ2Jf/eD6WAwAAAIDAncKLg0+Pd0hFexiyeaZi0KY+31F8H1S2EOqUOxxOpJNTh3OwDgAAAICOJ3Cn0GLIerqEVe2hB/vVGK6HUP2MHt61i+1n9sfHWHyC0SIdQ5WeTienjhVipQAAAAAlJnCn0LKJ0dBGZbhJx9CIYHY2hua3qhxmeiaG61eF6q0Tw/ikIpBP4nvp4C2L2N/gdjXT8SJKQ6WTU2ONfk4AAAAAaiNwBwAAAACABuiyiQAAAAAAsHUCdwAAAAAAaACBOwAAAAAANIDAHQAAAAAAGkDgDgAAAAAADSBwBwAAAACABhC4AwAAAABAAwjcAQAAAACgAQTuAAAAAADQAAJ3AAAAAABoAIE7AAAAAAA0gMAdAAAAAAAaQOAOAAAAAAANIHAHAAAAAICtSpLk/wfA1KCrAymwhgAAAABJRU5ErkJggg==;" parent="2" vertex="1">
                    <mxGeometry x="120" y="70" width="88.36" height="41" as="geometry"/>
                </mxCell>
                <mxCell id="54" value="&lt;h1&gt;&lt;span style=&quot;font-size: 14px&quot;&gt;EKS&lt;/span&gt;&lt;/h1&gt;" style="text;html=1;strokeColor=none;fillColor=none;spacing=5;spacingTop=-20;whiteSpace=wrap;overflow=hidden;rounded=0;" parent="2" vertex="1">
                    <mxGeometry x="80" y="30" width="110" height="40" as="geometry"/>
                </mxCell>
                <mxCell id="25" value="" style="shape=flexArrow;endArrow=classic;html=1;fontSize=14;fillColor=#0DF7FF;endWidth=22;endSize=8.51;width=12;" parent="2" edge="1">
                    <mxGeometry width="50" height="50" relative="1" as="geometry">
                        <mxPoint x="566.82" y="100" as="sourcePoint"/>
                        <mxPoint x="376.82" y="130" as="targetPoint"/>
                    </mxGeometry>
                </mxCell>
                <mxCell id="73" value="" style="sketch=0;html=1;dashed=0;whitespace=wrap;fillColor=#2875E2;strokeColor=#ffffff;points=[[0.005,0.63,0],[0.1,0.2,0],[0.9,0.2,0],[0.5,0,0],[0.995,0.63,0],[0.72,0.99,0],[0.5,1,0],[0.28,0.99,0]];shape=mxgraph.kubernetes.icon;prIcon=svc" vertex="1" parent="2">
                    <mxGeometry x="199.52" y="280" width="50" height="48" as="geometry"/>
                </mxCell>
                <mxCell id="74" value="" style="sketch=0;html=1;dashed=0;whitespace=wrap;fillColor=#2875E2;strokeColor=#ffffff;points=[[0.005,0.63,0],[0.1,0.2,0],[0.9,0.2,0],[0.5,0,0],[0.995,0.63,0],[0.72,0.99,0],[0.5,1,0],[0.28,0.99,0]];shape=mxgraph.kubernetes.icon;prIcon=ing" vertex="1" parent="2">
                    <mxGeometry x="84" y="280" width="50" height="48" as="geometry"/>
                </mxCell>
                <mxCell id="75" value="" style="sketch=0;html=1;dashed=0;whitespace=wrap;fillColor=#2875E2;strokeColor=#ffffff;points=[[0.005,0.63,0],[0.1,0.2,0],[0.9,0.2,0],[0.5,0,0],[0.995,0.63,0],[0.72,0.99,0],[0.5,1,0],[0.28,0.99,0]];shape=mxgraph.kubernetes.icon;prIcon=pod" vertex="1" parent="2">
                    <mxGeometry x="259.64" y="280" width="50" height="48" as="geometry"/>
                </mxCell>
                <mxCell id="76" value="" style="sketch=0;html=1;dashed=0;whitespace=wrap;fillColor=#2875E2;strokeColor=#ffffff;points=[[0.005,0.63,0],[0.1,0.2,0],[0.9,0.2,0],[0.5,0,0],[0.995,0.63,0],[0.72,0.99,0],[0.5,1,0],[0.28,0.99,0]];shape=mxgraph.kubernetes.icon;prIcon=deploy" vertex="1" parent="2">
                    <mxGeometry x="144" y="280" width="50" height="48" as="geometry"/>
                </mxCell>
                <mxCell id="77" value="" style="sketch=0;html=1;dashed=0;whitespace=wrap;fillColor=#2875E2;strokeColor=#ffffff;points=[[0.005,0.63,0],[0.1,0.2,0],[0.9,0.2,0],[0.5,0,0],[0.995,0.63,0],[0.72,0.99,0],[0.5,1,0],[0.28,0.99,0]];shape=mxgraph.kubernetes.icon;prIcon=secret" vertex="1" parent="2">
                    <mxGeometry x="320" y="280" width="50" height="48" as="geometry"/>
                </mxCell>
                <mxCell id="78" value="&lt;h1&gt;&lt;font style=&quot;font-size: 14px&quot;&gt;・・・&lt;/font&gt;&lt;/h1&gt;" style="text;html=1;strokeColor=none;fillColor=none;spacing=5;spacingTop=-20;whiteSpace=wrap;overflow=hidden;rounded=0;" vertex="1" parent="2">
                    <mxGeometry x="370" y="284" width="60" height="40" as="geometry"/>
                </mxCell>
                <mxCell id="79" value="&lt;h1&gt;&lt;font style=&quot;font-size: 14px&quot;&gt;Kubernetesリソース&lt;/font&gt;&lt;/h1&gt;" style="text;html=1;strokeColor=none;fillColor=none;spacing=5;spacingTop=-20;whiteSpace=wrap;overflow=hidden;rounded=0;" vertex="1" parent="2">
                    <mxGeometry x="183.64" y="324" width="154" height="40" as="geometry"/>
                </mxCell>
                <mxCell id="83" value="" style="shape=image;verticalLabelPosition=bottom;labelBackgroundColor=#ffffff;verticalAlign=top;aspect=fixed;imageAspect=0;image=data:image/png,iVBORw0KGgoAAAANSUhEUgAAAIAAAACACAYAAADDPmHLAAAABmJLR0QA/wD/AP+gvaeTAAAWc0lEQVR4nO2deXxU1dnHf8+dySzJZF8AIRBBVtllCyBYC7ZvC32touIOUq1led14BVGxLkWtW2urrS1SqsWtWttXP23VIrIEDQLZCBCyEJaYGMieSWZ/3j9myZ3JZDLLvbOE+f6Vc+/cc0/mPHPuub/zPM8BLjCY+XJmfp2ZjzGznpkbmLmEmZ9g5nGRbl8cmWDmRcz8JfvGxswfMfPMSLc3jkQ4Or6wn473xmfMPDvS7ZcbinQD5ICZCcDVAB4FMM3zfKeBj5SdNDVV1pspVUsYMUiJyXnqSwQBF3mp7l8AniCir2RudkQYUAbAzAKAa2Dv+Mkep63V9ZavHnuzZdCxM+ZLPK8lAn9nirZ40w2plK4Tpnqp/lMATxLRPulbHjkGhAE4Ov6HAB5H71+87ew5S+EDf2weXFVvudif+uaO15Q9fFOqYXCawttcoADAs0T0UWitjg5i2gAcHX8t7B0/3uO0ubrecmDTn5qHVtVb8oKpf/ZY9ZHNt6R1D05TzEDv72pAGEJMGoCo458EMNbjtLm63nJgw7bmYScbLCOkuN/EPNWJX9yW1jQsWzkHvb+z/QCeiVVDiCkDYOYEADcCeBjAGI/Tpup6y9cPbm3OrW20DJfj/hPzVCcevyWtNW+QciZ6f3fFALYAeJ+IWI77y0FMGICo4x8F4DmBM5XXmgs3bGu5pL7FMiQc7Rmfq6x6/NaMb0cNUc4BoPA4XQLgF4gRQ4hqA2BmFYDlADYDGOVx2lheaz7w4J+aRzc0WweHv3XA+NyEqsdvTe/LEMoAPA/gL0RkC3/r/CMqDcDR8Stg/8UP8zitP1hpPPToG63jGlutOWFvnBeG5yjOPHVrRu2leQn5AJQep48AeA7ADiKyhr91vokqA2BmNYDbYf/FD3U/B/2hKuOhR95oHXcuSjrek34M4SiAZxFlhhAVBsDMSQB+AuBBwF2Nc3b8w9tbxp9vt2VHpIEBkpulPPvITak1M0arZwNQe5yugd0QthGRJfytcyeiBsDMOgCrAGwEMNj9HDoLyg2HNv+ldXKb3pYekQaGyLAsZd2jN6VWzxitngVA43H6JIBnEGFDiIgBiDr+IQCD3M+ho6DccHjzm21T2rqsaZFon9QMzVJ+s/mm1KoZo9UzAWg9TtcC+BWA3xORMdxtC6sBMHMygNWwD/UZbueA5v8UdZdtead9anuXNTWc7QoX2anC+UeWp5XPn6iZhd6GcBrAiwBeIyJDuNoUFgNg5hQAPwOwAYDbcG5jbt5ZbCh76u22aZ3dtpRwtCfSZKYI5zffmFY+f6JmJoBEj9NnALwA4A9E1C13W2Q1AGbOBLAOwD0A3IZzG6NpZ3H3kSffap2uN3CynO2IVjJShOYHl6WWLZqqnU4Ez++gEfYR4WU5DUEWA2DmLABrAdwLwG04tzHOf1yoL3/2r+0zDSb2tP4LkvRkat5wXVrZoqnaaUTwHAWdhvAbIuqS+t6SGgAzZwNYA+A+wP0fsTHOfVyoP/rMe+2zjGb2fP7FAZCmE1o2Xp9aumiqdioRPOdB5wG8AuBFImqX6p6SGAAz5wC4H/bh3u1XbbXxN+/v1Vf96v86ZplM7PkqFMcLSWrqXL8s5dDSOUlTyOPRiR5DeImI2kK9V0gGwMwXAdgE+yudW+dabTjz5s7Oytf+2THPZGFPMSSOHyRrSf/AtallP5ylHScQeRpCE+yvjy8RkT7YewRtAMz8U9gVLbehymrDqW2fdNRu/UQ/12K1JQRbf5wedBrS339NasnSOYnjBHJ/fYZdR7iLiD4Lpu6gDICZn4J9Td6Fycq1f/x3Z92fP+2YbbX10sHjSECiiroeWJb29Y/maC8VCFmiUxYANxLR+4HWGbABMPPtALaLDhk+PtBd+ORbrfMsVo53fBjQaYX2V9akl04coZ6Hnj40A5hFRMWB1BWQATBzBoAKwGV93eu3thzfVdLdy/U6jvysX5ay58aFugWiQ18BmBuII4oQ4D1vRk/n49d/by+Kd37keP799gUHK427RYfmAAgomCXQEWA3gAUA0NLJhxY9VH9ZINdHEoGAiXkqDM9RIiWR0Nxhw5FaM86ej/iKbEgkqUn/xS+HdAiCazX1JSK639/r/X5mM7MGdgsDALz8j7aocWrwhVJBWDY/ESsW65Cd6um1BZSfMuOVj9pRWBH2hThJ0Bs5aU+54eAVkzROA7gikOv9HgGYeR6Affa/oZ93f73SGOXv9ymJAp6/MwOXXaLq97Pv7NbjhQ/aYIt6N87eTMpTndj+QJbTS9oCIM1fbSCQOUC+84/mDtuJaO98VQLht6v963wAWL4wCWuWxuZi5JFTptHMaHUUlQD8jm4OygDKTplCliDlZs2SZFw6wr/Od3L7Ih1mjolqu/YKM6i5g6tFh/L7/LAHgRiAa3b5eYkxKYDrwk5OmgLXXx54E4mAtUtjc2X6cLWhU1SU1gCYeQR6vHR5/9EuTx/9qOLKKRqoEoJTuSfmqTA8O/b0rF0lRp2omO8Ike8Xf0cAl0WZrFzb0sGeenRUMf2S0Ibx6X7OG6KJ/ce6xwBwBqBkoXcgjVcCNoDaBktdYE0LPzlpgepbntf3fl2Mdjq6ONlo5pOiQ3P9uS5gAygoN0T9i5JWFZqbg1YdFeESAVNTb6kXFf2aB/RrAMysBTDFWf68xBiROLw4/bOv3M2ZWBoDAHAZABVgD9Y4ftY0MvCmxQkHu0q7xVFVEx3e2D7xxwB6BCC97YTN1isKNk6UcKLOcjEDLY6iAsCM/q4JyABKq02SOSPGkR5mUFObNSBByJ8XXpEA1KXz9UEpEATgBzMT8f3LtBg1RAlNEBM6nSa0t4DlC5JwdX7gHuttehvKas34oECP4mpTSG0IlqIac+fiaa5BOjQDYOY89ETrcsFRk6wCUHaqAi/elYEJwyPrSqhKoKCEpJREAbnZSvxgphZ/K+jCs39tg8Ua3pemncWGlMXTXP65c5iZfDmI9PdTEQlAOClnlG6imvDq2syId75UXDMvEY/dHP7Y1v3l3WMAOJfqMwGM9vV5vw3gZIP5m9Ca5pvVS1IwcnDsSbC++MFMLRZMDG8ohN7IOqPJTRDy+Rjw2wD2HZFPAEpUE66dNzCjxG75ruzTpl5UN/gvCPVpAA4ByJVudVdJt2wZuKaNUgW9eBPtTBupClmZDJQ9Rwzifg16BJiBHgGoo6LOvzSrwTAofeBKC4IQ/rWFXSUGvwUhXwYg9gCqlFMAUikH5q/fSbhHt+p6c56NudlRFADM6uuzfhlAcU1cAIolmEFN7Ta/BCFfBuDyAN5Vagj/TCZOSByqNIudQgMzAGa+GD1Zu3j/UUNUewDF6c3Okm5x0G6+I8F2L/oaAVwWYzSzrAJQHHkoPGYYjR5BKA29k2sD8MMAahossgpAceRBb2Sd0Yx+5wH9GkDB0ej3AIrjnRN15m9FRf8MwFMA+qLEEJYU7HGkZ195/4KQtxFgJoAEAGBGe8VZc9wDKEbZVdwtzrQ+gZl7JeD0ZgDuAhAHHEIeJ0qo+dYy3MZochS9CkI+DaCoxtQhU9vihAFmUGObpUZ0qNdjwJsB9HgAFXfHZpxUHBdF/QhCbgvwzDwSIgHoq2PyegA5OXPOgv8U9c6GmpGsQN4gJTKS40+hYNlZ3J32XzNdeTnnMLMg3sLG0wNDLADVtHVZw2IABUeNKDjqPUGDQMCUkSqsWKzD/EtjM8/kvVenoLPbfdsgoxk412bFgQojDlYaYZVpV6HCCtNo2HMGKGEXhMYCOOY836cB1DRYv4Gf8WVyYmOgqNqEoupmXDlFgyduSw/7+nqozBnXd6ziisU6nD1vwUsftuOLUumzxHcZbUkGE1doVOTcX3EuRAbgObaKQ8Akb0yofF5iwN2/aYLRPLC0qWFZSrxwZ4ZsCSoq6yx9CkIuA2DmRIgEoJ0lXd520o44R2pNePrdqM9PERR3XKXDjVdIn3ph95FusS+HdwOAXQBSAgAz2qpk9AAKlY8PdKH8VGT87uXmnqtTMDRTWt+bL0oNYkFoPDO7Fve8SoVN7daoFoCYgTd2Bp0fOapJUBBWXiXt2/fJBssIG+Oco0gQCUJeDaCoyiRONxKV7D9qgDnMQRfh4orJGggS//waWyxeXcXFt3EJQDtLDVEvAHUZGWfPxUSqwoBJ1wkYmiltjMTBSrN4txF3A2DmUejZvs1WeDw8AlCoNHUMTAMAgKwUaYeAz4u7xU49c5weQs67iAQgVLfHyH59WlXUTlNCpsso7eOt8ITRKQgB9u18xgNeDKC63twg6Z1lZPAAjSewMVDfLO3oZjBxYreRq0SH8gEvBrD3SPQJQN4YNUSJTImHyWjh6CkT2ruk14Yr6kyNoqLdABwbN09yHt1VZohKAciT788YmLGEAPC3Asl3hwMA7C0z9RKEBHgIQNV15qgVgJxkJAtYvjCqk5UGzfEzZnx0QB4D+Ly0a7ioOI6ZMwSIhv/zUS4AAfZYu6duS0dijKZy80Vzhw0Pvt4Mm0wrg6cbrbk2hvMxQABmCRBFAFWcNUe1AJSgIDx2cxpm+1hdi1Uq68xY8eI51DXJ+2rb0mE7IyrmKwFMcJZqGqxR++sfOywBG65PxZSLYy+Na18wA8fOmPGPL7vw4X69bD4BYhrbrN2iyfM4JQDXQoEgICLaarJWQEpS7yE9K1mBi4coceVkDfInaCDE6Ki/aXsLTje6b01jsjAaW23o6A5Dr4sQyK2PL1ICMMCx62duliIiBnDNvET8z3/H5mYN/lDTYEFlnTnSzQAAZKUpxLNngwDgtLM0fZQ6M/xNihMuNCrqykgSxooOnRYA7HSWkhPp0vG5CVW9L40zEFi+MKmICOIR4DMB9l1AnUO/8Nyq9KZeV8aJeRLVgn71kmSxxtMK4COBiEoBvOs8OiRTOfvuHybvDXsL48jKq2vTDysEEqu8jxCR3rnovA7APAC5AHDn95NnFlYYjxZVmSZ4VhSrVNaZsa/ciFONFnQZbchIVmD0UCWumKQdsGsKTlZ9T/flpDz15aJDuwH8HnBIwER0npmXAdgDQA1A89q6zLTvPdLQHO3bw/THsTNmvPBBG4r6yN37zHtt+HF+In62JAXpuoFnCBPzVCdWL0mZIjrUAOAmIrICIo8gIjoA4D5nWSHQRe9uHFQrCIhZr4uPC7uw8oXzfXY+ANhswAcFXbj1uXOo+iY6XtWkIjVR0br13kwNAOfKmRnA9UTkSvrhZvJE9DsAf3KWM1OE6U+vSI/J+cAXpQb8fEer336D9c1W3PVyk+xSbLggAu/YkFWRoCDxAtADROTWn97GvNUADjsLi6ZpF/54XlKhTO2UhcZWKx59owUcoKzVprdh85st/X8wBnh6ZcbuIRkK8U7i7xDRbzw/18sAiMgA4FrAFVdOD9+QOjYvR3na87PRyuufdAbtUlVcbcKeGHGK6YtF07SHF0/TiCd9xwHc5e2zXmc9RFQLYAUc+9ARIe2tDdkGjYrkWaiWEJOF8c+vQ2vmP76M+n+zT4ZmKr55emVaHuDK7NoB4Boi8prroc9pLxF9DGCLs6xW0Zg31mcXSdhWF4EO1b4oqTGF7FBZeFzaaF0p/z9fqJVkfHtjTptA5HxzYwB3ENGxvq7p773nMQD/dhZGDVHOW7c0ZU/oTXVHSv+3uvOhT+K6TYxmCV3OWzvDs+L3+n1ZB5I0NF506JdE9L6va3wagCORwM0AXFElK67SzZ4xRlUSUks9OCHhSlmrXpovu7lDunqkNKa+WHmVrmD88ATxc38XgEf6u65f5YOImgFcA8CZwkP9uzVZ2RnJgmRrBsfOmHHKY708WGwSDbdSDdufHOqWrE19MTFPdWLt0pTpokMNAG4mon6/VL+kLyIqBnCv6yIBF723KeeUVCIRM/Drv7eH7VkZLlo7bdj2qbx5thxijxaAMw+MGcB1RFTv4zIXfmufRPQHANuc5XSdMP35n2RIJhLtLjPg9/8cOEnJuoyMB7e1SPYo8YZAsL27KasqQUG5osP3EdE+v+sI8J5rABxyFhZO0iy87vKkrwKso0+2/rsDG7a14NuW2FbjiqpNWPHCORyq9J73SCqeviNjT3aqQrw76NtE9EogdQTsZcfMIwAchH2PejCj7botjU0nGyySZRQVBGDaKDVGXxT4xpGlJ004XBV68oilsxMDXiVs7bSh9KQJNQ3SzGd8sWi69vCzK9OnoOd9vwxAPhEFlDghKDdLZl4M4F/OmxtNXHnlQw1DDSYeuOE6UcSwLGXdh5uztaL3/Q4As4joeKB1BbX+SUSfAXjKWVaraPSb67OLg6krTmCoVGR4e2N2u4fYszKYzgeCNAAHT8A+CgAARg5Rzr3naulFojjubLs362Ci2k3seYaIPgi2vqANQCQSuXLR3vZdXX7+BE1psHXG8c3qJcl7x+cmzBcd2gXg0VDqDMkFhoha4C4SJbz80/TsjGTFtz4uixMEk/NUFau+lyye8Z8FcIPTsydYQvaBIqISAD91VSjQkPc2ZdcrBMg/Fb5ASE0SWrbel5UId7FnORGd83GZX0jiBEdEbwLY6iyn64SpL96V4bcYEadvBILt3YeyqxUCxGLPPURUIEn9UlTiYC3s+gAAYP6lmoU3LNB9KWH9FyS/XNVL7HnL4bonCZIZABEZYfckOu889L/LUiaNGaqs8XFZHB8smZ349XemaBaIDpUBuFPKe0jqB01EpwEsh2O/OiLotj+QbdWqKKrzDkQjw7KUdT+/JW0UevqoA3aPXkndlSR3hCeinbBrBAAAdQKN3rEhO/5qGABOsYcAsdizIlixxxdyRUI8CeDvzsKIHOXc9dem7JbpXgOO7ff3Enu2ENHf5LiXLAZARAzgDqBn58obr9DNnT9BFR8J+uGeq1P3jB3qJvZ8DrtrnizIFgslEomcz6yEl+7OGpyTpmj0cdkFzYwxmvLbvpsk9uU/A/v7vmzr47IGwzkij13+6AIh552N2XUKgQZWDJYEpCYJLa+uyUiBPTYTkFDs8YXs0ZBEtAPAa85yapIw7eW7MyQRMQYKAsH2Xm+xZx0R7Zf93nLfwME6AK5/Zs549cLlC+MikZPn78rck+Uu9uwgotf6vEBCwmIARGSGXR9w7Vqx/tqUyWOHJVT7uOyC4EezE79eOFEtFnvcHptyE7aAeCI6A3eRKGn7+iwhSeM9ZOlCIDdLeXazu9jTCnsYV9hi08KaEYGI3F5pVAq6eMeGnBIgMvkJI4lD7On0EHvuIKKwjoqRSImxBYBL1MjNUszfeH3qBedJ9Of7sw5q1TROdOgpIvow3O0IuwE4RKJVAFzp6K67PGnud6ZoZQk8jUb+97rU3WPcxZ5PAfw8Em2JSFIcImoFsAwikei5VeljLgSlcN3S5L3LFySJJ32nYA/jCm/OWAcRzb7LzLcCeEN0yLz3iLHg4e3NM/RG1kWqXXIwJF1Z/+rajJPDc5RzRYeNAC4noq8j1a6Ip19m5t/CHnEkputUo6X46CmzqbrBnNBtjO49DDxJUHA3CLZkrUKZN0iBqSPVKZkpgjiIw8mdRLTVWx3hIhoMQAF7ttJbItyUcPMwEW3p/2PyEvFflmOhYwWATbBnLh/oNMKu8Ue884EoGAHEOOIObwfwIwAjAaT7viImYAD1ACoAvA+7T19rZJvUw/8DASLbzAjQr0wAAAAASUVORK5CYII=;" vertex="1" parent="2">
                    <mxGeometry x="229.00000000000003" y="130" width="50" height="50" as="geometry"/>
                </mxCell>
                <mxCell id="84" value="" style="shape=image;verticalLabelPosition=bottom;labelBackgroundColor=#ffffff;verticalAlign=top;aspect=fixed;imageAspect=0;image=data:image/png,iVBORw0KGgoAAAANSUhEUgAAAIAAAACACAYAAADDPmHLAAAABmJLR0QA/wD/AP+gvaeTAAAWc0lEQVR4nO2deXxU1dnHf8+dySzJZF8AIRBBVtllCyBYC7ZvC32touIOUq1led14BVGxLkWtW2urrS1SqsWtWttXP23VIrIEDQLZCBCyEJaYGMieSWZ/3j9myZ3JZDLLvbOE+f6Vc+/cc0/mPHPuub/zPM8BLjCY+XJmfp2ZjzGznpkbmLmEmZ9g5nGRbl8cmWDmRcz8JfvGxswfMfPMSLc3jkQ4Or6wn473xmfMPDvS7ZcbinQD5ICZCcDVAB4FMM3zfKeBj5SdNDVV1pspVUsYMUiJyXnqSwQBF3mp7l8AniCir2RudkQYUAbAzAKAa2Dv+Mkep63V9ZavHnuzZdCxM+ZLPK8lAn9nirZ40w2plK4Tpnqp/lMATxLRPulbHjkGhAE4Ov6HAB5H71+87ew5S+EDf2weXFVvudif+uaO15Q9fFOqYXCawttcoADAs0T0UWitjg5i2gAcHX8t7B0/3uO0ubrecmDTn5qHVtVb8oKpf/ZY9ZHNt6R1D05TzEDv72pAGEJMGoCo458EMNbjtLm63nJgw7bmYScbLCOkuN/EPNWJX9yW1jQsWzkHvb+z/QCeiVVDiCkDYOYEADcCeBjAGI/Tpup6y9cPbm3OrW20DJfj/hPzVCcevyWtNW+QciZ6f3fFALYAeJ+IWI77y0FMGICo4x8F4DmBM5XXmgs3bGu5pL7FMiQc7Rmfq6x6/NaMb0cNUc4BoPA4XQLgF4gRQ4hqA2BmFYDlADYDGOVx2lheaz7w4J+aRzc0WweHv3XA+NyEqsdvTe/LEMoAPA/gL0RkC3/r/CMqDcDR8Stg/8UP8zitP1hpPPToG63jGlutOWFvnBeG5yjOPHVrRu2leQn5AJQep48AeA7ADiKyhr91vokqA2BmNYDbYf/FD3U/B/2hKuOhR95oHXcuSjrek34M4SiAZxFlhhAVBsDMSQB+AuBBwF2Nc3b8w9tbxp9vt2VHpIEBkpulPPvITak1M0arZwNQe5yugd0QthGRJfytcyeiBsDMOgCrAGwEMNj9HDoLyg2HNv+ldXKb3pYekQaGyLAsZd2jN6VWzxitngVA43H6JIBnEGFDiIgBiDr+IQCD3M+ho6DccHjzm21T2rqsaZFon9QMzVJ+s/mm1KoZo9UzAWg9TtcC+BWA3xORMdxtC6sBMHMygNWwD/UZbueA5v8UdZdtead9anuXNTWc7QoX2anC+UeWp5XPn6iZhd6GcBrAiwBeIyJDuNoUFgNg5hQAPwOwAYDbcG5jbt5ZbCh76u22aZ3dtpRwtCfSZKYI5zffmFY+f6JmJoBEj9NnALwA4A9E1C13W2Q1AGbOBLAOwD0A3IZzG6NpZ3H3kSffap2uN3CynO2IVjJShOYHl6WWLZqqnU4Ez++gEfYR4WU5DUEWA2DmLABrAdwLwG04tzHOf1yoL3/2r+0zDSb2tP4LkvRkat5wXVrZoqnaaUTwHAWdhvAbIuqS+t6SGgAzZwNYA+A+wP0fsTHOfVyoP/rMe+2zjGb2fP7FAZCmE1o2Xp9aumiqdioRPOdB5wG8AuBFImqX6p6SGAAz5wC4H/bh3u1XbbXxN+/v1Vf96v86ZplM7PkqFMcLSWrqXL8s5dDSOUlTyOPRiR5DeImI2kK9V0gGwMwXAdgE+yudW+dabTjz5s7Oytf+2THPZGFPMSSOHyRrSf/AtallP5ylHScQeRpCE+yvjy8RkT7YewRtAMz8U9gVLbehymrDqW2fdNRu/UQ/12K1JQRbf5wedBrS339NasnSOYnjBHJ/fYZdR7iLiD4Lpu6gDICZn4J9Td6Fycq1f/x3Z92fP+2YbbX10sHjSECiiroeWJb29Y/maC8VCFmiUxYANxLR+4HWGbABMPPtALaLDhk+PtBd+ORbrfMsVo53fBjQaYX2V9akl04coZ6Hnj40A5hFRMWB1BWQATBzBoAKwGV93eu3thzfVdLdy/U6jvysX5ay58aFugWiQ18BmBuII4oQ4D1vRk/n49d/by+Kd37keP799gUHK427RYfmAAgomCXQEWA3gAUA0NLJhxY9VH9ZINdHEoGAiXkqDM9RIiWR0Nxhw5FaM86ej/iKbEgkqUn/xS+HdAiCazX1JSK639/r/X5mM7MGdgsDALz8j7aocWrwhVJBWDY/ESsW65Cd6um1BZSfMuOVj9pRWBH2hThJ0Bs5aU+54eAVkzROA7gikOv9HgGYeR6Affa/oZ93f73SGOXv9ymJAp6/MwOXXaLq97Pv7NbjhQ/aYIt6N87eTMpTndj+QJbTS9oCIM1fbSCQOUC+84/mDtuJaO98VQLht6v963wAWL4wCWuWxuZi5JFTptHMaHUUlQD8jm4OygDKTplCliDlZs2SZFw6wr/Od3L7Ih1mjolqu/YKM6i5g6tFh/L7/LAHgRiAa3b5eYkxKYDrwk5OmgLXXx54E4mAtUtjc2X6cLWhU1SU1gCYeQR6vHR5/9EuTx/9qOLKKRqoEoJTuSfmqTA8O/b0rF0lRp2omO8Ike8Xf0cAl0WZrFzb0sGeenRUMf2S0Ibx6X7OG6KJ/ce6xwBwBqBkoXcgjVcCNoDaBktdYE0LPzlpgepbntf3fl2Mdjq6ONlo5pOiQ3P9uS5gAygoN0T9i5JWFZqbg1YdFeESAVNTb6kXFf2aB/RrAMysBTDFWf68xBiROLw4/bOv3M2ZWBoDAHAZABVgD9Y4ftY0MvCmxQkHu0q7xVFVEx3e2D7xxwB6BCC97YTN1isKNk6UcKLOcjEDLY6iAsCM/q4JyABKq02SOSPGkR5mUFObNSBByJ8XXpEA1KXz9UEpEATgBzMT8f3LtBg1RAlNEBM6nSa0t4DlC5JwdX7gHuttehvKas34oECP4mpTSG0IlqIac+fiaa5BOjQDYOY89ETrcsFRk6wCUHaqAi/elYEJwyPrSqhKoKCEpJREAbnZSvxgphZ/K+jCs39tg8Ua3pemncWGlMXTXP65c5iZfDmI9PdTEQlAOClnlG6imvDq2syId75UXDMvEY/dHP7Y1v3l3WMAOJfqMwGM9vV5vw3gZIP5m9Ca5pvVS1IwcnDsSbC++MFMLRZMDG8ohN7IOqPJTRDy+Rjw2wD2HZFPAEpUE66dNzCjxG75ruzTpl5UN/gvCPVpAA4ByJVudVdJt2wZuKaNUgW9eBPtTBupClmZDJQ9Rwzifg16BJiBHgGoo6LOvzSrwTAofeBKC4IQ/rWFXSUGvwUhXwYg9gCqlFMAUikH5q/fSbhHt+p6c56NudlRFADM6uuzfhlAcU1cAIolmEFN7Ta/BCFfBuDyAN5Vagj/TCZOSByqNIudQgMzAGa+GD1Zu3j/UUNUewDF6c3Okm5x0G6+I8F2L/oaAVwWYzSzrAJQHHkoPGYYjR5BKA29k2sD8MMAahossgpAceRBb2Sd0Yx+5wH9GkDB0ej3AIrjnRN15m9FRf8MwFMA+qLEEJYU7HGkZ195/4KQtxFgJoAEAGBGe8VZc9wDKEbZVdwtzrQ+gZl7JeD0ZgDuAhAHHEIeJ0qo+dYy3MZochS9CkI+DaCoxtQhU9vihAFmUGObpUZ0qNdjwJsB9HgAFXfHZpxUHBdF/QhCbgvwzDwSIgHoq2PyegA5OXPOgv8U9c6GmpGsQN4gJTKS40+hYNlZ3J32XzNdeTnnMLMg3sLG0wNDLADVtHVZw2IABUeNKDjqPUGDQMCUkSqsWKzD/EtjM8/kvVenoLPbfdsgoxk412bFgQojDlYaYZVpV6HCCtNo2HMGKGEXhMYCOOY836cB1DRYv4Gf8WVyYmOgqNqEoupmXDlFgyduSw/7+nqozBnXd6ziisU6nD1vwUsftuOLUumzxHcZbUkGE1doVOTcX3EuRAbgObaKQ8Akb0yofF5iwN2/aYLRPLC0qWFZSrxwZ4ZsCSoq6yx9CkIuA2DmRIgEoJ0lXd520o44R2pNePrdqM9PERR3XKXDjVdIn3ph95FusS+HdwOAXQBSAgAz2qpk9AAKlY8PdKH8VGT87uXmnqtTMDRTWt+bL0oNYkFoPDO7Fve8SoVN7daoFoCYgTd2Bp0fOapJUBBWXiXt2/fJBssIG+Oco0gQCUJeDaCoyiRONxKV7D9qgDnMQRfh4orJGggS//waWyxeXcXFt3EJQDtLDVEvAHUZGWfPxUSqwoBJ1wkYmiltjMTBSrN4txF3A2DmUejZvs1WeDw8AlCoNHUMTAMAgKwUaYeAz4u7xU49c5weQs67iAQgVLfHyH59WlXUTlNCpsso7eOt8ITRKQgB9u18xgNeDKC63twg6Z1lZPAAjSewMVDfLO3oZjBxYreRq0SH8gEvBrD3SPQJQN4YNUSJTImHyWjh6CkT2ruk14Yr6kyNoqLdABwbN09yHt1VZohKAciT788YmLGEAPC3Asl3hwMA7C0z9RKEBHgIQNV15qgVgJxkJAtYvjCqk5UGzfEzZnx0QB4D+Ly0a7ioOI6ZMwSIhv/zUS4AAfZYu6duS0dijKZy80Vzhw0Pvt4Mm0wrg6cbrbk2hvMxQABmCRBFAFWcNUe1AJSgIDx2cxpm+1hdi1Uq68xY8eI51DXJ+2rb0mE7IyrmKwFMcJZqGqxR++sfOywBG65PxZSLYy+Na18wA8fOmPGPL7vw4X69bD4BYhrbrN2iyfM4JQDXQoEgICLaarJWQEpS7yE9K1mBi4coceVkDfInaCDE6Ki/aXsLTje6b01jsjAaW23o6A5Dr4sQyK2PL1ICMMCx62duliIiBnDNvET8z3/H5mYN/lDTYEFlnTnSzQAAZKUpxLNngwDgtLM0fZQ6M/xNihMuNCrqykgSxooOnRYA7HSWkhPp0vG5CVW9L40zEFi+MKmICOIR4DMB9l1AnUO/8Nyq9KZeV8aJeRLVgn71kmSxxtMK4COBiEoBvOs8OiRTOfvuHybvDXsL48jKq2vTDysEEqu8jxCR3rnovA7APAC5AHDn95NnFlYYjxZVmSZ4VhSrVNaZsa/ciFONFnQZbchIVmD0UCWumKQdsGsKTlZ9T/flpDz15aJDuwH8HnBIwER0npmXAdgDQA1A89q6zLTvPdLQHO3bw/THsTNmvPBBG4r6yN37zHtt+HF+In62JAXpuoFnCBPzVCdWL0mZIjrUAOAmIrICIo8gIjoA4D5nWSHQRe9uHFQrCIhZr4uPC7uw8oXzfXY+ANhswAcFXbj1uXOo+iY6XtWkIjVR0br13kwNAOfKmRnA9UTkSvrhZvJE9DsAf3KWM1OE6U+vSI/J+cAXpQb8fEer336D9c1W3PVyk+xSbLggAu/YkFWRoCDxAtADROTWn97GvNUADjsLi6ZpF/54XlKhTO2UhcZWKx59owUcoKzVprdh85st/X8wBnh6ZcbuIRkK8U7i7xDRbzw/18sAiMgA4FrAFVdOD9+QOjYvR3na87PRyuufdAbtUlVcbcKeGHGK6YtF07SHF0/TiCd9xwHc5e2zXmc9RFQLYAUc+9ARIe2tDdkGjYrkWaiWEJOF8c+vQ2vmP76M+n+zT4ZmKr55emVaHuDK7NoB4Boi8prroc9pLxF9DGCLs6xW0Zg31mcXSdhWF4EO1b4oqTGF7FBZeFzaaF0p/z9fqJVkfHtjTptA5HxzYwB3ENGxvq7p773nMQD/dhZGDVHOW7c0ZU/oTXVHSv+3uvOhT+K6TYxmCV3OWzvDs+L3+n1ZB5I0NF506JdE9L6va3wagCORwM0AXFElK67SzZ4xRlUSUks9OCHhSlmrXpovu7lDunqkNKa+WHmVrmD88ATxc38XgEf6u65f5YOImgFcA8CZwkP9uzVZ2RnJgmRrBsfOmHHKY708WGwSDbdSDdufHOqWrE19MTFPdWLt0pTpokMNAG4mon6/VL+kLyIqBnCv6yIBF723KeeUVCIRM/Drv7eH7VkZLlo7bdj2qbx5thxijxaAMw+MGcB1RFTv4zIXfmufRPQHANuc5XSdMP35n2RIJhLtLjPg9/8cOEnJuoyMB7e1SPYo8YZAsL27KasqQUG5osP3EdE+v+sI8J5rABxyFhZO0iy87vKkrwKso0+2/rsDG7a14NuW2FbjiqpNWPHCORyq9J73SCqeviNjT3aqQrw76NtE9EogdQTsZcfMIwAchH2PejCj7botjU0nGyySZRQVBGDaKDVGXxT4xpGlJ004XBV68oilsxMDXiVs7bSh9KQJNQ3SzGd8sWi69vCzK9OnoOd9vwxAPhEFlDghKDdLZl4M4F/OmxtNXHnlQw1DDSYeuOE6UcSwLGXdh5uztaL3/Q4As4joeKB1BbX+SUSfAXjKWVaraPSb67OLg6krTmCoVGR4e2N2u4fYszKYzgeCNAAHT8A+CgAARg5Rzr3naulFojjubLs362Ci2k3seYaIPgi2vqANQCQSuXLR3vZdXX7+BE1psHXG8c3qJcl7x+cmzBcd2gXg0VDqDMkFhoha4C4SJbz80/TsjGTFtz4uixMEk/NUFau+lyye8Z8FcIPTsydYQvaBIqISAD91VSjQkPc2ZdcrBMg/Fb5ASE0SWrbel5UId7FnORGd83GZX0jiBEdEbwLY6iyn64SpL96V4bcYEadvBILt3YeyqxUCxGLPPURUIEn9UlTiYC3s+gAAYP6lmoU3LNB9KWH9FyS/XNVL7HnL4bonCZIZABEZYfckOu889L/LUiaNGaqs8XFZHB8smZ349XemaBaIDpUBuFPKe0jqB01EpwEsh2O/OiLotj+QbdWqKKrzDkQjw7KUdT+/JW0UevqoA3aPXkndlSR3hCeinbBrBAAAdQKN3rEhO/5qGABOsYcAsdizIlixxxdyRUI8CeDvzsKIHOXc9dem7JbpXgOO7ff3Enu2ENHf5LiXLAZARAzgDqBn58obr9DNnT9BFR8J+uGeq1P3jB3qJvZ8DrtrnizIFgslEomcz6yEl+7OGpyTpmj0cdkFzYwxmvLbvpsk9uU/A/v7vmzr47IGwzkij13+6AIh552N2XUKgQZWDJYEpCYJLa+uyUiBPTYTkFDs8YXs0ZBEtAPAa85yapIw7eW7MyQRMQYKAsH2Xm+xZx0R7Zf93nLfwME6AK5/Zs549cLlC+MikZPn78rck+Uu9uwgotf6vEBCwmIARGSGXR9w7Vqx/tqUyWOHJVT7uOyC4EezE79eOFEtFnvcHptyE7aAeCI6A3eRKGn7+iwhSeM9ZOlCIDdLeXazu9jTCnsYV9hi08KaEYGI3F5pVAq6eMeGnBIgMvkJI4lD7On0EHvuIKKwjoqRSImxBYBL1MjNUszfeH3qBedJ9Of7sw5q1TROdOgpIvow3O0IuwE4RKJVAFzp6K67PGnud6ZoZQk8jUb+97rU3WPcxZ5PAfw8Em2JSFIcImoFsAwikei5VeljLgSlcN3S5L3LFySJJ32nYA/jCm/OWAcRzb7LzLcCeEN0yLz3iLHg4e3NM/RG1kWqXXIwJF1Z/+rajJPDc5RzRYeNAC4noq8j1a6Ip19m5t/CHnEkputUo6X46CmzqbrBnNBtjO49DDxJUHA3CLZkrUKZN0iBqSPVKZkpgjiIw8mdRLTVWx3hIhoMQAF7ttJbItyUcPMwEW3p/2PyEvFflmOhYwWATbBnLh/oNMKu8Ue884EoGAHEOOIObwfwIwAjAaT7viImYAD1ACoAvA+7T19rZJvUw/8DASLbzAjQr0wAAAAASUVORK5CYII=;" vertex="1" parent="2">
                    <mxGeometry x="305" y="130" width="50" height="50" as="geometry"/>
                </mxCell>
                <mxCell id="87" value="" style="shape=image;verticalLabelPosition=bottom;labelBackgroundColor=#ffffff;verticalAlign=top;aspect=fixed;imageAspect=0;image=data:image/png,iVBORw0KGgoAAAANSUhEUgAAAIAAAACACAYAAADDPmHLAAAABmJLR0QA/wD/AP+gvaeTAAAWc0lEQVR4nO2deXxU1dnHf8+dySzJZF8AIRBBVtllCyBYC7ZvC32touIOUq1led14BVGxLkWtW2urrS1SqsWtWttXP23VIrIEDQLZCBCyEJaYGMieSWZ/3j9myZ3JZDLLvbOE+f6Vc+/cc0/mPHPuub/zPM8BLjCY+XJmfp2ZjzGznpkbmLmEmZ9g5nGRbl8cmWDmRcz8JfvGxswfMfPMSLc3jkQ4Or6wn473xmfMPDvS7ZcbinQD5ICZCcDVAB4FMM3zfKeBj5SdNDVV1pspVUsYMUiJyXnqSwQBF3mp7l8AniCir2RudkQYUAbAzAKAa2Dv+Mkep63V9ZavHnuzZdCxM+ZLPK8lAn9nirZ40w2plK4Tpnqp/lMATxLRPulbHjkGhAE4Ov6HAB5H71+87ew5S+EDf2weXFVvudif+uaO15Q9fFOqYXCawttcoADAs0T0UWitjg5i2gAcHX8t7B0/3uO0ubrecmDTn5qHVtVb8oKpf/ZY9ZHNt6R1D05TzEDv72pAGEJMGoCo458EMNbjtLm63nJgw7bmYScbLCOkuN/EPNWJX9yW1jQsWzkHvb+z/QCeiVVDiCkDYOYEADcCeBjAGI/Tpup6y9cPbm3OrW20DJfj/hPzVCcevyWtNW+QciZ6f3fFALYAeJ+IWI77y0FMGICo4x8F4DmBM5XXmgs3bGu5pL7FMiQc7Rmfq6x6/NaMb0cNUc4BoPA4XQLgF4gRQ4hqA2BmFYDlADYDGOVx2lheaz7w4J+aRzc0WweHv3XA+NyEqsdvTe/LEMoAPA/gL0RkC3/r/CMqDcDR8Stg/8UP8zitP1hpPPToG63jGlutOWFvnBeG5yjOPHVrRu2leQn5AJQep48AeA7ADiKyhr91vokqA2BmNYDbYf/FD3U/B/2hKuOhR95oHXcuSjrek34M4SiAZxFlhhAVBsDMSQB+AuBBwF2Nc3b8w9tbxp9vt2VHpIEBkpulPPvITak1M0arZwNQe5yugd0QthGRJfytcyeiBsDMOgCrAGwEMNj9HDoLyg2HNv+ldXKb3pYekQaGyLAsZd2jN6VWzxitngVA43H6JIBnEGFDiIgBiDr+IQCD3M+ho6DccHjzm21T2rqsaZFon9QMzVJ+s/mm1KoZo9UzAWg9TtcC+BWA3xORMdxtC6sBMHMygNWwD/UZbueA5v8UdZdtead9anuXNTWc7QoX2anC+UeWp5XPn6iZhd6GcBrAiwBeIyJDuNoUFgNg5hQAPwOwAYDbcG5jbt5ZbCh76u22aZ3dtpRwtCfSZKYI5zffmFY+f6JmJoBEj9NnALwA4A9E1C13W2Q1AGbOBLAOwD0A3IZzG6NpZ3H3kSffap2uN3CynO2IVjJShOYHl6WWLZqqnU4Ez++gEfYR4WU5DUEWA2DmLABrAdwLwG04tzHOf1yoL3/2r+0zDSb2tP4LkvRkat5wXVrZoqnaaUTwHAWdhvAbIuqS+t6SGgAzZwNYA+A+wP0fsTHOfVyoP/rMe+2zjGb2fP7FAZCmE1o2Xp9aumiqdioRPOdB5wG8AuBFImqX6p6SGAAz5wC4H/bh3u1XbbXxN+/v1Vf96v86ZplM7PkqFMcLSWrqXL8s5dDSOUlTyOPRiR5DeImI2kK9V0gGwMwXAdgE+yudW+dabTjz5s7Oytf+2THPZGFPMSSOHyRrSf/AtallP5ylHScQeRpCE+yvjy8RkT7YewRtAMz8U9gVLbehymrDqW2fdNRu/UQ/12K1JQRbf5wedBrS339NasnSOYnjBHJ/fYZdR7iLiD4Lpu6gDICZn4J9Td6Fycq1f/x3Z92fP+2YbbX10sHjSECiiroeWJb29Y/maC8VCFmiUxYANxLR+4HWGbABMPPtALaLDhk+PtBd+ORbrfMsVo53fBjQaYX2V9akl04coZ6Hnj40A5hFRMWB1BWQATBzBoAKwGV93eu3thzfVdLdy/U6jvysX5ay58aFugWiQ18BmBuII4oQ4D1vRk/n49d/by+Kd37keP799gUHK427RYfmAAgomCXQEWA3gAUA0NLJhxY9VH9ZINdHEoGAiXkqDM9RIiWR0Nxhw5FaM86ej/iKbEgkqUn/xS+HdAiCazX1JSK639/r/X5mM7MGdgsDALz8j7aocWrwhVJBWDY/ESsW65Cd6um1BZSfMuOVj9pRWBH2hThJ0Bs5aU+54eAVkzROA7gikOv9HgGYeR6Affa/oZ93f73SGOXv9ymJAp6/MwOXXaLq97Pv7NbjhQ/aYIt6N87eTMpTndj+QJbTS9oCIM1fbSCQOUC+84/mDtuJaO98VQLht6v963wAWL4wCWuWxuZi5JFTptHMaHUUlQD8jm4OygDKTplCliDlZs2SZFw6wr/Od3L7Ih1mjolqu/YKM6i5g6tFh/L7/LAHgRiAa3b5eYkxKYDrwk5OmgLXXx54E4mAtUtjc2X6cLWhU1SU1gCYeQR6vHR5/9EuTx/9qOLKKRqoEoJTuSfmqTA8O/b0rF0lRp2omO8Ike8Xf0cAl0WZrFzb0sGeenRUMf2S0Ibx6X7OG6KJ/ce6xwBwBqBkoXcgjVcCNoDaBktdYE0LPzlpgepbntf3fl2Mdjq6ONlo5pOiQ3P9uS5gAygoN0T9i5JWFZqbg1YdFeESAVNTb6kXFf2aB/RrAMysBTDFWf68xBiROLw4/bOv3M2ZWBoDAHAZABVgD9Y4ftY0MvCmxQkHu0q7xVFVEx3e2D7xxwB6BCC97YTN1isKNk6UcKLOcjEDLY6iAsCM/q4JyABKq02SOSPGkR5mUFObNSBByJ8XXpEA1KXz9UEpEATgBzMT8f3LtBg1RAlNEBM6nSa0t4DlC5JwdX7gHuttehvKas34oECP4mpTSG0IlqIac+fiaa5BOjQDYOY89ETrcsFRk6wCUHaqAi/elYEJwyPrSqhKoKCEpJREAbnZSvxgphZ/K+jCs39tg8Ua3pemncWGlMXTXP65c5iZfDmI9PdTEQlAOClnlG6imvDq2syId75UXDMvEY/dHP7Y1v3l3WMAOJfqMwGM9vV5vw3gZIP5m9Ca5pvVS1IwcnDsSbC++MFMLRZMDG8ohN7IOqPJTRDy+Rjw2wD2HZFPAEpUE66dNzCjxG75ruzTpl5UN/gvCPVpAA4ByJVudVdJt2wZuKaNUgW9eBPtTBupClmZDJQ9Rwzifg16BJiBHgGoo6LOvzSrwTAofeBKC4IQ/rWFXSUGvwUhXwYg9gCqlFMAUikH5q/fSbhHt+p6c56NudlRFADM6uuzfhlAcU1cAIolmEFN7Ta/BCFfBuDyAN5Vagj/TCZOSByqNIudQgMzAGa+GD1Zu3j/UUNUewDF6c3Okm5x0G6+I8F2L/oaAVwWYzSzrAJQHHkoPGYYjR5BKA29k2sD8MMAahossgpAceRBb2Sd0Yx+5wH9GkDB0ej3AIrjnRN15m9FRf8MwFMA+qLEEJYU7HGkZ195/4KQtxFgJoAEAGBGe8VZc9wDKEbZVdwtzrQ+gZl7JeD0ZgDuAhAHHEIeJ0qo+dYy3MZochS9CkI+DaCoxtQhU9vihAFmUGObpUZ0qNdjwJsB9HgAFXfHZpxUHBdF/QhCbgvwzDwSIgHoq2PyegA5OXPOgv8U9c6GmpGsQN4gJTKS40+hYNlZ3J32XzNdeTnnMLMg3sLG0wNDLADVtHVZw2IABUeNKDjqPUGDQMCUkSqsWKzD/EtjM8/kvVenoLPbfdsgoxk412bFgQojDlYaYZVpV6HCCtNo2HMGKGEXhMYCOOY836cB1DRYv4Gf8WVyYmOgqNqEoupmXDlFgyduSw/7+nqozBnXd6ziisU6nD1vwUsftuOLUumzxHcZbUkGE1doVOTcX3EuRAbgObaKQ8Akb0yofF5iwN2/aYLRPLC0qWFZSrxwZ4ZsCSoq6yx9CkIuA2DmRIgEoJ0lXd520o44R2pNePrdqM9PERR3XKXDjVdIn3ph95FusS+HdwOAXQBSAgAz2qpk9AAKlY8PdKH8VGT87uXmnqtTMDRTWt+bL0oNYkFoPDO7Fve8SoVN7daoFoCYgTd2Bp0fOapJUBBWXiXt2/fJBssIG+Oco0gQCUJeDaCoyiRONxKV7D9qgDnMQRfh4orJGggS//waWyxeXcXFt3EJQDtLDVEvAHUZGWfPxUSqwoBJ1wkYmiltjMTBSrN4txF3A2DmUejZvs1WeDw8AlCoNHUMTAMAgKwUaYeAz4u7xU49c5weQs67iAQgVLfHyH59WlXUTlNCpsso7eOt8ITRKQgB9u18xgNeDKC63twg6Z1lZPAAjSewMVDfLO3oZjBxYreRq0SH8gEvBrD3SPQJQN4YNUSJTImHyWjh6CkT2ruk14Yr6kyNoqLdABwbN09yHt1VZohKAciT788YmLGEAPC3Asl3hwMA7C0z9RKEBHgIQNV15qgVgJxkJAtYvjCqk5UGzfEzZnx0QB4D+Ly0a7ioOI6ZMwSIhv/zUS4AAfZYu6duS0dijKZy80Vzhw0Pvt4Mm0wrg6cbrbk2hvMxQABmCRBFAFWcNUe1AJSgIDx2cxpm+1hdi1Uq68xY8eI51DXJ+2rb0mE7IyrmKwFMcJZqGqxR++sfOywBG65PxZSLYy+Na18wA8fOmPGPL7vw4X69bD4BYhrbrN2iyfM4JQDXQoEgICLaarJWQEpS7yE9K1mBi4coceVkDfInaCDE6Ki/aXsLTje6b01jsjAaW23o6A5Dr4sQyK2PL1ICMMCx62duliIiBnDNvET8z3/H5mYN/lDTYEFlnTnSzQAAZKUpxLNngwDgtLM0fZQ6M/xNihMuNCrqykgSxooOnRYA7HSWkhPp0vG5CVW9L40zEFi+MKmICOIR4DMB9l1AnUO/8Nyq9KZeV8aJeRLVgn71kmSxxtMK4COBiEoBvOs8OiRTOfvuHybvDXsL48jKq2vTDysEEqu8jxCR3rnovA7APAC5AHDn95NnFlYYjxZVmSZ4VhSrVNaZsa/ciFONFnQZbchIVmD0UCWumKQdsGsKTlZ9T/flpDz15aJDuwH8HnBIwER0npmXAdgDQA1A89q6zLTvPdLQHO3bw/THsTNmvPBBG4r6yN37zHtt+HF+In62JAXpuoFnCBPzVCdWL0mZIjrUAOAmIrICIo8gIjoA4D5nWSHQRe9uHFQrCIhZr4uPC7uw8oXzfXY+ANhswAcFXbj1uXOo+iY6XtWkIjVR0br13kwNAOfKmRnA9UTkSvrhZvJE9DsAf3KWM1OE6U+vSI/J+cAXpQb8fEer336D9c1W3PVyk+xSbLggAu/YkFWRoCDxAtADROTWn97GvNUADjsLi6ZpF/54XlKhTO2UhcZWKx59owUcoKzVprdh85st/X8wBnh6ZcbuIRkK8U7i7xDRbzw/18sAiMgA4FrAFVdOD9+QOjYvR3na87PRyuufdAbtUlVcbcKeGHGK6YtF07SHF0/TiCd9xwHc5e2zXmc9RFQLYAUc+9ARIe2tDdkGjYrkWaiWEJOF8c+vQ2vmP76M+n+zT4ZmKr55emVaHuDK7NoB4Boi8prroc9pLxF9DGCLs6xW0Zg31mcXSdhWF4EO1b4oqTGF7FBZeFzaaF0p/z9fqJVkfHtjTptA5HxzYwB3ENGxvq7p773nMQD/dhZGDVHOW7c0ZU/oTXVHSv+3uvOhT+K6TYxmCV3OWzvDs+L3+n1ZB5I0NF506JdE9L6va3wagCORwM0AXFElK67SzZ4xRlUSUks9OCHhSlmrXpovu7lDunqkNKa+WHmVrmD88ATxc38XgEf6u65f5YOImgFcA8CZwkP9uzVZ2RnJgmRrBsfOmHHKY708WGwSDbdSDdufHOqWrE19MTFPdWLt0pTpokMNAG4mon6/VL+kLyIqBnCv6yIBF723KeeUVCIRM/Drv7eH7VkZLlo7bdj2qbx5thxijxaAMw+MGcB1RFTv4zIXfmufRPQHANuc5XSdMP35n2RIJhLtLjPg9/8cOEnJuoyMB7e1SPYo8YZAsL27KasqQUG5osP3EdE+v+sI8J5rABxyFhZO0iy87vKkrwKso0+2/rsDG7a14NuW2FbjiqpNWPHCORyq9J73SCqeviNjT3aqQrw76NtE9EogdQTsZcfMIwAchH2PejCj7botjU0nGyySZRQVBGDaKDVGXxT4xpGlJ004XBV68oilsxMDXiVs7bSh9KQJNQ3SzGd8sWi69vCzK9OnoOd9vwxAPhEFlDghKDdLZl4M4F/OmxtNXHnlQw1DDSYeuOE6UcSwLGXdh5uztaL3/Q4As4joeKB1BbX+SUSfAXjKWVaraPSb67OLg6krTmCoVGR4e2N2u4fYszKYzgeCNAAHT8A+CgAARg5Rzr3naulFojjubLs362Ci2k3seYaIPgi2vqANQCQSuXLR3vZdXX7+BE1psHXG8c3qJcl7x+cmzBcd2gXg0VDqDMkFhoha4C4SJbz80/TsjGTFtz4uixMEk/NUFau+lyye8Z8FcIPTsydYQvaBIqISAD91VSjQkPc2ZdcrBMg/Fb5ASE0SWrbel5UId7FnORGd83GZX0jiBEdEbwLY6iyn64SpL96V4bcYEadvBILt3YeyqxUCxGLPPURUIEn9UlTiYC3s+gAAYP6lmoU3LNB9KWH9FyS/XNVL7HnL4bonCZIZABEZYfckOu889L/LUiaNGaqs8XFZHB8smZ349XemaBaIDpUBuFPKe0jqB01EpwEsh2O/OiLotj+QbdWqKKrzDkQjw7KUdT+/JW0UevqoA3aPXkndlSR3hCeinbBrBAAAdQKN3rEhO/5qGABOsYcAsdizIlixxxdyRUI8CeDvzsKIHOXc9dem7JbpXgOO7ff3Enu2ENHf5LiXLAZARAzgDqBn58obr9DNnT9BFR8J+uGeq1P3jB3qJvZ8DrtrnizIFgslEomcz6yEl+7OGpyTpmj0cdkFzYwxmvLbvpsk9uU/A/v7vmzr47IGwzkij13+6AIh552N2XUKgQZWDJYEpCYJLa+uyUiBPTYTkFDs8YXs0ZBEtAPAa85yapIw7eW7MyQRMQYKAsH2Xm+xZx0R7Zf93nLfwME6AK5/Zs549cLlC+MikZPn78rck+Uu9uwgotf6vEBCwmIARGSGXR9w7Vqx/tqUyWOHJVT7uOyC4EezE79eOFEtFnvcHptyE7aAeCI6A3eRKGn7+iwhSeM9ZOlCIDdLeXazu9jTCnsYV9hi08KaEYGI3F5pVAq6eMeGnBIgMvkJI4lD7On0EHvuIKKwjoqRSImxBYBL1MjNUszfeH3qBedJ9Of7sw5q1TROdOgpIvow3O0IuwE4RKJVAFzp6K67PGnud6ZoZQk8jUb+97rU3WPcxZ5PAfw8Em2JSFIcImoFsAwikei5VeljLgSlcN3S5L3LFySJJ32nYA/jCm/OWAcRzb7LzLcCeEN0yLz3iLHg4e3NM/RG1kWqXXIwJF1Z/+rajJPDc5RzRYeNAC4noq8j1a6Ip19m5t/CHnEkputUo6X46CmzqbrBnNBtjO49DDxJUHA3CLZkrUKZN0iBqSPVKZkpgjiIw8mdRLTVWx3hIhoMQAF7ttJbItyUcPMwEW3p/2PyEvFflmOhYwWATbBnLh/oNMKu8Ue884EoGAHEOOIObwfwIwAjAaT7viImYAD1ACoAvA+7T19rZJvUw/8DASLbzAjQr0wAAAAASUVORK5CYII=;" vertex="1" parent="2">
                    <mxGeometry x="158" y="130" width="50" height="50" as="geometry"/>
                </mxCell>
                <mxCell id="88" value="&lt;p&gt;&lt;span style=&quot;font-size: 14px&quot;&gt;application&lt;/span&gt;&lt;/p&gt;" style="text;html=1;strokeColor=none;fillColor=none;spacing=5;spacingTop=-20;whiteSpace=wrap;overflow=hidden;rounded=0;" vertex="1" parent="2">
                    <mxGeometry x="143" y="180" width="80" height="20" as="geometry"/>
                </mxCell>
                <mxCell id="89" value="&lt;p&gt;&lt;span style=&quot;font-size: 14px&quot;&gt;application&lt;/span&gt;&lt;/p&gt;" style="text;html=1;strokeColor=none;fillColor=none;spacing=5;spacingTop=-20;whiteSpace=wrap;overflow=hidden;rounded=0;" vertex="1" parent="2">
                    <mxGeometry x="215" y="180" width="80" height="20" as="geometry"/>
                </mxCell>
                <mxCell id="90" value="&lt;p&gt;&lt;span style=&quot;font-size: 14px&quot;&gt;application&lt;/span&gt;&lt;/p&gt;" style="text;html=1;strokeColor=none;fillColor=none;spacing=5;spacingTop=-20;whiteSpace=wrap;overflow=hidden;rounded=0;" vertex="1" parent="2">
                    <mxGeometry x="290" y="180" width="80" height="20" as="geometry"/>
                </mxCell>
                <mxCell id="11" value="" style="shape=flexArrow;endArrow=classic;html=1;fontSize=14;fillColor=#0DF7FF;" parent="2" edge="1">
                    <mxGeometry width="50" height="50" relative="1" as="geometry">
                        <mxPoint x="253.5" y="220" as="sourcePoint"/>
                        <mxPoint x="253.5" y="270" as="targetPoint"/>
                    </mxGeometry>
                </mxCell>
                <mxCell id="16" value="" style="dashed=0;outlineConnect=0;html=1;align=center;labelPosition=center;verticalLabelPosition=bottom;verticalAlign=top;shape=mxgraph.weblogos.github;fontSize=14;" parent="1" vertex="1">
                    <mxGeometry x="540" y="100" width="40" height="40" as="geometry"/>
                </mxCell>
                <mxCell id="18" value="application" style="shape=document;whiteSpace=wrap;html=1;boundedLbl=1;fontSize=14;" parent="1" vertex="1">
                    <mxGeometry x="590" y="180" width="70" height="50" as="geometry"/>
                </mxCell>
                <mxCell id="19" value="application" style="shape=document;whiteSpace=wrap;html=1;boundedLbl=1;fontSize=14;" parent="1" vertex="1">
                    <mxGeometry x="664.88" y="180" width="70.24" height="50" as="geometry"/>
                </mxCell>
                <mxCell id="20" value="application" style="shape=document;whiteSpace=wrap;html=1;boundedLbl=1;fontSize=14;" parent="1" vertex="1">
                    <mxGeometry x="740.12" y="180" width="69.88" height="50" as="geometry"/>
                </mxCell>
                <mxCell id="22" value="&lt;h1&gt;&lt;font style=&quot;font-size: 14px&quot;&gt;nautible-plugin&lt;/font&gt;&lt;/h1&gt;" style="text;html=1;strokeColor=none;fillColor=none;spacing=5;spacingTop=-20;whiteSpace=wrap;overflow=hidden;rounded=0;" parent="1" vertex="1">
                    <mxGeometry x="645" y="140" width="110" height="40" as="geometry"/>
                </mxCell>
                <mxCell id="39" value="&lt;h1&gt;&lt;font style=&quot;font-size: 14px&quot;&gt;nautible&lt;/font&gt;&lt;/h1&gt;" style="text;html=1;strokeColor=none;fillColor=none;spacing=5;spacingTop=-20;whiteSpace=wrap;overflow=hidden;rounded=0;" parent="1" vertex="1">
                    <mxGeometry x="590" y="90" width="110" height="40" as="geometry"/>
                </mxCell>
                <mxCell id="40" value="" style="rounded=0;whiteSpace=wrap;html=1;" parent="1" vertex="1">
                    <mxGeometry x="580" y="310" width="240" height="90" as="geometry"/>
                </mxCell>
                <mxCell id="41" value="manifest" style="shape=document;whiteSpace=wrap;html=1;boundedLbl=1;fontSize=14;" parent="1" vertex="1">
                    <mxGeometry x="590" y="340" width="60" height="50" as="geometry"/>
                </mxCell>
                <mxCell id="42" value="manifest" style="shape=document;whiteSpace=wrap;html=1;boundedLbl=1;fontSize=14;" parent="1" vertex="1">
                    <mxGeometry x="659.76" y="340" width="60" height="50" as="geometry"/>
                </mxCell>
                <mxCell id="43" value="manifest" style="shape=document;whiteSpace=wrap;html=1;boundedLbl=1;fontSize=14;" parent="1" vertex="1">
                    <mxGeometry x="732" y="340" width="60" height="50" as="geometry"/>
                </mxCell>
                <mxCell id="44" value="&lt;h1&gt;&lt;font style=&quot;font-size: 14px&quot;&gt;各アプリケーション&lt;/font&gt;&lt;/h1&gt;" style="text;html=1;strokeColor=none;fillColor=none;spacing=5;spacingTop=-20;whiteSpace=wrap;overflow=hidden;rounded=0;" parent="1" vertex="1">
                    <mxGeometry x="632.5" y="300" width="135" height="40" as="geometry"/>
                </mxCell>
                <mxCell id="47" value="&lt;span style=&quot;color: rgba(0 , 0 , 0 , 0) ; font-family: monospace ; font-size: 0px&quot;&gt;%3CmxGraphModel%3E%3Croot%3E%3CmxCell%20id%3D%220%22%2F%3E%3CmxCell%20id%3D%221%22%20parent%3D%220%22%2F%3E%3CmxCell%20id%3D%222%22%20value%3D%22%22%20style%3D%22shape%3DflexArrow%3BendArrow%3Dclassic%3Bhtml%3D1%3BfontSize%3D14%3BfillColor%3D%230DF7FF%3B%22%20edge%3D%221%22%20parent%3D%221%22%3E%3CmxGeometry%20width%3D%2250%22%20height%3D%2250%22%20relative%3D%221%22%20as%3D%22geometry%22%3E%3CmxPoint%20x%3D%22281.26%22%20y%3D%22260%22%20as%3D%22sourcePoint%22%2F%3E%3CmxPoint%20x%3D%22281.52%22%20y%3D%22310%22%20as%3D%22targetPoint%22%2F%3E%3C%2FmxGeometry%3E%3C%2FmxCell%3E%3C%2Froot%3E%3C%2FmxGraphModel%3E&lt;/span&gt;" style="rounded=0;whiteSpace=wrap;html=1;" parent="1" vertex="1">
                    <mxGeometry x="540" y="420" width="320" height="90" as="geometry"/>
                </mxCell>
                <mxCell id="48" value="" style="dashed=0;outlineConnect=0;html=1;align=center;labelPosition=center;verticalLabelPosition=bottom;verticalAlign=top;shape=mxgraph.weblogos.github;fontSize=14;" parent="1" vertex="1">
                    <mxGeometry x="540" y="420" width="40" height="40" as="geometry"/>
                </mxCell>
                <mxCell id="49" value="&lt;h1&gt;&lt;font style=&quot;font-size: 14px&quot;&gt;各エコシステム（外部リポジトリ）&lt;/font&gt;&lt;/h1&gt;" style="text;html=1;strokeColor=none;fillColor=none;spacing=5;spacingTop=-20;whiteSpace=wrap;overflow=hidden;rounded=0;" parent="1" vertex="1">
                    <mxGeometry x="580" y="410" width="270" height="40" as="geometry"/>
                </mxCell>
                <mxCell id="50" value="manifest" style="shape=document;whiteSpace=wrap;html=1;boundedLbl=1;fontSize=14;" parent="1" vertex="1">
                    <mxGeometry x="590" y="450" width="60" height="50" as="geometry"/>
                </mxCell>
                <mxCell id="51" value="manifest" style="shape=document;whiteSpace=wrap;html=1;boundedLbl=1;fontSize=14;" parent="1" vertex="1">
                    <mxGeometry x="659.76" y="450" width="60" height="50" as="geometry"/>
                </mxCell>
                <mxCell id="52" value="manifest" style="shape=document;whiteSpace=wrap;html=1;boundedLbl=1;fontSize=14;" parent="1" vertex="1">
                    <mxGeometry x="732" y="450" width="60" height="50" as="geometry"/>
                </mxCell>
                <mxCell id="61" value="manifest" style="shape=document;whiteSpace=wrap;html=1;boundedLbl=1;fontSize=14;" parent="1" vertex="1">
                    <mxGeometry x="590" y="240" width="60" height="50" as="geometry"/>
                </mxCell>
                <mxCell id="62" value="manifest" style="shape=document;whiteSpace=wrap;html=1;boundedLbl=1;fontSize=14;" parent="1" vertex="1">
                    <mxGeometry x="659.76" y="240" width="60" height="50" as="geometry"/>
                </mxCell>
                <mxCell id="63" value="manifest" style="shape=document;whiteSpace=wrap;html=1;boundedLbl=1;fontSize=14;" parent="1" vertex="1">
                    <mxGeometry x="732" y="240" width="60" height="50" as="geometry"/>
                </mxCell>
                <mxCell id="71" value="" style="shape=flexArrow;endArrow=classic;html=1;fontSize=14;fillColor=#0DF7FF;endWidth=14;endSize=6.86;width=8;" parent="1" edge="1">
                    <mxGeometry width="50" height="50" relative="1" as="geometry">
                        <mxPoint x="400" y="300" as="sourcePoint"/>
                        <mxPoint x="400" y="320" as="targetPoint"/>
                        <Array as="points">
                            <mxPoint x="530" y="350"/>
                        </Array>
                    </mxGeometry>
                </mxCell>
            </root>
        </mxGraphModel>
    </diagram>
</mxfile>